
<svg width="444" height="280" viewBox="0 0 444 280" fill="none" xmlns="http://www.w3.org/2000/svg">
<g filter="url(#filter0_d_39_1818)">
<path opacity="0.2" d="M244.261 66.6618L342.825 35.1111L343.282 63.9981L244.673 95.5488L244.261 66.6618Z" fill="url(#paint0_linear_39_1818)"/>
<path opacity="0.15" d="M317.704 50.1624L288.052 59.6535L288.098 63.1189L317.749 53.6278L317.704 50.1624Z" fill="white"/>
<path opacity="0.15" d="M317.795 57.119L254.649 77.3167L254.694 80.8338L317.841 60.6362L317.795 57.119Z" fill="white"/>
<path d="M322.966 51.1969C323.012 53.5761 325.528 54.714 328.64 53.7054C331.752 52.7227 334.223 49.9814 334.177 47.6022C334.131 45.2229 331.614 44.085 328.503 45.0936C325.391 46.1022 322.92 48.8177 322.966 51.1969Z" fill="#DB2122"/>
<path opacity="0.2" d="M20 196.071L118.609 164.546L119.067 193.433L20.4118 224.958L20 196.071Z" fill="url(#paint1_linear_39_1818)"/>
<path opacity="0.15" d="M93.4878 179.572L63.8364 189.063L63.8822 192.528L93.5336 183.037L93.4878 179.572Z" fill="white"/>
<path opacity="0.15" d="M93.5334 186.528L30.387 206.726L30.4327 210.243L93.5792 190.046L93.5334 186.528Z" fill="white"/>
<path d="M98.7042 180.632C98.75 183.011 101.267 184.149 104.378 183.141C107.49 182.158 109.961 179.417 109.915 177.037C109.869 174.658 107.353 173.52 104.241 174.529C101.129 175.512 98.6585 178.227 98.7042 180.632Z" fill="#DB2122"/>
<path opacity="0.1" d="M134.99 11.1379C153.568 13.1809 195.346 15.8188 213.557 10C213.42 51.171 195.574 109.591 137.233 157.771C77.9756 147.194 58.5283 100.695 57.1555 60.0414C75.3673 54.1968 116.641 24.9995 134.99 11.1379Z" fill="url(#paint2_linear_39_1818)"/>
<path opacity="0.3" d="M157.687 19.6721C176.265 21.7151 218.042 24.353 236.254 18.5342C236.116 59.6794 218.271 118.1 159.929 166.279C100.672 155.702 81.2246 109.229 79.8518 68.5498C98.0636 62.7051 139.338 33.5337 157.687 19.6721Z" fill="url(#paint3_linear_39_1818)"/>
<path opacity="0.4" d="M79.8518 68.5497C98.1094 62.7051 139.338 33.5337 157.687 19.6721L159.929 166.279C100.672 155.702 81.2246 109.229 79.8518 68.5497Z" fill="url(#paint4_linear_39_1818)"/>
<path opacity="0.1" d="M255.518 97.0746L164.23 126.272L166.106 249.294L257.348 220.096L255.518 97.0746Z" fill="url(#paint5_linear_39_1818)"/>
<path opacity="0.2" d="M244.719 152.909L175.898 174.917L176.402 209.105L245.268 187.097L244.719 152.909Z" fill="url(#paint6_linear_39_1818)"/>
<path opacity="0.15" d="M243.026 130.151L211.224 140.315L211.27 143.832L243.072 133.668L243.026 130.151Z" fill="white"/>
<path opacity="0.15" d="M243.026 137.134L211.224 147.297L211.27 150.814L243.072 140.651L243.026 137.134Z" fill="white"/>
<path opacity="0.15" d="M243.255 143.857L182.854 163.176L182.9 166.693L243.301 147.375L243.255 143.857Z" fill="white"/>
<path opacity="0.2" d="M255.518 97.0746L164.23 126.272L164.505 142.746L255.747 113.548L255.518 97.0746Z" fill="url(#paint7_linear_39_1818)"/>
<path opacity="0.2" d="M232.822 112.721C232.868 115.203 235.476 116.393 238.679 115.384C241.882 114.35 244.445 111.505 244.399 109.022C244.353 106.54 241.745 105.35 238.542 106.359C235.339 107.393 232.776 110.238 232.822 112.721Z" fill="white"/>
<path d="M202.118 152.857L201.889 138.685L140.024 158.469L140.253 172.641L202.118 152.857Z" fill="#DB2122"/>
<path opacity="0.3" d="M273.364 93.0403L409.54 48.6107L409.495 88.7215L285.307 129.22L273.272 139.28L273.364 93.0403Z" fill="url(#paint8_linear_39_1818)"/>
<path d="M424 64.2567V53.3692L372.613 70.1272V81.0148L424 64.2567Z" fill="#4C0300"/>
<path opacity="0.15" d="M308.323 91.3851L338.157 81.6613V85.1784L308.323 94.9022V91.3851Z" fill="white"/>
<path opacity="0.15" d="M308.323 98.4194L365.841 79.6701V83.1872L308.323 101.937V98.4194Z" fill="white"/>
<path opacity="0.15" d="M308.323 105.48L378.013 82.7475V86.2646L308.323 108.997V105.48Z" fill="white"/>
<path d="M301.002 97.4625C301.002 100.773 297.524 104.574 293.269 105.971C289.013 107.367 285.535 105.816 285.535 102.505C285.535 99.1952 289.013 95.3937 293.269 93.9971C297.524 92.6006 301.002 94.1523 301.002 97.4625Z" fill="#4C0300"/>
<path opacity="0.2" d="M317.154 134.366C314.409 135.246 312.212 137.418 312.212 139.202V147.09L302.969 150.116C300.224 150.995 298.027 153.168 298.027 154.952C298.027 156.736 300.224 157.46 302.969 156.581L312.212 153.581V161.469C312.212 163.253 314.409 163.978 317.154 163.098C319.9 162.219 322.096 160.047 322.096 158.262V150.375L331.339 147.375C334.085 146.495 336.281 144.323 336.281 142.539C336.281 140.754 334.085 140.03 331.339 140.909L322.096 143.909V136.022C322.096 134.211 319.9 133.487 317.154 134.366Z" fill="url(#paint9_linear_39_1818)"/>
<path opacity="0.2" d="M189.44 111.729L263.91 87.889L264.256 109.716L189.752 133.555L189.44 111.729Z" fill="url(#paint10_linear_39_1818)"/>
<path opacity="0.15" d="M244.93 99.2617L222.527 106.433L222.561 109.051L244.964 101.88L244.93 99.2617Z" fill="white"/>
<path opacity="0.15" d="M244.999 104.518L197.289 119.779L197.323 122.437L245.033 107.176L244.999 104.518Z" fill="white"/>
<path d="M248.906 100.043C248.94 101.841 250.842 102.701 253.193 101.939C255.543 101.196 257.41 99.1249 257.376 97.3272C257.341 95.5294 255.44 94.6697 253.089 95.4317C250.738 96.1938 248.871 98.2456 248.906 100.043Z" fill="#DB2122"/>
<path opacity="0.2" d="M20 209.51L94.5041 185.69L94.8498 207.516L20.3112 231.336L20 209.51Z" fill="url(#paint11_linear_39_1818)"/>
<path opacity="0.15" d="M75.5237 197.043L53.1206 204.214L53.1552 206.833L75.5583 199.661L75.5237 197.043Z" fill="white"/>
<path opacity="0.15" d="M75.5582 202.299L27.8479 217.56L27.8825 220.218L75.5927 204.957L75.5582 202.299Z" fill="white"/>
<path d="M79.4648 197.844C79.4994 199.642 81.4009 200.501 83.7518 199.739C86.1028 198.997 87.9697 196.925 87.9351 195.128C87.9006 193.33 85.9991 192.47 83.6481 193.232C81.2972 193.975 79.4303 196.027 79.4648 197.844Z" fill="#DB2122"/>
<path opacity="0.1" d="M106.881 69.775C120.918 71.3187 152.482 73.3118 166.242 68.9152C166.139 100.024 152.655 144.166 108.575 180.57C63.8036 172.578 49.1102 137.444 48.073 106.726C61.8329 102.31 93.0175 80.2487 106.881 69.775Z" fill="url(#paint12_linear_39_1818)"/>
<path opacity="0.3" d="M124.029 76.2234C138.066 77.7671 169.63 79.7602 183.39 75.3636C183.287 106.453 169.803 150.595 125.723 186.999C80.9515 179.007 66.2581 143.892 65.2209 113.155C78.9809 108.739 110.165 86.6971 124.029 76.2234Z" fill="url(#paint13_linear_39_1818)"/>
<path opacity="0.4" d="M65.2209 113.155C79.0154 108.739 110.165 86.6971 124.029 76.2234L125.723 186.999C80.9515 179.007 66.2581 143.892 65.2209 113.155Z" fill="url(#paint14_linear_39_1818)"/>
<path opacity="0.1" d="M197.945 134.708L128.973 156.77L130.39 249.724L199.328 227.663L197.945 134.708Z" fill="url(#paint15_linear_39_1818)"/>
<path opacity="0.2" d="M189.786 176.896L137.789 193.525L138.169 219.358L190.201 202.729L189.786 176.896Z" fill="url(#paint16_linear_39_1818)"/>
<path opacity="0.15" d="M188.507 159.701L164.479 167.38L164.514 170.038L188.542 162.358L188.507 159.701Z" fill="white"/>
<path opacity="0.15" d="M188.507 164.977L164.479 172.656L164.514 175.314L188.542 167.634L188.507 164.977Z" fill="white"/>
<path opacity="0.15" d="M188.68 170.057L143.044 184.654L143.079 187.311L188.714 172.715L188.68 170.057Z" fill="white"/>
<path opacity="0.2" d="M197.945 134.708L128.973 156.77L129.18 169.217L198.118 147.156L197.945 134.708Z" fill="url(#paint17_linear_39_1818)"/>
<path opacity="0.2" d="M180.797 146.53C180.832 148.406 182.803 149.305 185.223 148.543C187.643 147.761 189.579 145.612 189.544 143.736C189.51 141.86 187.539 140.961 185.119 141.723C182.699 142.505 180.763 144.654 180.797 146.53Z" fill="white"/>
<path d="M157.599 176.857L157.426 166.149L110.684 181.098L110.857 191.806L157.599 176.857Z" fill="#DB2122"/>
<path opacity="0.3" d="M211.429 131.66L314.317 98.0892L314.282 128.397L220.452 158.997L211.36 166.598L211.429 131.66Z" fill="url(#paint18_linear_39_1818)"/>
<path d="M325.242 109.911V101.685L286.417 114.347V122.574L325.242 109.911Z" fill="#4C0300"/>
<path opacity="0.15" d="M237.842 130.409L260.383 123.062V125.72L237.842 133.067V130.409Z" fill="white"/>
<path opacity="0.15" d="M237.842 135.724L281.3 121.557V124.215L237.842 138.382V135.724Z" fill="white"/>
<path opacity="0.15" d="M237.842 141.059L290.496 123.883V126.54L237.842 143.716V141.059Z" fill="white"/>
<path d="M232.311 135.001C232.311 137.503 229.683 140.375 226.468 141.43C223.253 142.485 220.625 141.313 220.625 138.812C220.625 136.311 223.253 133.438 226.468 132.383C229.683 131.328 232.311 132.5 232.311 135.001Z" fill="#4C0300"/>
<path opacity="0.2" d="M244.515 162.886C242.44 163.55 240.781 165.192 240.781 166.54V172.5L233.797 174.786C231.723 175.45 230.063 177.092 230.063 178.44C230.063 179.788 231.723 180.335 233.797 179.671L240.781 177.404V183.364C240.781 184.713 242.44 185.26 244.515 184.595C246.589 183.931 248.248 182.29 248.248 180.941V174.981L255.232 172.715C257.306 172.05 258.966 170.409 258.966 169.061C258.966 167.712 257.306 167.165 255.232 167.829L248.248 170.096V164.136C248.248 162.768 246.589 162.221 244.515 162.886Z" fill="url(#paint19_linear_39_1818)"/>
</g>
<defs>
<filter id="filter0_d_39_1818" x="0" y="0" width="444" height="279.724" filterUnits="userSpaceOnUse" color-interpolation-filters="sRGB">
<feFlood flood-opacity="0" result="BackgroundImageFix"/>
<feColorMatrix in="SourceAlpha" type="matrix" values="0 0 0 0 0 0 0 0 0 0 0 0 0 0 0 0 0 0 127 0" result="hardAlpha"/>
<feOffset dy="10"/>
<feGaussianBlur stdDeviation="10"/>
<feComposite in2="hardAlpha" operator="out"/>
<feColorMatrix type="matrix" values="0 0 0 0 1 0 0 0 0 0.933333 0 0 0 0 0.933333 0 0 0 0.5 0"/>
<feBlend mode="normal" in2="BackgroundImageFix" result="effect1_dropShadow_39_1818"/>
<feBlend mode="normal" in="SourceGraphic" in2="effect1_dropShadow_39_1818" result="shape"/>
</filter>
<linearGradient id="paint0_linear_39_1818" x1="282.753" y1="54.3378" x2="291.174" y2="80.6716" gradientUnits="userSpaceOnUse">
<stop stop-color="#FE1D00"/>
<stop offset="1" stop-color="#FE1D00" stop-opacity="0"/>
</linearGradient>
<linearGradient id="paint1_linear_39_1818" x1="58.5009" y1="183.749" x2="66.9227" y2="210.083" gradientUnits="userSpaceOnUse">
<stop stop-color="#FE1D00"/>
<stop offset="1" stop-color="#FE1D00" stop-opacity="0"/>
</linearGradient>
<linearGradient id="paint2_linear_39_1818" x1="254.766" y1="24.4303" x2="189.32" y2="128.069" gradientUnits="userSpaceOnUse">
<stop stop-color="#FE1D00"/>
<stop offset="1" stop-color="#FE1D00" stop-opacity="0"/>
</linearGradient>
<linearGradient id="paint3_linear_39_1818" x1="277.458" y1="32.9576" x2="212.012" y2="136.596" gradientUnits="userSpaceOnUse">
<stop stop-color="#FE1D00"/>
<stop offset="1" stop-color="white" stop-opacity="0"/>
</linearGradient>
<linearGradient id="paint4_linear_39_1818" x1="73.2011" y1="83.7146" x2="168.293" y2="115.917" gradientUnits="userSpaceOnUse">
<stop stop-color="#FE1D00"/>
<stop offset="1" stop-color="#FE1D00" stop-opacity="0"/>
</linearGradient>
<linearGradient id="paint5_linear_39_1818" x1="267.942" y1="141.131" x2="221.672" y2="222.435" gradientUnits="userSpaceOnUse">
<stop stop-color="#FE1D00"/>
<stop offset="1" stop-color="#FE1D00" stop-opacity="0"/>
</linearGradient>
<linearGradient id="paint6_linear_39_1818" x1="232.54" y1="153.721" x2="217.99" y2="210.306" gradientUnits="userSpaceOnUse">
<stop stop-color="#FE1D00"/>
<stop offset="1" stop-color="#FE1D00" stop-opacity="0"/>
</linearGradient>
<linearGradient id="paint7_linear_39_1818" x1="224.341" y1="97.2387" x2="214.707" y2="144.963" gradientUnits="userSpaceOnUse">
<stop stop-color="#FE1D00"/>
<stop offset="1" stop-color="#FE1D00" stop-opacity="0"/>
</linearGradient>
<linearGradient id="paint8_linear_39_1818" x1="303.036" y1="76.9741" x2="341.885" y2="130.794" gradientUnits="userSpaceOnUse">
<stop stop-color="#FE1D00"/>
<stop offset="1" stop-color="#FE1D00" stop-opacity="0"/>
</linearGradient>
<linearGradient id="paint9_linear_39_1818" x1="307.6" y1="144.454" x2="320.78" y2="162.858" gradientUnits="userSpaceOnUse">
<stop stop-color="#FE1D00"/>
<stop offset="1" stop-color="#FF0000"/>
</linearGradient>
<linearGradient id="paint10_linear_39_1818" x1="218.523" y1="102.417" x2="224.886" y2="122.314" gradientUnits="userSpaceOnUse">
<stop stop-color="#FE1D00"/>
<stop offset="1" stop-color="#FE1D00" stop-opacity="0"/>
</linearGradient>
<linearGradient id="paint11_linear_39_1818" x1="49.0893" y1="200.199" x2="55.4531" y2="220.097" gradientUnits="userSpaceOnUse">
<stop stop-color="#FE1D00"/>
<stop offset="1" stop-color="#FE1D00" stop-opacity="0"/>
</linearGradient>
<linearGradient id="paint12_linear_39_1818" x1="197.377" y1="79.8187" x2="147.926" y2="158.125" gradientUnits="userSpaceOnUse">
<stop stop-color="#FE1D00"/>
<stop offset="1" stop-color="#FE1D00" stop-opacity="0"/>
</linearGradient>
<linearGradient id="paint13_linear_39_1818" x1="214.522" y1="86.2618" x2="165.071" y2="164.568" gradientUnits="userSpaceOnUse">
<stop stop-color="#FE1D00"/>
<stop offset="1" stop-color="white" stop-opacity="0"/>
</linearGradient>
<linearGradient id="paint14_linear_39_1818" x1="60.196" y1="124.614" x2="132.044" y2="148.943" gradientUnits="userSpaceOnUse">
<stop stop-color="#FE1D00"/>
<stop offset="1" stop-color="#FE1D00" stop-opacity="0"/>
</linearGradient>
<linearGradient id="paint15_linear_39_1818" x1="207.332" y1="167.997" x2="172.37" y2="229.428" gradientUnits="userSpaceOnUse">
<stop stop-color="#FE1D00"/>
<stop offset="1" stop-color="#FE1D00" stop-opacity="0"/>
</linearGradient>
<linearGradient id="paint16_linear_39_1818" x1="180.584" y1="177.51" x2="169.59" y2="220.265" gradientUnits="userSpaceOnUse">
<stop stop-color="#FE1D00"/>
<stop offset="1" stop-color="#FE1D00" stop-opacity="0"/>
</linearGradient>
<linearGradient id="paint17_linear_39_1818" x1="174.389" y1="134.832" x2="167.11" y2="170.892" gradientUnits="userSpaceOnUse">
<stop stop-color="#FE1D00"/>
<stop offset="1" stop-color="#FE1D00" stop-opacity="0"/>
</linearGradient>
<linearGradient id="paint18_linear_39_1818" x1="233.848" y1="119.52" x2="263.202" y2="160.185" gradientUnits="userSpaceOnUse">
<stop stop-color="#FE1D00"/>
<stop offset="1" stop-color="#FE1D00" stop-opacity="0"/>
</linearGradient>
<linearGradient id="paint19_linear_39_1818" x1="237.295" y1="170.508" x2="247.255" y2="184.413" gradientUnits="userSpaceOnUse">
<stop stop-color="#FE1D00"/>
<stop offset="1" stop-color="#FF0000"/>
</linearGradient>
</defs>
</svg>
