<svg width="100" height="108" viewBox="0 0 100 108" fill="none" xmlns="http://www.w3.org/2000/svg">
<path d="M99.7609 74.1785C95.2311 85.6134 86.9941 95.0759 76.4536 100.954C65.913 106.831 53.721 108.761 41.9548 106.413C30.1887 104.065 19.5765 97.5853 11.9265 88.0778C4.27639 78.5702 0.0617461 66.6231 0.000672628 54.2721C-0.0604008 41.9211 4.03587 29.9303 11.5915 20.3429C19.1472 10.7555 29.6947 4.16463 41.437 1.69333C53.1793 -0.777973 65.3898 1.02319 75.9879 6.78992C86.5861 12.5566 94.9162 21.9321 99.5589 33.3189L100 34.6137C96.2125 25.3245 80.1785 20.1909 71.5326 15.4865C62.8868 10.782 52.9256 9.31265 43.3463 11.3287C33.7671 13.3448 25.1625 18.7215 18.9986 26.5428C12.8348 34.3642 18.9488 44.1962 18.9986 54.2721C19.0485 64.348 13.031 74.0442 19.2719 81.8004C25.5127 89.5565 34.1701 94.8426 43.7688 96.758C53.3674 98.6733 63.3136 97.0994 71.9125 92.3044C80.5114 87.5094 96.0655 83.507 99.7609 74.1785Z" fill="url(#paint0_linear_39_2059)"/>
<defs>
<linearGradient id="paint0_linear_39_2059" x1="113.5" y1="66.1138" x2="-12.13" y2="45.9228" gradientUnits="userSpaceOnUse">
<stop stop-color="#FFE5E1"/>
<stop offset="0.369633" stop-color="#79403D"/>
<stop offset="1" stop-color="#5F211D"/>
</linearGradient>
</defs>
</svg>
