<svg width="25" height="25" viewBox="0 0 25 25" fill="none" xmlns="http://www.w3.org/2000/svg">
<path d="M22.1751 15.1649L20.6399 13.8524C20.7126 13.4071 20.7501 12.9524 20.7501 12.4978C20.7501 12.0431 20.7126 11.5884 20.6399 11.1431L22.1751 9.83056C22.2908 9.73144 22.3737 9.59941 22.4127 9.45205C22.4516 9.30468 22.4447 9.14895 22.393 9.00557L22.3719 8.94463C21.9493 7.76344 21.3165 6.66846 20.504 5.7126L20.4618 5.66338C20.3632 5.54748 20.2318 5.46417 20.085 5.42443C19.9381 5.38468 19.7827 5.39036 19.6391 5.44072L17.7336 6.11807C17.0305 5.5415 16.2454 5.08682 15.3969 4.76807L15.029 2.77588C15.0012 2.62598 14.9285 2.48807 14.8205 2.38048C14.7125 2.27289 14.5743 2.20071 14.4243 2.17354L14.361 2.16182C13.1399 1.9415 11.8555 1.9415 10.6344 2.16182L10.5711 2.17354C10.4211 2.20071 10.283 2.27289 10.1749 2.38048C10.0669 2.48807 9.99422 2.62598 9.96646 2.77588L9.59615 4.77744C8.75448 5.09626 7.97068 5.5507 7.27584 6.12275L5.3563 5.44072C5.21279 5.38996 5.05722 5.38408 4.91028 5.42385C4.76333 5.46362 4.63197 5.54716 4.53365 5.66338L4.49146 5.7126C3.67993 6.66914 3.04718 7.76393 2.62349 8.94463L2.6024 9.00557C2.49693 9.29853 2.58365 9.62666 2.82037 9.83056L4.37427 11.1571C4.30162 11.5978 4.26646 12.0478 4.26646 12.4954C4.26646 12.9454 4.30162 13.3954 4.37427 13.8337L2.82037 15.1603C2.70457 15.2594 2.6217 15.3914 2.58277 15.5388C2.54383 15.6861 2.55068 15.8419 2.6024 15.9853L2.62349 16.0462C3.04771 17.2274 3.67584 18.3173 4.49146 19.2782L4.53365 19.3274C4.63221 19.4433 4.76358 19.5266 4.91043 19.5664C5.05729 19.6061 5.21274 19.6005 5.3563 19.5501L7.27584 18.8681C7.97427 19.4423 8.75474 19.897 9.59615 20.2134L9.96646 22.2149C9.99422 22.3648 10.0669 22.5027 10.1749 22.6103C10.283 22.7179 10.4211 22.7901 10.5711 22.8173L10.6344 22.829C11.8667 23.0505 13.1287 23.0505 14.361 22.829L14.4243 22.8173C14.5743 22.7901 14.7125 22.7179 14.8205 22.6103C14.9285 22.5027 15.0012 22.3648 15.029 22.2149L15.3969 20.2228C16.245 19.9048 17.0346 19.4487 17.7336 18.8728L19.6391 19.5501C19.7826 19.6009 19.9382 19.6067 20.0851 19.567C20.2321 19.5272 20.3635 19.4437 20.4618 19.3274L20.504 19.2782C21.3196 18.3149 21.9477 17.2274 22.3719 16.0462L22.393 15.9853C22.4985 15.697 22.4118 15.3688 22.1751 15.1649ZM18.9758 11.4196C19.0344 11.7735 19.0649 12.1368 19.0649 12.5001C19.0649 12.8634 19.0344 13.2267 18.9758 13.5806L18.8211 14.5204L20.5719 16.0181C20.3065 16.6295 19.9715 17.2083 19.5735 17.7431L17.3985 16.972L16.6626 17.5767C16.1024 18.036 15.479 18.397 14.804 18.6501L13.911 18.9853L13.4915 21.2587C12.8295 21.3337 12.1612 21.3337 11.4993 21.2587L11.0797 18.9806L10.1938 18.6407C9.52584 18.3876 8.90474 18.0267 8.34927 17.5696L7.61334 16.9626L5.42427 17.7407C5.02584 17.204 4.69302 16.6251 4.42584 16.0157L6.19537 14.504L6.04302 13.5665C5.98677 13.2173 5.9563 12.8563 5.9563 12.5001C5.9563 12.1415 5.98443 11.7829 6.04302 11.4337L6.19537 10.4962L4.42584 8.98447C4.69068 8.37275 5.02584 7.79619 5.42427 7.25947L7.61334 8.0376L8.34927 7.43057C8.90474 6.97353 9.52584 6.6126 10.1938 6.35947L11.0821 6.02432L11.5016 3.74619C12.1602 3.67119 12.8329 3.67119 13.4938 3.74619L13.9133 6.01963L14.8063 6.35478C15.479 6.60791 16.1047 6.96885 16.6649 7.42822L17.4008 8.03291L19.5758 7.26182C19.9743 7.79853 20.3071 8.37744 20.5743 8.98682L18.8235 10.4845L18.9758 11.4196ZM12.5001 8.14072C10.2219 8.14072 8.37505 9.9876 8.37505 12.2657C8.37505 14.5438 10.2219 16.3907 12.5001 16.3907C14.7782 16.3907 16.6251 14.5438 16.6251 12.2657C16.6251 9.9876 14.7782 8.14072 12.5001 8.14072ZM14.3563 14.122C14.1128 14.3661 13.8235 14.5598 13.5049 14.6917C13.1864 14.8236 12.8449 14.8913 12.5001 14.8907C11.7993 14.8907 11.1407 14.6165 10.6438 14.122C10.3996 13.8785 10.206 13.5892 10.0741 13.2706C9.94216 12.952 9.87452 12.6105 9.87505 12.2657C9.87505 11.5649 10.1493 10.9063 10.6438 10.4095C11.1407 9.9126 11.7993 9.64072 12.5001 9.64072C13.2008 9.64072 13.8594 9.9126 14.3563 10.4095C14.6005 10.6529 14.7941 10.9423 14.926 11.2608C15.058 11.5794 15.1256 11.9209 15.1251 12.2657C15.1251 12.9665 14.8508 13.6251 14.3563 14.122Z" fill="white"/>
</svg>
