<svg width="904" height="95" viewBox="0 0 904 95" fill="none" xmlns="http://www.w3.org/2000/svg">
<path d="M39.88 68.82H25.84V93H0.1V1.99999H41.7C49.9333 1.99999 57.0833 3.38666 63.15 6.15999C69.2167 8.84666 73.8967 12.7467 77.19 17.86C80.4833 22.8867 82.13 28.8233 82.13 35.67C82.13 42.2567 80.57 48.02 77.45 52.96C74.4167 57.8133 70.04 61.6267 64.32 64.4L83.95 93H56.39L39.88 68.82ZM56.13 35.67C56.13 31.4233 54.7867 28.13 52.1 25.79C49.4133 23.45 45.4267 22.28 40.14 22.28H25.84V48.93H40.14C45.4267 48.93 49.4133 47.8033 52.1 45.55C54.7867 43.21 56.13 39.9167 56.13 35.67ZM146.021 79.74H113.781L108.321 93H84.2709L117.681 17.86H142.381L175.791 93H151.351L146.021 79.74ZM139.001 62.32L130.031 39.7L120.801 62.32H139.001ZM248.166 74.15V93H178.226V77.79L213.846 36.84H179.266V17.86H246.346V33.07L210.596 74.15H248.166ZM296.787 94.69C288.641 94.69 281.274 93 274.687 89.62C268.187 86.24 263.074 81.56 259.347 75.58C255.621 69.6 253.757 62.8833 253.757 55.43C253.757 47.9767 255.621 41.26 259.347 35.28C263.074 29.3 268.187 24.62 274.687 21.24C281.274 17.86 288.641 16.17 296.787 16.17C304.934 16.17 312.257 17.86 318.757 21.24C325.344 24.62 330.501 29.3 334.227 35.28C337.954 41.26 339.817 47.9767 339.817 55.43C339.817 62.8833 337.954 69.6 334.227 75.58C330.501 81.56 325.344 86.24 318.757 89.62C312.257 93 304.934 94.69 296.787 94.69ZM296.787 74.67C301.901 74.67 306.104 72.8933 309.397 69.34C312.777 65.7 314.467 61.0633 314.467 55.43C314.467 49.7967 312.777 45.2033 309.397 41.65C306.104 38.01 301.901 36.19 296.787 36.19C291.587 36.19 287.297 38.01 283.917 41.65C280.624 45.2033 278.977 49.7967 278.977 55.43C278.977 61.0633 280.624 65.7 283.917 69.34C287.297 72.8933 291.587 74.67 296.787 74.67ZM384.759 74.02H377.089V93H351.999V17.86H388.399C395.419 17.86 401.529 19.03 406.729 21.37C412.016 23.6233 416.046 26.8733 418.819 31.12C421.679 35.3667 423.109 40.35 423.109 46.07C423.109 51.4433 421.852 56.1667 419.339 60.24C416.825 64.3133 413.229 67.52 408.549 69.86L424.799 93H397.889L384.759 74.02ZM398.019 46.07C398.019 43.1233 397.022 40.8267 395.029 39.18C393.122 37.5333 390.305 36.71 386.579 36.71H377.089V55.56H386.579C390.305 55.56 393.122 54.7367 395.029 53.09C397.022 51.3567 398.019 49.0167 398.019 46.07ZM507.266 94.82C499.899 94.82 492.749 93.91 485.816 92.09C478.882 90.27 473.249 87.8433 468.916 84.81L477.366 65.83C481.439 68.5167 486.162 70.6833 491.536 72.33C496.909 73.9767 502.196 74.8 507.396 74.8C517.276 74.8 522.216 72.33 522.216 67.39C522.216 64.79 520.786 62.8833 517.926 61.67C515.152 60.37 510.646 59.0267 504.406 57.64C497.559 56.1667 491.839 54.6067 487.246 52.96C482.652 51.2267 478.709 48.4967 475.416 44.77C472.122 41.0433 470.476 36.0167 470.476 29.69C470.476 24.1433 471.992 19.16 475.026 14.74C478.059 10.2333 482.566 6.68 488.546 4.08C494.612 1.48 502.022 0.179994 510.776 0.179994C516.756 0.179994 522.649 0.873329 528.456 2.26C534.262 3.56 539.376 5.51 543.796 8.10999L535.866 27.22C527.199 22.54 518.792 20.2 510.646 20.2C505.532 20.2 501.806 20.98 499.466 22.54C497.126 24.0133 495.956 25.9633 495.956 28.39C495.956 30.8167 497.342 32.6367 500.116 33.85C502.889 35.0633 507.352 36.32 513.506 37.62C520.439 39.0933 526.159 40.6967 530.666 42.43C535.259 44.0767 539.202 46.7633 542.496 50.49C545.876 54.13 547.566 59.1133 547.566 65.44C547.566 70.9 546.049 75.84 543.016 80.26C539.982 84.68 535.432 88.2333 529.366 90.92C523.299 93.52 515.932 94.82 507.266 94.82ZM558.805 17.86H583.895V44.9H608.725V17.86H633.815V93H608.725V64.92H583.895V93H558.805V17.86ZM702.33 79.74H670.09L664.63 93H640.58L673.99 17.86H698.69L732.1 93H707.66L702.33 79.74ZM695.31 62.32L686.34 39.7L677.11 62.32H695.31ZM771.585 74.02H763.915V93H738.825V17.86H775.225C782.245 17.86 788.355 19.03 793.555 21.37C798.842 23.6233 802.872 26.8733 805.645 31.12C808.505 35.3667 809.935 40.35 809.935 46.07C809.935 51.4433 808.678 56.1667 806.165 60.24C803.652 64.3133 800.055 67.52 795.375 69.86L811.625 93H784.715L771.585 74.02ZM784.845 46.07C784.845 43.1233 783.848 40.8267 781.855 39.18C779.948 37.5333 777.132 36.71 773.405 36.71H763.915V55.56H773.405C777.132 55.56 779.948 54.7367 781.855 53.09C783.848 51.3567 784.845 49.0167 784.845 46.07ZM854.31 67.65L848.33 74.15V93H823.63V17.86H848.33V45.68L874.07 17.86H901.5L870.82 51.14L903.06 93H873.94L854.31 67.65Z" fill="url(#paint0_linear_27_192)"/>
<defs>
<linearGradient id="paint0_linear_27_192" x1="487" y1="21.8924" x2="487" y2="133.538" gradientUnits="userSpaceOnUse">
<stop stop-color="#781306"/>
<stop offset="0.111828" stop-color="#9A1706"/>
<stop offset="0.184789" stop-color="#E39D94"/>
<stop offset="0.234051" stop-color="#FFC7C0" stop-opacity="0.942501"/>
<stop offset="0.297106" stop-color="#DB796D"/>
<stop offset="0.345311" stop-color="#ED5240"/>
<stop offset="0.424208" stop-color="#BF4031"/>
<stop offset="0.499127" stop-color="#872A1F"/>
<stop offset="0.548856" stop-color="#540E06"/>
</linearGradient>
</defs>
</svg>
