<svg width="1223" height="482" viewBox="0 0 1223 482" fill="none" xmlns="http://www.w3.org/2000/svg">
<path d="M941.768 35.432C939.776 35.432 937.844 35.168 935.972 34.64C934.124 34.088 932.636 33.38 931.508 32.516L933.488 28.124C934.568 28.916 935.852 29.552 937.34 30.032C938.828 30.512 940.316 30.752 941.804 30.752C943.46 30.752 944.684 30.512 945.476 30.032C946.268 29.528 946.664 28.868 946.664 28.052C946.664 27.452 946.424 26.96 945.944 26.576C945.488 26.168 944.888 25.844 944.144 25.604C943.424 25.364 942.44 25.1 941.192 24.812C939.272 24.356 937.7 23.9 936.476 23.444C935.252 22.988 934.196 22.256 933.308 21.248C932.444 20.24 932.012 18.896 932.012 17.216C932.012 15.752 932.408 14.432 933.2 13.256C933.992 12.056 935.18 11.108 936.764 10.412C938.372 9.716 940.328 9.368 942.632 9.368C944.24 9.368 945.812 9.56 947.348 9.944C948.884 10.328 950.228 10.88 951.38 11.6L949.58 16.028C947.252 14.708 944.924 14.048 942.596 14.048C940.964 14.048 939.752 14.312 938.96 14.84C938.192 15.368 937.808 16.064 937.808 16.928C937.808 17.792 938.252 18.44 939.14 18.872C940.052 19.28 941.432 19.688 943.28 20.096C945.2 20.552 946.772 21.008 947.996 21.464C949.22 21.92 950.264 22.64 951.128 23.624C952.016 24.608 952.46 25.94 952.46 27.62C952.46 29.06 952.052 30.38 951.236 31.58C950.444 32.756 949.244 33.692 947.636 34.388C946.028 35.084 944.072 35.432 941.768 35.432ZM975.957 30.32V35H956.445V9.8H975.489V14.48H962.241V19.952H973.941V24.488H962.241V30.32H975.957ZM980.597 9.8H986.429V30.248H999.065V35H980.597V9.8ZM1002.32 9.8H1008.16V30.248H1020.79V35H1002.32V9.8ZM1024.05 9.8H1029.88V35H1024.05V9.8ZM1058.98 9.8V35H1054.19L1041.62 19.7V35H1035.86V9.8H1040.69L1053.21 25.1V9.8H1058.98ZM1081.97 22.004H1087.29V32.228C1085.93 33.26 1084.34 34.052 1082.54 34.604C1080.74 35.156 1078.93 35.432 1077.11 35.432C1074.49 35.432 1072.14 34.88 1070.05 33.776C1067.96 32.648 1066.32 31.1 1065.12 29.132C1063.94 27.14 1063.35 24.896 1063.35 22.4C1063.35 19.904 1063.94 17.672 1065.12 15.704C1066.32 13.712 1067.97 12.164 1070.09 11.06C1072.2 9.932 1074.57 9.368 1077.21 9.368C1079.42 9.368 1081.43 9.74 1083.23 10.484C1085.03 11.228 1086.54 12.308 1087.76 13.724L1084.02 17.18C1082.22 15.284 1080.05 14.336 1077.5 14.336C1075.89 14.336 1074.47 14.672 1073.22 15.344C1071.97 16.016 1071 16.964 1070.3 18.188C1069.61 19.412 1069.26 20.816 1069.26 22.4C1069.26 23.96 1069.61 25.352 1070.3 26.576C1071 27.8 1071.96 28.76 1073.18 29.456C1074.43 30.128 1075.85 30.464 1077.43 30.464C1079.11 30.464 1080.62 30.104 1081.97 29.384V22.004ZM1108.13 14.552H1100.06V9.8H1122.02V14.552H1113.96V35H1108.13V14.552ZM1140.49 29.6H1128.79L1126.56 35H1120.58L1131.81 9.8H1137.57L1148.84 35H1142.72L1140.49 29.6ZM1138.65 25.172L1134.66 15.524L1130.66 25.172H1138.65ZM1166.03 35L1159.95 26.252L1153.97 35H1147.28L1156.6 22.184L1147.74 9.8H1154.37L1160.16 17.972L1165.85 9.8H1172.15L1163.37 21.968L1172.76 35H1166.03ZM1194.56 30.32V35H1175.05V9.8H1194.09V14.48H1180.84V19.952H1192.54V24.488H1180.84V30.32H1194.56ZM1207.48 35.432C1205.49 35.432 1203.55 35.168 1201.68 34.64C1199.83 34.088 1198.35 33.38 1197.22 32.516L1199.2 28.124C1200.28 28.916 1201.56 29.552 1203.05 30.032C1204.54 30.512 1206.03 30.752 1207.51 30.752C1209.17 30.752 1210.39 30.512 1211.19 30.032C1211.98 29.528 1212.37 28.868 1212.37 28.052C1212.37 27.452 1212.13 26.96 1211.65 26.576C1211.2 26.168 1210.6 25.844 1209.85 25.604C1209.13 25.364 1208.15 25.1 1206.9 24.812C1204.98 24.356 1203.41 23.9 1202.19 23.444C1200.96 22.988 1199.91 22.256 1199.02 21.248C1198.15 20.24 1197.72 18.896 1197.72 17.216C1197.72 15.752 1198.12 14.432 1198.91 13.256C1199.7 12.056 1200.89 11.108 1202.47 10.412C1204.08 9.716 1206.04 9.368 1208.34 9.368C1209.95 9.368 1211.52 9.56 1213.06 9.944C1214.59 10.328 1215.94 10.88 1217.09 11.6L1215.29 16.028C1212.96 14.708 1210.63 14.048 1208.31 14.048C1206.67 14.048 1205.46 14.312 1204.67 14.84C1203.9 15.368 1203.52 16.064 1203.52 16.928C1203.52 17.792 1203.96 18.44 1204.85 18.872C1205.76 19.28 1207.14 19.688 1208.99 20.096C1210.91 20.552 1212.48 21.008 1213.71 21.464C1214.93 21.92 1215.97 22.64 1216.84 23.624C1217.73 24.608 1218.17 25.94 1218.17 27.62C1218.17 29.06 1217.76 30.38 1216.95 31.58C1216.15 32.756 1214.95 33.692 1213.35 34.388C1211.74 35.084 1209.78 35.432 1207.48 35.432Z" fill="white"/>
<g filter="url(#filter0_d_39_1878)">
<path d="M700.5 174L813.106 142H902.5" stroke="url(#paint0_linear_39_1878)" stroke-width="7" stroke-linecap="round"/>
</g>
<g clip-path="url(#clip0_39_1878)">
<g filter="url(#filter1_d_39_1878)">
<path d="M969 104.438C947.981 104.438 930.938 121.481 930.938 142.5C930.938 163.519 947.981 180.562 969 180.562C990.019 180.562 1007.06 163.519 1007.06 142.5C1007.06 121.481 990.019 104.438 969 104.438ZM970.895 160.954L970.912 163.647C970.912 164.021 970.606 164.335 970.232 164.335H967.819C967.445 164.335 967.139 164.029 967.139 163.655V160.987C959.595 160.427 956.043 156.128 955.661 151.455C955.627 151.056 955.942 150.716 956.341 150.716H960.266C960.597 150.716 960.886 150.954 960.937 151.276C961.371 153.97 963.469 155.983 967.233 156.485V144.361L965.134 143.825C960.691 142.763 956.46 139.994 956.46 134.25C956.46 128.057 961.167 124.726 967.182 124.14V121.336C967.182 120.962 967.488 120.657 967.862 120.657H970.249C970.623 120.657 970.929 120.962 970.929 121.336V124.114C976.748 124.701 981.115 128.099 981.625 133.392C981.668 133.792 981.353 134.14 980.946 134.14H977.131C976.791 134.14 976.502 133.885 976.46 133.554C976.12 131.073 974.132 129.051 970.895 128.609V140.019L973.053 140.52C978.558 141.88 982.305 144.514 982.305 150.41C982.305 156.807 977.547 160.376 970.895 160.954ZM961.744 133.859C961.744 136.017 963.078 137.691 965.95 138.728C966.349 138.889 966.749 139.017 967.224 139.153V128.617C964.089 129.017 961.744 130.775 961.744 133.859ZM971.642 145.346C971.404 145.295 971.167 145.236 970.895 145.159V156.519C974.514 156.196 977.012 154.208 977.012 150.877C977.012 148.269 975.661 146.57 971.642 145.346Z" fill="url(#paint1_linear_39_1878)"/>
</g>
</g>
<path d="M1046.15 125.752C1047.4 126.376 1048.34 127.192 1048.99 128.2C1049.66 129.208 1050 130.372 1050 131.692C1050 133.252 1049.56 134.62 1048.67 135.796C1047.78 136.948 1046.53 137.848 1044.92 138.496C1043.32 139.12 1041.46 139.432 1039.34 139.432C1037.23 139.432 1035.37 139.12 1033.76 138.496C1032.18 137.848 1030.94 136.948 1030.06 135.796C1029.19 134.62 1028.76 133.252 1028.76 131.692C1028.76 130.372 1029.08 129.208 1029.73 128.2C1030.4 127.192 1031.35 126.376 1032.58 125.752C1031.64 125.176 1030.92 124.456 1030.42 123.592C1029.91 122.704 1029.66 121.696 1029.66 120.568C1029.66 119.104 1030.07 117.832 1030.88 116.752C1031.7 115.672 1032.84 114.844 1034.3 114.268C1035.77 113.668 1037.45 113.368 1039.34 113.368C1041.26 113.368 1042.96 113.668 1044.42 114.268C1045.91 114.844 1047.06 115.672 1047.88 116.752C1048.69 117.832 1049.1 119.104 1049.1 120.568C1049.1 121.696 1048.85 122.704 1048.34 123.592C1047.84 124.456 1047.11 125.176 1046.15 125.752ZM1039.34 117.652C1038.17 117.652 1037.22 117.94 1036.5 118.516C1035.8 119.068 1035.46 119.836 1035.46 120.82C1035.46 121.78 1035.8 122.536 1036.5 123.088C1037.2 123.64 1038.14 123.916 1039.34 123.916C1040.54 123.916 1041.5 123.64 1042.22 123.088C1042.94 122.536 1043.3 121.78 1043.3 120.82C1043.3 119.836 1042.94 119.068 1042.22 118.516C1041.5 117.94 1040.54 117.652 1039.34 117.652ZM1039.34 135.148C1040.81 135.148 1041.96 134.824 1042.8 134.176C1043.66 133.504 1044.1 132.616 1044.1 131.512C1044.1 130.408 1043.66 129.532 1042.8 128.884C1041.96 128.236 1040.81 127.912 1039.34 127.912C1037.9 127.912 1036.76 128.236 1035.92 128.884C1035.08 129.532 1034.66 130.408 1034.66 131.512C1034.66 132.64 1035.08 133.528 1035.92 134.176C1036.76 134.824 1037.9 135.148 1039.34 135.148ZM1058.15 127.408C1056.3 127.408 1054.79 126.784 1053.61 125.536C1052.46 124.264 1051.89 122.572 1051.89 120.46C1051.89 118.348 1052.46 116.668 1053.61 115.42C1054.79 114.148 1056.3 113.512 1058.15 113.512C1060 113.512 1061.5 114.148 1062.65 115.42C1063.8 116.668 1064.38 118.348 1064.38 120.46C1064.38 122.572 1063.8 124.264 1062.65 125.536C1061.5 126.784 1060 127.408 1058.15 127.408ZM1073.16 113.8H1077.45L1060.24 139H1055.95L1073.16 113.8ZM1058.15 124.456C1058.97 124.456 1059.6 124.12 1060.06 123.448C1060.54 122.776 1060.78 121.78 1060.78 120.46C1060.78 119.14 1060.54 118.144 1060.06 117.472C1059.6 116.8 1058.97 116.464 1058.15 116.464C1057.36 116.464 1056.72 116.812 1056.24 117.508C1055.76 118.18 1055.52 119.164 1055.52 120.46C1055.52 121.756 1055.76 122.752 1056.24 123.448C1056.72 124.12 1057.36 124.456 1058.15 124.456ZM1075.25 139.288C1074.05 139.288 1072.97 139.012 1072.01 138.46C1071.07 137.884 1070.34 137.068 1069.81 136.012C1069.29 134.956 1069.02 133.732 1069.02 132.34C1069.02 130.948 1069.29 129.724 1069.81 128.668C1070.34 127.612 1071.07 126.808 1072.01 126.256C1072.97 125.68 1074.05 125.392 1075.25 125.392C1077.1 125.392 1078.6 126.028 1079.75 127.3C1080.93 128.548 1081.51 130.228 1081.51 132.34C1081.51 134.452 1080.93 136.144 1079.75 137.416C1078.6 138.664 1077.1 139.288 1075.25 139.288ZM1075.25 136.336C1076.07 136.336 1076.7 136 1077.16 135.328C1077.64 134.632 1077.88 133.636 1077.88 132.34C1077.88 131.044 1077.64 130.06 1077.16 129.388C1076.7 128.692 1076.07 128.344 1075.25 128.344C1074.46 128.344 1073.82 128.68 1073.34 129.352C1072.86 130.024 1072.62 131.02 1072.62 132.34C1072.62 133.66 1072.86 134.656 1073.34 135.328C1073.82 136 1074.46 136.336 1075.25 136.336Z" fill="white"/>
<path d="M1029.49 158.2H1033.38V171.832H1041.8V175H1029.49V158.2ZM1043.98 158.2H1047.86V175H1043.98V158.2ZM1070.02 176.8C1069.48 177.472 1068.81 177.984 1068.03 178.336C1067.26 178.688 1066.41 178.864 1065.48 178.864C1064.24 178.864 1063.11 178.592 1062.1 178.048C1061.09 177.52 1059.94 176.576 1058.64 175.216C1057.12 175.024 1055.76 174.536 1054.56 173.752C1053.38 172.968 1052.45 171.96 1051.78 170.728C1051.12 169.48 1050.8 168.104 1050.8 166.6C1050.8 164.952 1051.19 163.472 1051.97 162.16C1052.77 160.832 1053.87 159.792 1055.26 159.04C1056.67 158.288 1058.24 157.912 1059.99 157.912C1061.73 157.912 1063.3 158.288 1064.69 159.04C1066.08 159.792 1067.18 160.832 1067.98 162.16C1068.78 163.472 1069.18 164.952 1069.18 166.6C1069.18 168.552 1068.63 170.264 1067.52 171.736C1066.44 173.208 1064.99 174.232 1063.18 174.808C1063.58 175.224 1063.96 175.52 1064.33 175.696C1064.72 175.888 1065.12 175.984 1065.56 175.984C1066.6 175.984 1067.51 175.568 1068.29 174.736L1070.02 176.8ZM1054.73 166.6C1054.73 167.64 1054.96 168.568 1055.4 169.384C1055.87 170.2 1056.5 170.84 1057.3 171.304C1058.1 171.752 1059 171.976 1059.99 171.976C1060.98 171.976 1061.88 171.752 1062.68 171.304C1063.48 170.84 1064.1 170.2 1064.55 169.384C1065.01 168.568 1065.24 167.64 1065.24 166.6C1065.24 165.56 1065.01 164.632 1064.55 163.816C1064.1 163 1063.48 162.368 1062.68 161.92C1061.88 161.456 1060.98 161.224 1059.99 161.224C1059 161.224 1058.1 161.456 1057.3 161.92C1056.5 162.368 1055.87 163 1055.4 163.816C1054.96 164.632 1054.73 165.56 1054.73 166.6ZM1079.57 175.288C1077.17 175.288 1075.29 174.624 1073.95 173.296C1072.62 171.968 1071.96 170.072 1071.96 167.608V158.2H1075.85V167.464C1075.85 170.472 1077.09 171.976 1079.59 171.976C1080.81 171.976 1081.73 171.616 1082.37 170.896C1083.01 170.16 1083.33 169.016 1083.33 167.464V158.2H1087.17V167.608C1087.17 170.072 1086.5 171.968 1085.16 173.296C1083.83 174.624 1081.97 175.288 1079.57 175.288ZM1091.02 158.2H1094.9V175H1091.02V158.2ZM1098.89 158.2H1106.52C1108.35 158.2 1109.95 158.552 1111.35 159.256C1112.75 159.944 1113.84 160.92 1114.61 162.184C1115.39 163.448 1115.79 164.92 1115.79 166.6C1115.79 168.28 1115.39 169.752 1114.61 171.016C1113.84 172.28 1112.75 173.264 1111.35 173.968C1109.95 174.656 1108.35 175 1106.52 175H1098.89V158.2ZM1106.33 171.808C1108.01 171.808 1109.35 171.344 1110.34 170.416C1111.35 169.472 1111.85 168.2 1111.85 166.6C1111.85 165 1111.35 163.736 1110.34 162.808C1109.35 161.864 1108.01 161.392 1106.33 161.392H1102.78V171.808H1106.33ZM1118.72 158.2H1122.61V175H1118.72V158.2ZM1130.07 161.368H1124.7V158.2H1139.34V161.368H1133.96V175H1130.07V161.368ZM1149.19 169.048V175H1145.3V169L1138.8 158.2H1142.92L1147.41 165.664L1151.9 158.2H1155.72L1149.19 169.048Z" fill="white"/>
<g filter="url(#filter2_d_39_1878)">
<path d="M729.5 386L815.5 421.5H905" stroke="url(#paint2_linear_39_1878)" stroke-width="7" stroke-linecap="round"/>
</g>
<circle cx="969" cy="420" r="39" fill="url(#paint3_linear_39_1878)"/>
<path d="M980.521 402.75C982.173 402.75 983.757 403.406 984.926 404.574C986.094 405.743 986.75 407.327 986.75 408.979V418.083C986.004 417.089 985.013 416.305 983.875 415.806V413.292H955.125V431.021C955.125 432.872 956.628 434.375 958.479 434.375H969.557C969.672 435.375 969.973 436.345 970.435 437.25H958.479C956.827 437.25 955.243 436.594 954.074 435.426C952.906 434.257 952.25 432.673 952.25 431.021V408.979C952.25 407.327 952.906 405.743 954.074 404.574C955.243 403.406 956.827 402.75 958.479 402.75H980.521ZM980.521 405.625H958.479C957.59 405.625 956.736 405.978 956.107 406.607C955.478 407.236 955.125 408.09 955.125 408.979V410.417H983.875V408.979C983.875 408.09 983.522 407.236 982.893 406.607C982.264 405.978 981.41 405.625 980.521 405.625Z" fill="black"/>
<path d="M990.583 432.458C990.583 431.696 990.281 430.964 989.741 430.425C989.202 429.886 988.471 429.583 987.708 429.583H974.292C973.529 429.583 972.798 429.886 972.259 430.425C971.72 430.964 971.417 431.696 971.417 432.458V433.417C971.417 437.194 974.982 441.083 981 441.083C987.018 441.083 990.583 437.194 990.583 433.417V432.458Z" fill="black"/>
<path d="M986.271 422.396C986.271 420.998 985.716 419.657 984.727 418.669C983.739 417.68 982.398 417.125 981 417.125C979.602 417.125 978.262 417.68 977.273 418.669C976.285 419.657 975.729 420.998 975.729 422.396C975.729 423.794 976.285 425.134 977.273 426.123C978.262 427.111 979.602 427.667 981 427.667C982.398 427.667 983.739 427.111 984.727 426.123C985.716 425.134 986.271 423.794 986.271 422.396Z" fill="black"/>
<path d="M1041.18 401.06C1043.38 401.42 1045.08 402.248 1046.25 403.544C1047.43 404.816 1048.02 406.4 1048.02 408.296C1048.02 409.76 1047.63 411.116 1046.86 412.364C1046.1 413.588 1044.92 414.572 1043.34 415.316C1041.78 416.06 1039.86 416.432 1037.58 416.432C1035.8 416.432 1034.05 416.204 1032.32 415.748C1030.62 415.268 1029.16 414.596 1027.96 413.732L1030.23 409.268C1031.19 409.988 1032.3 410.552 1033.54 410.96C1034.82 411.344 1036.11 411.536 1037.43 411.536C1038.9 411.536 1040.05 411.26 1040.89 410.708C1041.73 410.132 1042.15 409.328 1042.15 408.296C1042.15 406.232 1040.58 405.2 1037.43 405.2H1034.77V401.348L1039.95 395.48H1029.22V390.8H1046.86V394.58L1041.18 401.06ZM1056.19 404.408C1054.34 404.408 1052.83 403.784 1051.65 402.536C1050.5 401.264 1049.93 399.572 1049.93 397.46C1049.93 395.348 1050.5 393.668 1051.65 392.42C1052.83 391.148 1054.34 390.512 1056.19 390.512C1058.04 390.512 1059.54 391.148 1060.69 392.42C1061.84 393.668 1062.42 395.348 1062.42 397.46C1062.42 399.572 1061.84 401.264 1060.69 402.536C1059.54 403.784 1058.04 404.408 1056.19 404.408ZM1071.2 390.8H1075.49L1058.28 416H1053.99L1071.2 390.8ZM1056.19 401.456C1057.01 401.456 1057.64 401.12 1058.1 400.448C1058.58 399.776 1058.82 398.78 1058.82 397.46C1058.82 396.14 1058.58 395.144 1058.1 394.472C1057.64 393.8 1057.01 393.464 1056.19 393.464C1055.4 393.464 1054.76 393.812 1054.28 394.508C1053.8 395.18 1053.56 396.164 1053.56 397.46C1053.56 398.756 1053.8 399.752 1054.28 400.448C1054.76 401.12 1055.4 401.456 1056.19 401.456ZM1073.29 416.288C1072.09 416.288 1071.01 416.012 1070.05 415.46C1069.11 414.884 1068.38 414.068 1067.85 413.012C1067.33 411.956 1067.06 410.732 1067.06 409.34C1067.06 407.948 1067.33 406.724 1067.85 405.668C1068.38 404.612 1069.11 403.808 1070.05 403.256C1071.01 402.68 1072.09 402.392 1073.29 402.392C1075.14 402.392 1076.64 403.028 1077.79 404.3C1078.97 405.548 1079.55 407.228 1079.55 409.34C1079.55 411.452 1078.97 413.144 1077.79 414.416C1076.64 415.664 1075.14 416.288 1073.29 416.288ZM1073.29 413.336C1074.11 413.336 1074.74 413 1075.2 412.328C1075.68 411.632 1075.92 410.636 1075.92 409.34C1075.92 408.044 1075.68 407.06 1075.2 406.388C1074.74 405.692 1074.11 405.344 1073.29 405.344C1072.5 405.344 1071.86 405.68 1071.38 406.352C1070.9 407.024 1070.66 408.02 1070.66 409.34C1070.66 410.66 1070.9 411.656 1071.38 412.328C1071.86 413 1072.5 413.336 1073.29 413.336Z" fill="white"/>
<path d="M1029.99 435.2H1037.62C1039.45 435.2 1041.06 435.552 1042.45 436.256C1043.86 436.944 1044.94 437.92 1045.71 439.184C1046.5 440.448 1046.89 441.92 1046.89 443.6C1046.89 445.28 1046.5 446.752 1045.71 448.016C1044.94 449.28 1043.86 450.264 1042.45 450.968C1041.06 451.656 1039.45 452 1037.62 452H1029.99V435.2ZM1037.43 448.808C1039.11 448.808 1040.45 448.344 1041.44 447.416C1042.45 446.472 1042.95 445.2 1042.95 443.6C1042.95 442 1042.45 440.736 1041.44 439.808C1040.45 438.864 1039.11 438.392 1037.43 438.392H1033.88V448.808H1037.43ZM1062.83 448.88V452H1049.82V435.2H1062.52V438.32H1053.68V441.968H1061.48V444.992H1053.68V448.88H1062.83ZM1081.84 435.2L1074.57 452H1070.73L1063.48 435.2H1067.68L1072.79 447.2L1077.98 435.2H1081.84ZM1096.25 448.88V452H1083.24V435.2H1095.94V438.32H1087.11V441.968H1094.91V444.992H1087.11V448.88H1096.25ZM1099.34 435.2H1103.23V448.832H1111.66V452H1099.34V435.2ZM1121.68 452.288C1119.94 452.288 1118.36 451.912 1116.95 451.16C1115.56 450.408 1114.47 449.376 1113.67 448.064C1112.88 446.736 1112.49 445.248 1112.49 443.6C1112.49 441.952 1112.88 440.472 1113.67 439.16C1114.47 437.832 1115.56 436.792 1116.95 436.04C1118.36 435.288 1119.94 434.912 1121.68 434.912C1123.43 434.912 1124.99 435.288 1126.39 436.04C1127.78 436.792 1128.87 437.832 1129.67 439.16C1130.47 440.472 1130.87 441.952 1130.87 443.6C1130.87 445.248 1130.47 446.736 1129.67 448.064C1128.87 449.376 1127.78 450.408 1126.39 451.16C1124.99 451.912 1123.43 452.288 1121.68 452.288ZM1121.68 448.976C1122.67 448.976 1123.57 448.752 1124.37 448.304C1125.17 447.84 1125.79 447.2 1126.24 446.384C1126.71 445.568 1126.94 444.64 1126.94 443.6C1126.94 442.56 1126.71 441.632 1126.24 440.816C1125.79 440 1125.17 439.368 1124.37 438.92C1123.57 438.456 1122.67 438.224 1121.68 438.224C1120.69 438.224 1119.79 438.456 1118.99 438.92C1118.19 439.368 1117.56 440 1117.1 440.816C1116.65 441.632 1116.43 442.56 1116.43 443.6C1116.43 444.64 1116.65 445.568 1117.1 446.384C1117.56 447.2 1118.19 447.84 1118.99 448.304C1119.79 448.752 1120.69 448.976 1121.68 448.976ZM1141.07 435.2C1142.56 435.2 1143.84 435.448 1144.93 435.944C1146.04 436.44 1146.88 437.144 1147.48 438.056C1148.07 438.968 1148.36 440.048 1148.36 441.296C1148.36 442.528 1148.07 443.608 1147.48 444.536C1146.88 445.448 1146.04 446.152 1144.93 446.648C1143.84 447.128 1142.56 447.368 1141.07 447.368H1137.68V452H1133.8V435.2H1141.07ZM1140.85 444.2C1142.02 444.2 1142.91 443.952 1143.52 443.456C1144.12 442.944 1144.43 442.224 1144.43 441.296C1144.43 440.352 1144.12 439.632 1143.52 439.136C1142.91 438.624 1142.02 438.368 1140.85 438.368H1137.68V444.2H1140.85ZM1166.43 452L1166.4 441.92L1161.46 450.224H1159.71L1154.79 442.136V452H1151.14V435.2H1154.36L1160.64 445.64L1166.84 435.2H1170.03L1170.08 452H1166.43ZM1187.07 448.88V452H1174.06V435.2H1186.76V438.32H1177.93V441.968H1185.73V444.992H1177.93V448.88H1187.07ZM1205.57 435.2V452H1202.38L1194 441.8V452H1190.16V435.2H1193.38L1201.73 445.4V435.2H1205.57ZM1213.03 438.368H1207.65V435.2H1222.29V438.368H1216.91V452H1213.03V438.368Z" fill="white"/>
<g filter="url(#filter3_d_39_1878)">
<path d="M765.5 282H867.974H942.5" stroke="url(#paint4_linear_39_1878)" stroke-width="7" stroke-linecap="round"/>
</g>
<circle cx="1008.5" cy="283" r="39" fill="url(#paint5_linear_39_1878)"/>
<path d="M1026.69 269.5C1026.02 269.5 1025.36 269.676 1024.76 270.014C1024.16 270.352 1023.64 270.843 1023.23 271.447C1022.83 272.051 1022.56 272.752 1022.44 273.494C1022.33 274.236 1022.36 274.999 1022.55 275.723L1015.86 283.249C1014.98 282.918 1014.02 282.918 1013.14 283.249L1008.18 277.669C1008.35 276.952 1008.36 276.203 1008.23 275.479C1008.09 274.754 1007.81 274.074 1007.41 273.49C1007.01 272.905 1006.49 272.432 1005.9 272.107C1005.31 271.782 1004.66 271.613 1004 271.613C1003.35 271.613 1002.7 271.782 1002.11 272.107C1001.52 272.432 1001 272.905 1000.6 273.49C1000.19 274.074 999.916 274.754 999.782 275.479C999.649 276.203 999.664 276.952 999.827 277.669L991.531 286.995C990.61 286.688 989.625 286.736 988.73 287.13C987.836 287.524 987.084 288.242 986.592 289.17C986.101 290.099 985.899 291.185 986.018 292.258C986.138 293.33 986.571 294.327 987.25 295.091C987.929 295.855 988.815 296.343 989.768 296.478C990.721 296.612 991.687 296.385 992.513 295.833C993.338 295.281 993.977 294.435 994.327 293.429C994.678 292.422 994.72 291.314 994.448 290.277L1002.64 281.064C1003.52 281.395 1004.48 281.395 1005.36 281.064L1010.32 286.645C1010.16 287.362 1010.14 288.111 1010.27 288.835C1010.41 289.559 1010.69 290.239 1011.09 290.824C1011.49 291.408 1012.01 291.881 1012.6 292.206C1013.19 292.532 1013.84 292.701 1014.5 292.701C1015.15 292.701 1015.8 292.532 1016.39 292.206C1016.98 291.881 1017.5 291.408 1017.9 290.824C1018.31 290.239 1018.59 289.559 1018.72 288.835C1018.85 288.111 1018.84 287.362 1018.67 286.645L1025.47 279.005C1026.06 279.202 1026.69 279.253 1027.3 279.154C1027.91 279.056 1028.5 278.811 1029.02 278.435C1029.54 278.06 1029.98 277.562 1030.32 276.977C1030.65 276.392 1030.87 275.733 1030.96 275.044C1031.05 274.356 1031 273.654 1030.83 272.986C1030.65 272.318 1030.35 271.701 1029.95 271.175C1029.54 270.649 1029.04 270.227 1028.48 269.938C1027.92 269.649 1027.31 269.5 1026.69 269.5Z" fill="black"/>
<path d="M1077.54 263.268C1081.1 263.268 1083.71 263.976 1085.39 265.392C1087.1 266.808 1087.95 268.704 1087.95 271.08C1087.95 272.616 1087.56 274.02 1086.8 275.292C1086.03 276.54 1084.85 277.548 1083.27 278.316C1081.71 279.06 1079.78 279.432 1077.47 279.432C1075.7 279.432 1073.94 279.204 1072.22 278.748C1070.51 278.268 1069.06 277.596 1067.86 276.732L1070.16 272.268C1071.12 272.988 1072.23 273.552 1073.48 273.96C1074.72 274.344 1076.01 274.536 1077.33 274.536C1078.79 274.536 1079.94 274.248 1080.78 273.672C1081.62 273.096 1082.04 272.292 1082.04 271.26C1082.04 270.18 1081.6 269.364 1080.71 268.812C1079.85 268.26 1078.34 267.984 1076.18 267.984H1069.73L1071.03 253.8H1086.4V258.48H1075.89L1075.49 263.268H1077.54ZM1095.79 267.408C1093.95 267.408 1092.43 266.784 1091.26 265.536C1090.11 264.264 1089.53 262.572 1089.53 260.46C1089.53 258.348 1090.11 256.668 1091.26 255.42C1092.43 254.148 1093.95 253.512 1095.79 253.512C1097.64 253.512 1099.14 254.148 1100.29 255.42C1101.45 256.668 1102.02 258.348 1102.02 260.46C1102.02 262.572 1101.45 264.264 1100.29 265.536C1099.14 266.784 1097.64 267.408 1095.79 267.408ZM1110.81 253.8H1115.09L1097.88 279H1093.6L1110.81 253.8ZM1095.79 264.456C1096.61 264.456 1097.25 264.12 1097.7 263.448C1098.18 262.776 1098.42 261.78 1098.42 260.46C1098.42 259.14 1098.18 258.144 1097.7 257.472C1097.25 256.8 1096.61 256.464 1095.79 256.464C1095 256.464 1094.37 256.812 1093.89 257.508C1093.41 258.18 1093.17 259.164 1093.17 260.46C1093.17 261.756 1093.41 262.752 1093.89 263.448C1094.37 264.12 1095 264.456 1095.79 264.456ZM1112.89 279.288C1111.69 279.288 1110.61 279.012 1109.65 278.46C1108.72 277.884 1107.99 277.068 1107.46 276.012C1106.93 274.956 1106.67 273.732 1106.67 272.34C1106.67 270.948 1106.93 269.724 1107.46 268.668C1107.99 267.612 1108.72 266.808 1109.65 266.256C1110.61 265.68 1111.69 265.392 1112.89 265.392C1114.74 265.392 1116.24 266.028 1117.39 267.3C1118.57 268.548 1119.16 270.228 1119.16 272.34C1119.16 274.452 1118.57 276.144 1117.39 277.416C1116.24 278.664 1114.74 279.288 1112.89 279.288ZM1112.89 276.336C1113.71 276.336 1114.35 276 1114.8 275.328C1115.28 274.632 1115.52 273.636 1115.52 272.34C1115.52 271.044 1115.28 270.06 1114.8 269.388C1114.35 268.692 1113.71 268.344 1112.89 268.344C1112.1 268.344 1111.47 268.68 1110.99 269.352C1110.51 270.024 1110.27 271.02 1110.27 272.34C1110.27 273.66 1110.51 274.656 1110.99 275.328C1111.47 276 1112.1 276.336 1112.89 276.336Z" fill="white"/>
<path d="M1084.78 315L1084.76 304.92L1079.81 313.224H1078.06L1073.14 305.136V315H1069.49V298.2H1072.71L1079 308.64L1085.19 298.2H1088.38L1088.43 315H1084.78ZM1103.48 311.4H1095.68L1094.19 315H1090.21L1097.69 298.2H1101.53L1109.05 315H1104.97L1103.48 311.4ZM1102.25 308.448L1099.59 302.016L1096.93 308.448H1102.25ZM1121.49 315L1118.25 310.32H1118.06H1114.68V315H1110.79V298.2H1118.06C1119.55 298.2 1120.84 298.448 1121.92 298.944C1123.03 299.44 1123.88 300.144 1124.47 301.056C1125.06 301.968 1125.36 303.048 1125.36 304.296C1125.36 305.544 1125.05 306.624 1124.44 307.536C1123.85 308.432 1123 309.12 1121.9 309.6L1125.67 315H1121.49ZM1121.42 304.296C1121.42 303.352 1121.12 302.632 1120.51 302.136C1119.9 301.624 1119.01 301.368 1117.84 301.368H1114.68V307.224H1117.84C1119.01 307.224 1119.9 306.968 1120.51 306.456C1121.12 305.944 1121.42 305.224 1121.42 304.296ZM1134.56 308.4L1132.3 310.752V315H1128.44V298.2H1132.3V306.048L1139.74 298.2H1144.06L1137.1 305.688L1144.47 315H1139.93L1134.56 308.4ZM1159.21 311.88V315H1146.2V298.2H1158.9V301.32H1150.07V304.968H1157.87V307.992H1150.07V311.88H1159.21ZM1165.78 301.368H1160.41V298.2H1175.05V301.368H1169.67V315H1165.78V301.368ZM1177.14 298.2H1181.03V315H1177.14V298.2ZM1200.42 298.2V315H1197.23L1188.86 304.8V315H1185.02V298.2H1188.23L1196.58 308.4V298.2H1200.42ZM1215.75 306.336H1219.3V313.152C1218.39 313.84 1217.33 314.368 1216.13 314.736C1214.93 315.104 1213.73 315.288 1212.51 315.288C1210.77 315.288 1209.2 314.92 1207.81 314.184C1206.41 313.432 1205.32 312.4 1204.52 311.088C1203.73 309.76 1203.34 308.264 1203.34 306.6C1203.34 304.936 1203.73 303.448 1204.52 302.136C1205.32 300.808 1206.42 299.776 1207.83 299.04C1209.24 298.288 1210.82 297.912 1212.58 297.912C1214.05 297.912 1215.39 298.16 1216.59 298.656C1217.79 299.152 1218.8 299.872 1219.61 300.816L1217.12 303.12C1215.92 301.856 1214.47 301.224 1212.77 301.224C1211.7 301.224 1210.75 301.448 1209.92 301.896C1209.09 302.344 1208.44 302.976 1207.97 303.792C1207.51 304.608 1207.28 305.544 1207.28 306.6C1207.28 307.64 1207.51 308.568 1207.97 309.384C1208.44 310.2 1209.08 310.84 1209.89 311.304C1210.73 311.752 1211.67 311.976 1212.73 311.976C1213.85 311.976 1214.85 311.736 1215.75 311.256V306.336Z" fill="white"/>
<path d="M37.2576 21.896C38.6976 22.352 39.8256 23.12 40.6416 24.2C41.4576 25.256 41.8656 26.564 41.8656 28.124C41.8656 30.332 41.0016 32.036 39.2736 33.236C37.5696 34.412 35.0736 35 31.7856 35H18.7536V9.8H31.0656C34.1376 9.8 36.4896 10.388 38.1216 11.564C39.7776 12.74 40.6056 14.336 40.6056 16.352C40.6056 17.576 40.3056 18.668 39.7056 19.628C39.1296 20.588 38.3136 21.344 37.2576 21.896ZM24.5496 14.192V20.132H30.3456C31.7856 20.132 32.8776 19.88 33.6216 19.376C34.3656 18.872 34.7376 18.128 34.7376 17.144C34.7376 16.16 34.3656 15.428 33.6216 14.948C32.8776 14.444 31.7856 14.192 30.3456 14.192H24.5496ZM31.3536 30.608C32.8896 30.608 34.0416 30.356 34.8096 29.852C35.6016 29.348 35.9976 28.568 35.9976 27.512C35.9976 25.424 34.4496 24.38 31.3536 24.38H24.5496V30.608H31.3536ZM57.477 35.432C53.877 35.432 51.069 34.436 49.053 32.444C47.061 30.452 46.065 27.608 46.065 23.912V9.8H51.897V23.696C51.897 28.208 53.769 30.464 57.513 30.464C59.337 30.464 60.729 29.924 61.689 28.844C62.649 27.74 63.129 26.024 63.129 23.696V9.8H68.889V23.912C68.889 27.608 67.881 30.452 65.865 32.444C63.873 34.436 61.077 35.432 57.477 35.432ZM86.3965 26.072V35H80.5645V26L70.8085 9.8H77.0005L83.7325 20.996L90.4645 9.8H96.1885L86.3965 26.072ZM98.3825 9.8H104.215V35H98.3825V9.8ZM133.307 9.8V35H128.519L115.955 19.7V35H110.195V9.8H115.019L127.547 25.1V9.8H133.307ZM156.297 22.004H161.625V32.228C160.257 33.26 158.673 34.052 156.873 34.604C155.073 35.156 153.261 35.432 151.437 35.432C148.821 35.432 146.469 34.88 144.381 33.776C142.293 32.648 140.649 31.1 139.449 29.132C138.273 27.14 137.685 24.896 137.685 22.4C137.685 19.904 138.273 17.672 139.449 15.704C140.649 13.712 142.305 12.164 144.417 11.06C146.529 9.932 148.905 9.368 151.545 9.368C153.753 9.368 155.757 9.74 157.557 10.484C159.357 11.228 160.869 12.308 162.093 13.724L158.349 17.18C156.549 15.284 154.377 14.336 151.833 14.336C150.225 14.336 148.797 14.672 147.549 15.344C146.301 16.016 145.329 16.964 144.633 18.188C143.937 19.412 143.589 20.816 143.589 22.4C143.589 23.96 143.937 25.352 144.633 26.576C145.329 27.8 146.289 28.76 147.513 29.456C148.761 30.128 150.177 30.464 151.761 30.464C153.441 30.464 154.953 30.104 156.297 29.384V22.004ZM182.458 14.552H174.394V9.8H196.354V14.552H188.29V35H182.458V14.552ZM214.822 29.6H203.122L200.89 35H194.914L206.146 9.8H211.906L223.174 35H217.054L214.822 29.6ZM212.986 25.172L208.99 15.524L204.994 25.172H212.986ZM240.364 35L234.28 26.252L228.304 35H221.608L230.932 22.184L222.076 9.8H228.7L234.496 17.972L240.184 9.8H246.484L237.7 21.968L247.096 35H240.364ZM268.891 30.32V35H249.379V9.8H268.423V14.48H255.175V19.952H266.875V24.488H255.175V30.32H268.891ZM281.811 35.432C279.819 35.432 277.887 35.168 276.015 34.64C274.167 34.088 272.679 33.38 271.551 32.516L273.531 28.124C274.611 28.916 275.895 29.552 277.383 30.032C278.871 30.512 280.359 30.752 281.847 30.752C283.503 30.752 284.727 30.512 285.519 30.032C286.311 29.528 286.707 28.868 286.707 28.052C286.707 27.452 286.467 26.96 285.987 26.576C285.531 26.168 284.931 25.844 284.187 25.604C283.467 25.364 282.483 25.1 281.235 24.812C279.315 24.356 277.743 23.9 276.519 23.444C275.295 22.988 274.239 22.256 273.351 21.248C272.487 20.24 272.055 18.896 272.055 17.216C272.055 15.752 272.451 14.432 273.243 13.256C274.035 12.056 275.223 11.108 276.807 10.412C278.415 9.716 280.371 9.368 282.675 9.368C284.283 9.368 285.855 9.56 287.391 9.944C288.927 10.328 290.271 10.88 291.423 11.6L289.623 16.028C287.295 14.708 284.967 14.048 282.639 14.048C281.007 14.048 279.795 14.312 279.003 14.84C278.235 15.368 277.851 16.064 277.851 16.928C277.851 17.792 278.295 18.44 279.183 18.872C280.095 19.28 281.475 19.688 283.323 20.096C285.243 20.552 286.815 21.008 288.039 21.464C289.263 21.92 290.307 22.64 291.171 23.624C292.059 24.608 292.503 25.94 292.503 27.62C292.503 29.06 292.095 30.38 291.279 31.58C290.487 32.756 289.287 33.692 287.679 34.388C286.071 35.084 284.115 35.432 281.811 35.432Z" fill="white"/>
<g filter="url(#filter4_d_39_1878)">
<path d="M522.5 179L409.894 147H320.5" stroke="url(#paint6_linear_39_1878)" stroke-width="7" stroke-linecap="round"/>
</g>
<path d="M254 109.438C232.981 109.438 215.938 126.481 215.938 147.5C215.938 168.519 232.981 185.562 254 185.562C275.019 185.562 292.062 168.519 292.062 147.5C292.062 126.481 275.019 109.438 254 109.438ZM255.895 165.954L255.912 168.647C255.912 169.021 255.606 169.335 255.232 169.335H252.819C252.445 169.335 252.139 169.029 252.139 168.655V165.987C244.595 165.427 241.043 161.128 240.661 156.455C240.627 156.056 240.942 155.716 241.341 155.716H245.266C245.597 155.716 245.886 155.954 245.937 156.276C246.371 158.97 248.469 160.983 252.233 161.485V149.361L250.134 148.825C245.691 147.763 241.46 144.994 241.46 139.25C241.46 133.057 246.167 129.726 252.182 129.14V126.336C252.182 125.962 252.488 125.657 252.862 125.657H255.249C255.623 125.657 255.929 125.962 255.929 126.336V129.114C261.748 129.701 266.115 133.099 266.625 138.392C266.668 138.792 266.353 139.14 265.946 139.14H262.131C261.791 139.14 261.502 138.885 261.46 138.554C261.12 136.073 259.132 134.051 255.895 133.609V145.019L258.053 145.52C263.558 146.88 267.305 149.514 267.305 155.41C267.305 161.807 262.547 165.376 255.895 165.954ZM246.744 138.859C246.744 141.017 248.078 142.691 250.95 143.728C251.349 143.889 251.749 144.017 252.224 144.153V133.617C249.089 134.017 246.744 135.775 246.744 138.859ZM256.642 150.346C256.404 150.295 256.167 150.236 255.895 150.159V161.519C259.514 161.196 262.012 159.208 262.012 155.877C262.012 153.269 260.661 151.57 256.642 150.346Z" fill="url(#paint7_linear_39_1878)"/>
<path d="M152.915 128.268C156.467 128.268 159.083 128.976 160.763 130.392C162.467 131.808 163.319 133.704 163.319 136.08C163.319 137.616 162.935 139.02 162.167 140.292C161.399 141.54 160.223 142.548 158.639 143.316C157.079 144.06 155.147 144.432 152.843 144.432C151.067 144.432 149.315 144.204 147.587 143.748C145.883 143.268 144.431 142.596 143.231 141.732L145.535 137.268C146.495 137.988 147.599 138.552 148.847 138.96C150.095 139.344 151.379 139.536 152.699 139.536C154.163 139.536 155.315 139.248 156.155 138.672C156.995 138.096 157.415 137.292 157.415 136.26C157.415 135.18 156.971 134.364 156.083 133.812C155.219 133.26 153.707 132.984 151.547 132.984H145.103L146.399 118.8H161.771V123.48H151.259L150.863 128.268H152.915ZM171.166 132.408C169.318 132.408 167.806 131.784 166.63 130.536C165.478 129.264 164.902 127.572 164.902 125.46C164.902 123.348 165.478 121.668 166.63 120.42C167.806 119.148 169.318 118.512 171.166 118.512C173.014 118.512 174.514 119.148 175.666 120.42C176.818 121.668 177.394 123.348 177.394 125.46C177.394 127.572 176.818 129.264 175.666 130.536C174.514 131.784 173.014 132.408 171.166 132.408ZM186.178 118.8H190.462L173.254 144H168.97L186.178 118.8ZM171.166 129.456C171.982 129.456 172.618 129.12 173.074 128.448C173.554 127.776 173.794 126.78 173.794 125.46C173.794 124.14 173.554 123.144 173.074 122.472C172.618 121.8 171.982 121.464 171.166 121.464C170.374 121.464 169.738 121.812 169.258 122.508C168.778 123.18 168.538 124.164 168.538 125.46C168.538 126.756 168.778 127.752 169.258 128.448C169.738 129.12 170.374 129.456 171.166 129.456ZM188.266 144.288C187.066 144.288 185.986 144.012 185.026 143.46C184.09 142.884 183.358 142.068 182.83 141.012C182.302 139.956 182.038 138.732 182.038 137.34C182.038 135.948 182.302 134.724 182.83 133.668C183.358 132.612 184.09 131.808 185.026 131.256C185.986 130.68 187.066 130.392 188.266 130.392C190.114 130.392 191.614 131.028 192.766 132.3C193.942 133.548 194.53 135.228 194.53 137.34C194.53 139.452 193.942 141.144 192.766 142.416C191.614 143.664 190.114 144.288 188.266 144.288ZM188.266 141.336C189.082 141.336 189.718 141 190.174 140.328C190.654 139.632 190.894 138.636 190.894 137.34C190.894 136.044 190.654 135.06 190.174 134.388C189.718 133.692 189.082 133.344 188.266 133.344C187.474 133.344 186.838 133.68 186.358 134.352C185.878 135.024 185.638 136.02 185.638 137.34C185.638 138.66 185.878 139.656 186.358 140.328C186.838 141 187.474 141.336 188.266 141.336Z" fill="white"/>
<path d="M69.6404 163.2H73.5284V176.832H81.9524V180H69.6404V163.2ZM84.1248 163.2H88.0128V180H84.1248V163.2ZM110.168 181.8C109.624 182.472 108.96 182.984 108.176 183.336C107.408 183.688 106.56 183.864 105.632 183.864C104.384 183.864 103.256 183.592 102.248 183.048C101.24 182.52 100.088 181.576 98.7918 180.216C97.2718 180.024 95.9118 179.536 94.7118 178.752C93.5278 177.968 92.5998 176.96 91.9278 175.728C91.2718 174.48 90.9438 173.104 90.9438 171.6C90.9438 169.952 91.3358 168.472 92.1198 167.16C92.9198 165.832 94.0158 164.792 95.4078 164.04C96.8158 163.288 98.3918 162.912 100.136 162.912C101.88 162.912 103.448 163.288 104.84 164.04C106.232 164.792 107.328 165.832 108.128 167.16C108.928 168.472 109.328 169.952 109.328 171.6C109.328 173.552 108.776 175.264 107.672 176.736C106.584 178.208 105.136 179.232 103.328 179.808C103.728 180.224 104.112 180.52 104.48 180.696C104.864 180.888 105.272 180.984 105.704 180.984C106.744 180.984 107.656 180.568 108.44 179.736L110.168 181.8ZM94.8798 171.6C94.8798 172.64 95.1038 173.568 95.5518 174.384C96.0158 175.2 96.6478 175.84 97.4478 176.304C98.2478 176.752 99.1438 176.976 100.136 176.976C101.128 176.976 102.024 176.752 102.824 176.304C103.624 175.84 104.248 175.2 104.696 174.384C105.16 173.568 105.392 172.64 105.392 171.6C105.392 170.56 105.16 169.632 104.696 168.816C104.248 168 103.624 167.368 102.824 166.92C102.024 166.456 101.128 166.224 100.136 166.224C99.1438 166.224 98.2478 166.456 97.4478 166.92C96.6478 167.368 96.0158 168 95.5518 168.816C95.1038 169.632 94.8798 170.56 94.8798 171.6ZM119.714 180.288C117.314 180.288 115.442 179.624 114.098 178.296C112.77 176.968 112.106 175.072 112.106 172.608V163.2H115.994V172.464C115.994 175.472 117.242 176.976 119.738 176.976C120.954 176.976 121.882 176.616 122.522 175.896C123.162 175.16 123.482 174.016 123.482 172.464V163.2H127.322V172.608C127.322 175.072 126.65 176.968 125.306 178.296C123.978 179.624 122.114 180.288 119.714 180.288ZM131.164 163.2H135.052V180H131.164V163.2ZM139.039 163.2H146.671C148.495 163.2 150.103 163.552 151.495 164.256C152.903 164.944 153.991 165.92 154.759 167.184C155.543 168.448 155.935 169.92 155.935 171.6C155.935 173.28 155.543 174.752 154.759 176.016C153.991 177.28 152.903 178.264 151.495 178.968C150.103 179.656 148.495 180 146.671 180H139.039V163.2ZM146.479 176.808C148.159 176.808 149.495 176.344 150.487 175.416C151.495 174.472 151.999 173.2 151.999 171.6C151.999 170 151.495 168.736 150.487 167.808C149.495 166.864 148.159 166.392 146.479 166.392H142.927V176.808H146.479ZM158.867 163.2H162.755V180H158.867V163.2ZM170.222 166.368H164.846V163.2H179.486V166.368H174.11V180H170.222V166.368ZM189.337 174.048V180H185.449V174L178.945 163.2H183.073L187.561 170.664L192.049 163.2H195.865L189.337 174.048Z" fill="white"/>
<g filter="url(#filter5_d_39_1878)">
<path d="M493.5 391L407.5 426.5H318" stroke="url(#paint8_linear_39_1878)" stroke-width="7" stroke-linecap="round"/>
</g>
<circle cx="253" cy="425" r="39" fill="url(#paint9_linear_39_1878)"/>
<path d="M264.521 407.75C266.173 407.75 267.757 408.406 268.926 409.574C270.094 410.743 270.75 412.327 270.75 413.979V423.083C270.004 422.089 269.013 421.305 267.875 420.806V418.292H239.125V436.021C239.125 437.872 240.628 439.375 242.479 439.375H253.557C253.672 440.375 253.973 441.345 254.435 442.25H242.479C240.827 442.25 239.243 441.594 238.074 440.426C236.906 439.257 236.25 437.673 236.25 436.021V413.979C236.25 412.327 236.906 410.743 238.074 409.574C239.243 408.406 240.827 407.75 242.479 407.75H264.521ZM264.521 410.625H242.479C241.59 410.625 240.736 410.978 240.107 411.607C239.478 412.236 239.125 413.09 239.125 413.979V415.417H267.875V413.979C267.875 413.09 267.522 412.236 266.893 411.607C266.264 410.978 265.41 410.625 264.521 410.625Z" fill="black"/>
<path d="M274.583 437.458C274.583 436.696 274.281 435.964 273.741 435.425C273.202 434.886 272.471 434.583 271.708 434.583H258.292C257.529 434.583 256.798 434.886 256.259 435.425C255.72 435.964 255.417 436.696 255.417 437.458V438.417C255.417 442.194 258.982 446.083 265 446.083C271.018 446.083 274.583 442.194 274.583 438.417V437.458Z" fill="black"/>
<path d="M270.271 427.396C270.271 425.998 269.716 424.657 268.727 423.669C267.739 422.68 266.398 422.125 265 422.125C263.602 422.125 262.262 422.68 261.273 423.669C260.285 424.657 259.729 425.998 259.729 427.396C259.729 428.794 260.285 430.134 261.273 431.123C262.262 432.111 263.602 432.667 265 432.667C266.398 432.667 267.739 432.111 268.727 431.123C269.716 430.134 270.271 428.794 270.271 427.396Z" fill="black"/>
<path d="M155.653 406.06C157.861 406.42 159.553 407.248 160.729 408.544C161.905 409.816 162.493 411.4 162.493 413.296C162.493 414.76 162.109 416.116 161.341 417.364C160.573 418.588 159.397 419.572 157.813 420.316C156.253 421.06 154.333 421.432 152.053 421.432C150.277 421.432 148.525 421.204 146.797 420.748C145.093 420.268 143.641 419.596 142.441 418.732L144.709 414.268C145.669 414.988 146.773 415.552 148.021 415.96C149.293 416.344 150.589 416.536 151.909 416.536C153.373 416.536 154.525 416.26 155.365 415.708C156.205 415.132 156.625 414.328 156.625 413.296C156.625 411.232 155.053 410.2 151.909 410.2H149.245V406.348L154.429 400.48H143.701V395.8H161.341V399.58L155.653 406.06ZM170.666 409.408C168.818 409.408 167.306 408.784 166.13 407.536C164.978 406.264 164.402 404.572 164.402 402.46C164.402 400.348 164.978 398.668 166.13 397.42C167.306 396.148 168.818 395.512 170.666 395.512C172.514 395.512 174.014 396.148 175.166 397.42C176.318 398.668 176.894 400.348 176.894 402.46C176.894 404.572 176.318 406.264 175.166 407.536C174.014 408.784 172.514 409.408 170.666 409.408ZM185.678 395.8H189.962L172.754 421H168.47L185.678 395.8ZM170.666 406.456C171.482 406.456 172.118 406.12 172.574 405.448C173.054 404.776 173.294 403.78 173.294 402.46C173.294 401.14 173.054 400.144 172.574 399.472C172.118 398.8 171.482 398.464 170.666 398.464C169.874 398.464 169.238 398.812 168.758 399.508C168.278 400.18 168.038 401.164 168.038 402.46C168.038 403.756 168.278 404.752 168.758 405.448C169.238 406.12 169.874 406.456 170.666 406.456ZM187.766 421.288C186.566 421.288 185.486 421.012 184.526 420.46C183.59 419.884 182.858 419.068 182.33 418.012C181.802 416.956 181.538 415.732 181.538 414.34C181.538 412.948 181.802 411.724 182.33 410.668C182.858 409.612 183.59 408.808 184.526 408.256C185.486 407.68 186.566 407.392 187.766 407.392C189.614 407.392 191.114 408.028 192.266 409.3C193.442 410.548 194.03 412.228 194.03 414.34C194.03 416.452 193.442 418.144 192.266 419.416C191.114 420.664 189.614 421.288 187.766 421.288ZM187.766 418.336C188.582 418.336 189.218 418 189.674 417.328C190.154 416.632 190.394 415.636 190.394 414.34C190.394 413.044 190.154 412.06 189.674 411.388C189.218 410.692 188.582 410.344 187.766 410.344C186.974 410.344 186.338 410.68 185.858 411.352C185.378 412.024 185.138 413.02 185.138 414.34C185.138 415.66 185.378 416.656 185.858 417.328C186.338 418 186.974 418.336 187.766 418.336Z" fill="white"/>
<path d="M2.60138 440.2H10.2334C12.0574 440.2 13.6654 440.552 15.0574 441.256C16.4654 441.944 17.5534 442.92 18.3214 444.184C19.1054 445.448 19.4974 446.92 19.4974 448.6C19.4974 450.28 19.1054 451.752 18.3214 453.016C17.5534 454.28 16.4654 455.264 15.0574 455.968C13.6654 456.656 12.0574 457 10.2334 457H2.60138V440.2ZM10.0414 453.808C11.7214 453.808 13.0574 453.344 14.0494 452.416C15.0574 451.472 15.5614 450.2 15.5614 448.6C15.5614 447 15.0574 445.736 14.0494 444.808C13.0574 443.864 11.7214 443.392 10.0414 443.392H6.48938V453.808H10.0414ZM35.4375 453.88V457H22.4295V440.2H35.1255V443.32H26.2935V446.968H34.0935V449.992H26.2935V453.88H35.4375ZM54.4487 440.2L47.1767 457H43.3367L36.0887 440.2H40.2887L45.4007 452.2L50.5847 440.2H54.4487ZM68.8594 453.88V457H55.8514V440.2H68.5474V443.32H59.7154V446.968H67.5154V449.992H59.7154V453.88H68.8594ZM71.9529 440.2H75.8409V453.832H84.2649V457H71.9529V440.2ZM94.2921 457.288C92.5481 457.288 90.9721 456.912 89.5641 456.16C88.1721 455.408 87.0761 454.376 86.2761 453.064C85.4921 451.736 85.1001 450.248 85.1001 448.6C85.1001 446.952 85.4921 445.472 86.2761 444.16C87.0761 442.832 88.1721 441.792 89.5641 441.04C90.9721 440.288 92.5481 439.912 94.2921 439.912C96.0361 439.912 97.6041 440.288 98.9961 441.04C100.388 441.792 101.484 442.832 102.284 444.16C103.084 445.472 103.484 446.952 103.484 448.6C103.484 450.248 103.084 451.736 102.284 453.064C101.484 454.376 100.388 455.408 98.9961 456.16C97.6041 456.912 96.0361 457.288 94.2921 457.288ZM94.2921 453.976C95.2841 453.976 96.1801 453.752 96.9801 453.304C97.7801 452.84 98.4041 452.2 98.8521 451.384C99.3161 450.568 99.5481 449.64 99.5481 448.6C99.5481 447.56 99.3161 446.632 98.8521 445.816C98.4041 445 97.7801 444.368 96.9801 443.92C96.1801 443.456 95.2841 443.224 94.2921 443.224C93.3001 443.224 92.4041 443.456 91.6041 443.92C90.8041 444.368 90.1721 445 89.7081 445.816C89.2601 446.632 89.0361 447.56 89.0361 448.6C89.0361 449.64 89.2601 450.568 89.7081 451.384C90.1721 452.2 90.8041 452.84 91.6041 453.304C92.4041 453.752 93.3001 453.976 94.2921 453.976ZM113.678 440.2C115.166 440.2 116.454 440.448 117.542 440.944C118.646 441.44 119.494 442.144 120.086 443.056C120.678 443.968 120.974 445.048 120.974 446.296C120.974 447.528 120.678 448.608 120.086 449.536C119.494 450.448 118.646 451.152 117.542 451.648C116.454 452.128 115.166 452.368 113.678 452.368H110.294V457H106.406V440.2H113.678ZM113.462 449.2C114.63 449.2 115.518 448.952 116.126 448.456C116.734 447.944 117.038 447.224 117.038 446.296C117.038 445.352 116.734 444.632 116.126 444.136C115.518 443.624 114.63 443.368 113.462 443.368H110.294V449.2H113.462ZM139.038 457L139.014 446.92L134.07 455.224H132.318L127.398 447.136V457H123.75V440.2H126.966L133.254 450.64L139.446 440.2H142.638L142.686 457H139.038ZM159.68 453.88V457H146.672V440.2H159.368V443.32H150.536V446.968H158.336V449.992H150.536V453.88H159.68ZM178.181 440.2V457H174.989L166.613 446.8V457H162.773V440.2H165.989L174.341 450.4V440.2H178.181ZM185.636 443.368H180.26V440.2H194.9V443.368H189.524V457H185.636V443.368Z" fill="white"/>
<g filter="url(#filter6_d_39_1878)">
<path d="M457.5 287H355.026H280.5" stroke="url(#paint10_linear_39_1878)" stroke-width="7" stroke-linecap="round"/>
</g>
<circle cx="213.5" cy="288" r="39" fill="url(#paint11_linear_39_1878)"/>
<path d="M231.688 274.5C231.017 274.5 230.356 274.676 229.757 275.014C229.157 275.352 228.636 275.843 228.235 276.447C227.834 277.051 227.563 277.752 227.444 278.494C227.326 279.236 227.363 279.999 227.552 280.723L220.861 288.249C219.979 287.918 219.025 287.918 218.143 288.249L213.182 282.669C213.345 281.952 213.361 281.203 213.227 280.479C213.094 279.754 212.815 279.074 212.412 278.49C212.009 277.905 211.492 277.432 210.902 277.107C210.311 276.782 209.662 276.613 209.005 276.613C208.347 276.613 207.698 276.782 207.108 277.107C206.517 277.432 206.001 277.905 205.598 278.49C205.195 279.074 204.916 279.754 204.782 280.479C204.649 281.203 204.664 281.952 204.827 282.669L196.531 291.995C195.61 291.688 194.625 291.736 193.73 292.13C192.836 292.524 192.084 293.242 191.592 294.17C191.101 295.099 190.899 296.185 191.018 297.258C191.138 298.33 191.571 299.327 192.25 300.091C192.929 300.855 193.815 301.343 194.768 301.478C195.721 301.612 196.687 301.385 197.513 300.833C198.338 300.281 198.977 299.435 199.327 298.429C199.678 297.422 199.72 296.314 199.448 295.277L207.639 286.064C208.521 286.395 209.475 286.395 210.358 286.064L215.319 291.645C215.156 292.362 215.14 293.111 215.274 293.835C215.407 294.559 215.686 295.239 216.089 295.824C216.492 296.408 217.009 296.881 217.599 297.206C218.19 297.532 218.839 297.701 219.496 297.701C220.154 297.701 220.803 297.532 221.393 297.206C221.984 296.881 222.5 296.408 222.903 295.824C223.306 295.239 223.585 294.559 223.719 293.835C223.852 293.111 223.837 292.362 223.674 291.645L230.469 284.005C231.062 284.202 231.686 284.253 232.298 284.154C232.91 284.056 233.497 283.811 234.017 283.435C234.538 283.06 234.981 282.562 235.315 281.977C235.65 281.392 235.869 280.733 235.957 280.044C236.046 279.356 236.001 278.654 235.827 277.986C235.653 277.318 235.353 276.701 234.948 276.175C234.543 275.649 234.043 275.227 233.48 274.938C232.917 274.649 232.306 274.5 231.688 274.5Z" fill="black"/>
<path d="M116.153 269.06C118.361 269.42 120.053 270.248 121.229 271.544C122.405 272.816 122.993 274.4 122.993 276.296C122.993 277.76 122.609 279.116 121.841 280.364C121.073 281.588 119.897 282.572 118.313 283.316C116.753 284.06 114.833 284.432 112.553 284.432C110.777 284.432 109.025 284.204 107.297 283.748C105.593 283.268 104.141 282.596 102.941 281.732L105.209 277.268C106.169 277.988 107.273 278.552 108.521 278.96C109.793 279.344 111.089 279.536 112.409 279.536C113.873 279.536 115.025 279.26 115.865 278.708C116.705 278.132 117.125 277.328 117.125 276.296C117.125 274.232 115.553 273.2 112.409 273.2H109.745V269.348L114.929 263.48H104.201V258.8H121.841V262.58L116.153 269.06ZM131.166 272.408C129.318 272.408 127.806 271.784 126.63 270.536C125.478 269.264 124.902 267.572 124.902 265.46C124.902 263.348 125.478 261.668 126.63 260.42C127.806 259.148 129.318 258.512 131.166 258.512C133.014 258.512 134.514 259.148 135.666 260.42C136.818 261.668 137.394 263.348 137.394 265.46C137.394 267.572 136.818 269.264 135.666 270.536C134.514 271.784 133.014 272.408 131.166 272.408ZM146.178 258.8H150.462L133.254 284H128.97L146.178 258.8ZM131.166 269.456C131.982 269.456 132.618 269.12 133.074 268.448C133.554 267.776 133.794 266.78 133.794 265.46C133.794 264.14 133.554 263.144 133.074 262.472C132.618 261.8 131.982 261.464 131.166 261.464C130.374 261.464 129.738 261.812 129.258 262.508C128.778 263.18 128.538 264.164 128.538 265.46C128.538 266.756 128.778 267.752 129.258 268.448C129.738 269.12 130.374 269.456 131.166 269.456ZM148.266 284.288C147.066 284.288 145.986 284.012 145.026 283.46C144.09 282.884 143.358 282.068 142.83 281.012C142.302 279.956 142.038 278.732 142.038 277.34C142.038 275.948 142.302 274.724 142.83 273.668C143.358 272.612 144.09 271.808 145.026 271.256C145.986 270.68 147.066 270.392 148.266 270.392C150.114 270.392 151.614 271.028 152.766 272.3C153.942 273.548 154.53 275.228 154.53 277.34C154.53 279.452 153.942 281.144 152.766 282.416C151.614 283.664 150.114 284.288 148.266 284.288ZM148.266 281.336C149.082 281.336 149.718 281 150.174 280.328C150.654 279.632 150.894 278.636 150.894 277.34C150.894 276.044 150.654 275.06 150.174 274.388C149.718 273.692 149.082 273.344 148.266 273.344C147.474 273.344 146.838 273.68 146.358 274.352C145.878 275.024 145.638 276.02 145.638 277.34C145.638 278.66 145.878 279.656 146.358 280.328C146.838 281 147.474 281.336 148.266 281.336Z" fill="white"/>
<path d="M19.3581 320L19.3341 309.92L14.3901 318.224H12.6381L7.71813 310.136V320H4.07013V303.2H7.28613L13.5741 313.64L19.7661 303.2H22.9581L23.0061 320H19.3581ZM38.056 316.4H30.256L28.768 320H24.784L32.272 303.2H36.112L43.624 320H39.544L38.056 316.4ZM36.832 313.448L34.168 307.016L31.504 313.448H36.832ZM56.071 320L52.831 315.32H52.639H49.255V320H45.367V303.2H52.639C54.127 303.2 55.415 303.448 56.503 303.944C57.607 304.44 58.455 305.144 59.047 306.056C59.639 306.968 59.935 308.048 59.935 309.296C59.935 310.544 59.631 311.624 59.023 312.536C58.431 313.432 57.583 314.12 56.479 314.6L60.247 320H56.071ZM55.999 309.296C55.999 308.352 55.695 307.632 55.087 307.136C54.479 306.624 53.591 306.368 52.423 306.368H49.255V312.224H52.423C53.591 312.224 54.479 311.968 55.087 311.456C55.695 310.944 55.999 310.224 55.999 309.296ZM69.1354 313.4L66.8794 315.752V320H63.0154V303.2H66.8794V311.048L74.3194 303.2H78.6394L71.6794 310.688L79.0474 320H74.5114L69.1354 313.4ZM93.7891 316.88V320H80.7811V303.2H93.4771V306.32H84.6451V309.968H92.4451V312.992H84.6451V316.88H93.7891ZM100.363 306.368H94.9866V303.2H109.627V306.368H104.251V320H100.363V306.368ZM111.719 303.2H115.607V320H111.719V303.2ZM135.002 303.2V320H131.81L123.434 309.8V320H119.594V303.2H122.81L131.162 313.4V303.2H135.002ZM150.328 311.336H153.88V318.152C152.968 318.84 151.912 319.368 150.712 319.736C149.512 320.104 148.304 320.288 147.088 320.288C145.344 320.288 143.776 319.92 142.384 319.184C140.992 318.432 139.896 317.4 139.096 316.088C138.312 314.76 137.92 313.264 137.92 311.6C137.92 309.936 138.312 308.448 139.096 307.136C139.896 305.808 141 304.776 142.408 304.04C143.816 303.288 145.4 302.912 147.16 302.912C148.632 302.912 149.968 303.16 151.168 303.656C152.368 304.152 153.376 304.872 154.192 305.816L151.696 308.12C150.496 306.856 149.048 306.224 147.352 306.224C146.28 306.224 145.328 306.448 144.496 306.896C143.664 307.344 143.016 307.976 142.552 308.792C142.088 309.608 141.856 310.544 141.856 311.6C141.856 312.64 142.088 313.568 142.552 314.384C143.016 315.2 143.656 315.84 144.472 316.304C145.304 316.752 146.248 316.976 147.304 316.976C148.424 316.976 149.432 316.736 150.328 316.256V311.336Z" fill="white"/>
<g filter="url(#filter7_d_39_1878)">
<circle cx="613" cy="294.5" r="148.5" stroke="url(#paint12_angular_39_1878)" stroke-width="10" shape-rendering="crispEdges"/>
</g>
<g filter="url(#filter8_d_39_1878)">
<ellipse cx="612" cy="294" rx="126.5" ry="126" fill="url(#paint13_linear_39_1878)"/>
<path d="M738 294C738 363.31 681.59 419.5 612 419.5C542.41 419.5 486 363.31 486 294C486 224.69 542.41 168.5 612 168.5C681.59 168.5 738 224.69 738 294Z" stroke="black"/>
</g>
<g filter="url(#filter9_d_39_1878)">
<path d="M510.2 307H504.246V280.127H498.093V274.876H516.353V280.127H510.2V307ZM541.292 290.894C541.292 296.211 540.295 300.298 538.303 303.155C536.311 306.011 533.462 307.439 529.756 307.439C526.035 307.439 523.179 306.019 521.187 303.177C519.194 300.32 518.198 296.211 518.198 290.85C518.198 285.533 519.194 281.46 521.187 278.633C523.179 275.792 526.05 274.371 529.8 274.371C533.506 274.371 536.348 275.799 538.325 278.655C540.303 281.497 541.292 285.577 541.292 290.894ZM524.307 290.894C524.307 294.556 524.768 297.347 525.691 299.266C526.614 301.185 527.969 302.144 529.756 302.144C533.359 302.144 535.161 298.394 535.161 290.894C535.161 283.394 533.374 279.644 529.8 279.644C527.983 279.644 526.614 280.604 525.691 282.522C524.768 284.427 524.307 287.217 524.307 290.894ZM566.011 307H559.639L554.365 293.267L551.97 295.662V307H545.994V274.876H551.97V290.806L554.058 285.994L559.529 274.876H565.923L558.496 288.785L566.011 307ZM583.325 307H568.845V274.876H583.325V280.04H574.822V287.686H582.71V292.872H574.822V301.771H583.325V307ZM610.505 307H603.21L593.279 283.731H592.993C593.359 285.503 593.542 287.408 593.542 289.444V307H588.005V274.876H595.344L605.188 297.903H605.43C605.151 296.365 605.012 294.534 605.012 292.41V274.876H610.505V307ZM638.279 290.894C638.279 296.211 637.283 300.298 635.291 303.155C633.298 306.011 630.449 307.439 626.743 307.439C623.022 307.439 620.166 306.019 618.174 303.177C616.182 300.32 615.186 296.211 615.186 290.85C615.186 285.533 616.182 281.46 618.174 278.633C620.166 275.792 623.037 274.371 626.787 274.371C630.493 274.371 633.335 275.799 635.312 278.655C637.29 281.497 638.279 285.577 638.279 290.894ZM621.294 290.894C621.294 294.556 621.755 297.347 622.678 299.266C623.601 301.185 624.956 302.144 626.743 302.144C630.347 302.144 632.148 298.394 632.148 290.894C632.148 283.394 630.361 279.644 626.787 279.644C624.971 279.644 623.601 280.604 622.678 282.522C621.755 284.427 621.294 287.217 621.294 290.894ZM654.451 307L648.342 279.644H648.101C648.379 281.753 648.518 283.687 648.518 285.445V307H642.981V274.876H652.166L657.659 300.123H657.834L663.284 274.876H672.6V307H666.931V285.225C666.931 283.423 667.034 281.578 667.239 279.688H667.063L660.977 307H654.451ZM679.346 307V274.876H684.971V307H679.346ZM702.417 279.644C700.703 279.644 699.348 280.647 698.352 282.654C697.371 284.661 696.88 287.452 696.88 291.026C696.88 298.467 698.821 302.188 702.703 302.188C704.402 302.188 706.182 301.646 708.042 300.562V305.879C706.475 306.919 704.468 307.439 702.021 307.439C698.403 307.439 695.62 306.004 693.672 303.133C691.738 300.247 690.771 296.197 690.771 290.982C690.771 285.767 691.768 281.702 693.76 278.787C695.767 275.872 698.55 274.415 702.109 274.415C703.281 274.415 704.402 274.576 705.471 274.898C706.555 275.22 707.712 275.784 708.943 276.59L706.965 281.446C706.306 280.992 705.603 280.582 704.856 280.215C704.109 279.834 703.296 279.644 702.417 279.644ZM727.224 298.145C727.224 301.148 726.462 303.448 724.939 305.044C723.43 306.641 721.248 307.439 718.391 307.439C715.593 307.439 713.213 306.89 711.25 305.792V299.881C713.652 301.448 715.857 302.232 717.864 302.232C719.006 302.232 719.863 301.917 720.435 301.287C721.021 300.657 721.313 299.8 721.313 298.716C721.313 297.647 720.969 296.673 720.281 295.794C719.592 294.9 718.457 293.912 716.875 292.828C715.498 291.875 714.451 290.967 713.733 290.103C713.03 289.224 712.48 288.243 712.085 287.159C711.704 286.075 711.514 284.815 711.514 283.379C711.514 280.625 712.275 278.443 713.799 276.832C715.337 275.22 717.395 274.415 719.973 274.415C722.434 274.415 724.8 275.103 727.07 276.48L725.093 281.27C724.39 280.86 723.65 280.494 722.874 280.171C722.112 279.849 721.292 279.688 720.413 279.688C719.446 279.688 718.699 280.01 718.171 280.655C717.659 281.285 717.402 282.149 717.402 283.248C717.402 284.332 717.71 285.276 718.325 286.082C718.955 286.888 720.046 287.803 721.599 288.829C723.694 290.235 725.151 291.67 725.972 293.135C726.807 294.6 727.224 296.27 727.224 298.145Z" fill="white"/>
<path d="M510.2 307V309H512.2V307H510.2ZM504.246 307H502.246V309H504.246V307ZM504.246 280.127H506.246V278.127H504.246V280.127ZM498.093 280.127H496.093V282.127H498.093V280.127ZM498.093 274.876V272.876H496.093V274.876H498.093ZM516.353 274.876H518.353V272.876H516.353V274.876ZM516.353 280.127V282.127H518.353V280.127H516.353ZM510.2 280.127V278.127H508.2V280.127H510.2ZM510.2 305H504.246V309H510.2V305ZM506.246 307V280.127H502.246V307H506.246ZM504.246 278.127H498.093V282.127H504.246V278.127ZM500.093 280.127V274.876H496.093V280.127H500.093ZM498.093 276.876H516.353V272.876H498.093V276.876ZM514.353 274.876V280.127H518.353V274.876H514.353ZM516.353 278.127H510.2V282.127H516.353V278.127ZM508.2 280.127V307H512.2V280.127H508.2ZM521.187 303.177L519.546 304.321L519.549 304.325L521.187 303.177ZM521.187 278.633L522.821 279.785L522.824 279.781L521.187 278.633ZM538.325 278.655L536.681 279.794L536.684 279.798L538.325 278.655ZM525.691 282.522L527.491 283.395L527.493 283.389L525.691 282.522ZM539.292 290.894C539.292 296.004 538.327 299.624 536.663 302.011L539.944 304.299C542.264 300.973 543.292 296.419 543.292 290.894H539.292ZM536.663 302.011C535.072 304.291 532.858 305.439 529.756 305.439V309.439C534.066 309.439 537.55 307.731 539.944 304.299L536.663 302.011ZM529.756 305.439C526.632 305.439 524.411 304.293 522.824 302.029L519.549 304.325C521.946 307.744 525.438 309.439 529.756 309.439V305.439ZM522.827 302.033C521.164 299.648 520.198 296.008 520.198 290.85H516.198C516.198 296.415 517.225 300.992 519.546 304.321L522.827 302.033ZM520.198 290.85C520.198 285.738 521.163 282.138 522.821 279.785L519.552 277.481C517.225 280.783 516.198 285.327 516.198 290.85H520.198ZM522.824 279.781C524.408 277.522 526.64 276.371 529.8 276.371V272.371C525.459 272.371 521.949 274.061 519.549 277.485L522.824 279.781ZM529.8 276.371C532.901 276.371 535.105 277.518 536.681 279.794L539.97 277.517C537.59 274.08 534.11 272.371 529.8 272.371V276.371ZM536.684 279.798C538.333 282.168 539.292 285.781 539.292 290.894H543.292C543.292 285.373 542.272 280.826 539.967 277.513L536.684 279.798ZM522.307 290.894C522.307 294.67 522.774 297.814 523.889 300.132L527.493 298.399C526.762 296.879 526.307 294.443 526.307 290.894H522.307ZM523.889 300.132C524.456 301.313 525.222 302.333 526.244 303.057C527.285 303.794 528.482 304.144 529.756 304.144V300.144C529.243 300.144 528.868 300.014 528.555 299.792C528.222 299.556 527.848 299.137 527.493 298.399L523.889 300.132ZM529.756 304.144C531.023 304.144 532.218 303.807 533.261 303.084C534.287 302.372 535.051 301.366 535.613 300.198C536.709 297.915 537.161 294.74 537.161 290.894H533.161C533.161 294.548 532.712 296.998 532.007 298.465C531.668 299.172 531.306 299.572 530.981 299.798C530.672 300.012 530.29 300.144 529.756 300.144V304.144ZM537.161 290.894C537.161 287.049 536.713 283.877 535.626 281.596C535.07 280.429 534.312 279.422 533.292 278.708C532.254 277.983 531.064 277.644 529.8 277.644V281.644C530.323 281.644 530.696 281.774 530.999 281.986C531.319 282.21 531.678 282.609 532.015 283.317C532.716 284.786 533.161 287.239 533.161 290.894H537.161ZM529.8 277.644C528.518 277.644 527.313 277.99 526.263 278.726C525.23 279.449 524.459 280.47 523.889 281.656L527.493 283.389C527.846 282.656 528.22 282.238 528.558 282.002C528.877 281.778 529.265 281.644 529.8 281.644V277.644ZM523.891 281.65C522.773 283.958 522.307 287.107 522.307 290.894H526.307C526.307 287.328 526.763 284.896 527.491 283.395L523.891 281.65ZM566.011 307V309H568.999L567.86 306.237L566.011 307ZM559.639 307L557.772 307.717L558.264 309H559.639V307ZM554.365 293.267L556.232 292.55L555.128 289.675L552.951 291.853L554.365 293.267ZM551.97 295.662L550.556 294.248L549.97 294.834V295.662H551.97ZM551.97 307V309H553.97V307H551.97ZM545.994 307H543.994V309H545.994V307ZM545.994 274.876V272.876H543.994V274.876H545.994ZM551.97 274.876H553.97V272.876H551.97V274.876ZM551.97 290.806H549.97L553.805 291.602L551.97 290.806ZM554.058 285.994L552.263 285.111L552.242 285.154L552.223 285.198L554.058 285.994ZM559.529 274.876V272.876H558.284L557.734 273.993L559.529 274.876ZM565.923 274.876L567.687 275.818L569.258 272.876H565.923V274.876ZM558.496 288.785L556.732 287.843L556.287 288.675L556.647 289.547L558.496 288.785ZM566.011 305H559.639V309H566.011V305ZM561.506 306.283L556.232 292.55L552.498 293.984L557.772 307.717L561.506 306.283ZM552.951 291.853L550.556 294.248L553.384 297.076L555.779 294.681L552.951 291.853ZM549.97 295.662V307H553.97V295.662H549.97ZM551.97 305H545.994V309H551.97V305ZM547.994 307V274.876H543.994V307H547.994ZM545.994 276.876H551.97V272.876H545.994V276.876ZM549.97 274.876V290.806H553.97V274.876H549.97ZM553.805 291.602L555.892 286.79L552.223 285.198L550.135 290.01L553.805 291.602ZM555.852 286.877L561.323 275.759L557.734 273.993L552.263 285.111L555.852 286.877ZM559.529 276.876H565.923V272.876H559.529V276.876ZM564.159 273.934L556.732 287.843L560.26 289.727L567.687 275.818L564.159 273.934ZM556.647 289.547L564.162 307.763L567.86 306.237L560.345 288.022L556.647 289.547ZM583.325 307V309H585.325V307H583.325ZM568.845 307H566.845V309H568.845V307ZM568.845 274.876V272.876H566.845V274.876H568.845ZM583.325 274.876H585.325V272.876H583.325V274.876ZM583.325 280.04V282.04H585.325V280.04H583.325ZM574.822 280.04V278.04H572.822V280.04H574.822ZM574.822 287.686H572.822V289.686H574.822V287.686ZM582.71 287.686H584.71V285.686H582.71V287.686ZM582.71 292.872V294.872H584.71V292.872H582.71ZM574.822 292.872V290.872H572.822V292.872H574.822ZM574.822 301.771H572.822V303.771H574.822V301.771ZM583.325 301.771H585.325V299.771H583.325V301.771ZM583.325 305H568.845V309H583.325V305ZM570.845 307V274.876H566.845V307H570.845ZM568.845 276.876H583.325V272.876H568.845V276.876ZM581.325 274.876V280.04H585.325V274.876H581.325ZM583.325 278.04H574.822V282.04H583.325V278.04ZM572.822 280.04V287.686H576.822V280.04H572.822ZM574.822 289.686H582.71V285.686H574.822V289.686ZM580.71 287.686V292.872H584.71V287.686H580.71ZM582.71 290.872H574.822V294.872H582.71V290.872ZM572.822 292.872V301.771H576.822V292.872H572.822ZM574.822 303.771H583.325V299.771H574.822V303.771ZM581.325 301.771V307H585.325V301.771H581.325ZM610.505 307V309H612.505V307H610.505ZM603.21 307L601.371 307.785L601.89 309H603.21V307ZM593.279 283.731L595.118 282.946L594.6 281.731H593.279V283.731ZM592.993 283.731V281.731H590.538L591.035 284.136L592.993 283.731ZM593.542 307V309H595.542V307H593.542ZM588.005 307H586.005V309H588.005V307ZM588.005 274.876V272.876H586.005V274.876H588.005ZM595.344 274.876L597.183 274.09L596.664 272.876H595.344V274.876ZM605.188 297.903L603.349 298.689L603.868 299.903H605.188V297.903ZM605.43 297.903V299.903H607.824L607.398 297.547L605.43 297.903ZM605.012 274.876V272.876H603.012V274.876H605.012ZM610.505 274.876H612.505V272.876H610.505V274.876ZM610.505 305H603.21V309H610.505V305ZM605.05 306.215L595.118 282.946L591.439 284.516L601.371 307.785L605.05 306.215ZM593.279 281.731H592.993V285.731H593.279V281.731ZM591.035 284.136C591.37 285.76 591.542 287.527 591.542 289.444H595.542C595.542 287.288 595.349 285.247 594.952 283.326L591.035 284.136ZM591.542 289.444V307H595.542V289.444H591.542ZM593.542 305H588.005V309H593.542V305ZM590.005 307V274.876H586.005V307H590.005ZM588.005 276.876H595.344V272.876H588.005V276.876ZM593.505 275.662L603.349 298.689L607.027 297.117L597.183 274.09L593.505 275.662ZM605.188 299.903H605.43V295.903H605.188V299.903ZM607.398 297.547C607.147 296.16 607.012 294.454 607.012 292.41H603.012C603.012 294.614 603.156 296.571 603.462 298.259L607.398 297.547ZM607.012 292.41V274.876H603.012V292.41H607.012ZM605.012 276.876H610.505V272.876H605.012V276.876ZM608.505 274.876V307H612.505V274.876H608.505ZM618.174 303.177L616.533 304.321L616.536 304.325L618.174 303.177ZM618.174 278.633L619.809 279.785L619.812 279.781L618.174 278.633ZM635.312 278.655L633.668 279.794L633.671 279.798L635.312 278.655ZM622.678 282.522L624.478 283.395L624.481 283.389L622.678 282.522ZM636.279 290.894C636.279 296.004 635.315 299.624 633.65 302.011L636.931 304.299C639.251 300.973 640.279 296.419 640.279 290.894H636.279ZM633.65 302.011C632.059 304.291 629.845 305.439 626.743 305.439V309.439C631.054 309.439 634.537 307.731 636.931 304.299L633.65 302.011ZM626.743 305.439C623.619 305.439 621.399 304.293 619.812 302.029L616.536 304.325C618.933 307.744 622.426 309.439 626.743 309.439V305.439ZM619.814 302.033C618.151 299.648 617.186 296.008 617.186 290.85H613.186C613.186 296.415 614.212 300.992 616.533 304.321L619.814 302.033ZM617.186 290.85C617.186 285.738 618.151 282.138 619.809 279.785L616.539 277.481C614.213 280.783 613.186 285.327 613.186 290.85H617.186ZM619.812 279.781C621.395 277.522 623.628 276.371 626.787 276.371V272.371C622.447 272.371 618.937 274.061 616.536 277.485L619.812 279.781ZM626.787 276.371C629.889 276.371 632.093 277.518 633.668 279.794L636.957 277.517C634.577 274.08 631.098 272.371 626.787 272.371V276.371ZM633.671 279.798C635.321 282.168 636.279 285.781 636.279 290.894H640.279C640.279 285.373 639.259 280.826 636.954 277.513L633.671 279.798ZM619.294 290.894C619.294 294.67 619.761 297.814 620.876 300.132L624.481 298.399C623.75 296.879 623.294 294.443 623.294 290.894H619.294ZM620.876 300.132C621.444 301.313 622.209 302.333 623.231 303.057C624.272 303.794 625.469 304.144 626.743 304.144V300.144C626.23 300.144 625.856 300.014 625.542 299.792C625.209 299.556 624.836 299.137 624.481 298.399L620.876 300.132ZM626.743 304.144C628.011 304.144 629.206 303.807 630.248 303.084C631.274 302.372 632.038 301.366 632.6 300.198C633.697 297.915 634.148 294.74 634.148 290.894H630.148C630.148 294.548 629.699 296.998 628.994 298.465C628.655 299.172 628.293 299.572 627.968 299.798C627.659 300.012 627.277 300.144 626.743 300.144V304.144ZM634.148 290.894C634.148 287.049 633.7 283.877 632.614 281.596C632.057 280.429 631.299 279.422 630.279 278.708C629.242 277.983 628.051 277.644 626.787 277.644V281.644C627.31 281.644 627.683 281.774 627.986 281.986C628.307 282.21 628.665 282.609 629.003 283.317C629.703 284.786 630.148 287.239 630.148 290.894H634.148ZM626.787 277.644C625.506 277.644 624.3 277.99 623.25 278.726C622.218 279.449 621.446 280.47 620.876 281.656L624.481 283.389C624.833 282.656 625.208 282.238 625.545 282.002C625.864 281.778 626.252 281.644 626.787 281.644V277.644ZM620.878 281.65C619.76 283.958 619.294 287.107 619.294 290.894H623.294C623.294 287.328 623.751 284.896 624.478 283.395L620.878 281.65ZM654.451 307L652.499 307.436L652.848 309H654.451V307ZM648.342 279.644L650.294 279.208L649.945 277.644H648.342V279.644ZM648.101 279.644V277.644H645.819L646.118 279.906L648.101 279.644ZM648.518 307V309H650.518V307H648.518ZM642.981 307H640.981V309H642.981V307ZM642.981 274.876V272.876H640.981V274.876H642.981ZM652.166 274.876L654.12 274.451L653.777 272.876H652.166V274.876ZM657.659 300.123L655.704 300.548L656.047 302.123H657.659V300.123ZM657.834 300.123V302.123H659.449L659.789 300.545L657.834 300.123ZM663.284 274.876V272.876H661.669L661.329 274.454L663.284 274.876ZM672.6 274.876H674.6V272.876H672.6V274.876ZM672.6 307V309H674.6V307H672.6ZM666.931 307H664.931V309H666.931V307ZM667.239 279.688L669.227 279.904L669.468 277.688H667.239V279.688ZM667.063 279.688V277.688H665.46L665.111 279.253L667.063 279.688ZM660.977 307V309H662.58L662.929 307.435L660.977 307ZM656.403 306.564L650.294 279.208L646.39 280.08L652.499 307.436L656.403 306.564ZM648.342 277.644H648.101V281.644H648.342V277.644ZM646.118 279.906C646.387 281.946 646.518 283.79 646.518 285.445H650.518C650.518 283.584 650.371 281.561 650.083 279.382L646.118 279.906ZM646.518 285.445V307H650.518V285.445H646.518ZM648.518 305H642.981V309H648.518V305ZM644.981 307V274.876H640.981V307H644.981ZM642.981 276.876H652.166V272.876H642.981V276.876ZM650.211 275.301L655.704 300.548L659.613 299.697L654.12 274.451L650.211 275.301ZM657.659 302.123H657.834V298.123H657.659V302.123ZM659.789 300.545L665.239 275.298L661.329 274.454L655.879 299.701L659.789 300.545ZM663.284 276.876H672.6V272.876H663.284V276.876ZM670.6 274.876V307H674.6V274.876H670.6ZM672.6 305H666.931V309H672.6V305ZM668.931 307V285.225H664.931V307H668.931ZM668.931 285.225C668.931 283.499 669.029 281.726 669.227 279.904L665.25 279.472C665.038 281.43 664.931 283.347 664.931 285.225H668.931ZM667.239 277.688H667.063V281.688H667.239V277.688ZM665.111 279.253L659.024 306.565L662.929 307.435L669.015 280.123L665.111 279.253ZM660.977 305H654.451V309H660.977V305ZM679.346 307H677.346V309H679.346V307ZM679.346 274.876V272.876H677.346V274.876H679.346ZM684.971 274.876H686.971V272.876H684.971V274.876ZM684.971 307V309H686.971V307H684.971ZM681.346 307V274.876H677.346V307H681.346ZM679.346 276.876H684.971V272.876H679.346V276.876ZM682.971 274.876V307H686.971V274.876H682.971ZM684.971 305H679.346V309H684.971V305ZM698.352 282.654L696.561 281.765L696.555 281.776L698.352 282.654ZM708.042 300.562H710.042V297.082L707.035 298.834L708.042 300.562ZM708.042 305.879L709.148 307.546L710.042 306.953V305.879H708.042ZM693.672 303.133L692.01 304.246L692.017 304.256L693.672 303.133ZM693.76 278.787L692.112 277.653L692.109 277.659L693.76 278.787ZM705.471 274.898L704.894 276.813L704.901 276.815L705.471 274.898ZM708.943 276.59L710.795 277.344L711.416 275.819L710.038 274.917L708.943 276.59ZM706.965 281.446L705.831 283.093L707.879 284.504L708.818 282.2L706.965 281.446ZM704.856 280.215L703.948 281.997L703.962 282.004L703.976 282.011L704.856 280.215ZM702.417 277.644C699.702 277.644 697.772 279.324 696.561 281.765L700.144 283.543C700.924 281.97 701.704 281.644 702.417 281.644V277.644ZM696.555 281.776C695.383 284.172 694.88 287.31 694.88 291.026H698.88C698.88 287.593 699.358 285.15 700.149 283.533L696.555 281.776ZM694.88 291.026C694.88 294.855 695.368 298.034 696.562 300.322C697.175 301.496 697.999 302.486 699.078 303.176C700.166 303.871 701.399 304.188 702.703 304.188V300.188C702.065 300.188 701.6 300.04 701.232 299.805C700.856 299.565 700.467 299.159 700.109 298.472C699.362 297.041 698.88 294.638 698.88 291.026H694.88ZM702.703 304.188C704.838 304.188 706.963 303.505 709.049 302.29L707.035 298.834C705.4 299.787 703.965 300.188 702.703 300.188V304.188ZM706.042 300.562V305.879H710.042V300.562H706.042ZM706.936 304.213C705.782 304.979 704.191 305.439 702.021 305.439V309.439C704.744 309.439 707.167 308.86 709.148 307.546L706.936 304.213ZM702.021 305.439C699.032 305.439 696.884 304.305 695.327 302.01L692.017 304.256C694.356 307.703 697.774 309.439 702.021 309.439V305.439ZM695.333 302.02C693.705 299.59 692.771 295.987 692.771 290.982H688.771C688.771 296.407 689.771 300.904 692.01 304.246L695.333 302.02ZM692.771 290.982C692.771 285.988 693.731 282.374 695.411 279.916L692.109 277.659C689.805 281.03 688.771 285.546 688.771 290.982H692.771ZM695.407 279.921C697.038 277.552 699.203 276.415 702.109 276.415V272.415C697.896 272.415 694.495 274.192 692.112 277.653L695.407 279.921ZM702.109 276.415C703.095 276.415 704.021 276.55 704.894 276.813L706.048 272.983C704.783 272.602 703.467 272.415 702.109 272.415V276.415ZM704.901 276.815C705.753 277.068 706.733 277.534 707.847 278.263L710.038 274.917C708.691 274.035 707.357 273.372 706.041 272.981L704.901 276.815ZM707.091 275.836L705.113 280.691L708.818 282.2L710.795 277.344L707.091 275.836ZM708.1 279.799C707.357 279.287 706.568 278.827 705.736 278.419L703.976 282.011C704.638 282.336 705.256 282.697 705.831 283.093L708.1 279.799ZM705.764 278.434C704.722 277.902 703.596 277.644 702.417 277.644V281.644C702.996 281.644 703.495 281.767 703.948 281.997L705.764 278.434ZM724.939 305.044L723.492 303.664L723.485 303.671L724.939 305.044ZM711.25 305.792H709.25V306.964L710.273 307.537L711.25 305.792ZM711.25 299.881L712.343 298.206L709.25 296.188V299.881H711.25ZM720.435 301.287L718.97 299.925L718.962 299.934L718.953 299.943L720.435 301.287ZM720.281 295.794L718.696 297.015L718.701 297.021L718.706 297.027L720.281 295.794ZM716.875 292.828L715.737 294.473L715.745 294.478L716.875 292.828ZM713.733 290.103L712.171 291.352L712.183 291.367L712.194 291.381L713.733 290.103ZM712.085 287.159L710.198 287.822L710.202 287.833L710.206 287.844L712.085 287.159ZM713.799 276.832L712.352 275.451L712.346 275.458L713.799 276.832ZM727.07 276.48L728.919 277.243L729.573 275.659L728.107 274.77L727.07 276.48ZM725.093 281.27L724.085 282.998L726.066 284.153L726.941 282.033L725.093 281.27ZM722.874 280.171L722.094 282.013L722.107 282.019L722.874 280.171ZM718.171 280.655L716.623 279.388L716.62 279.392L718.171 280.655ZM718.325 286.082L716.736 287.296L716.743 287.305L716.75 287.314L718.325 286.082ZM721.599 288.829L722.714 287.168L722.708 287.164L722.701 287.16L721.599 288.829ZM725.972 293.135L724.227 294.112L724.23 294.119L724.234 294.126L725.972 293.135ZM725.224 298.145C725.224 300.823 724.549 302.556 723.492 303.664L726.386 306.425C728.376 304.339 729.224 301.473 729.224 298.145H725.224ZM723.485 303.671C722.459 304.757 720.871 305.439 718.391 305.439V309.439C721.624 309.439 724.401 308.525 726.393 306.418L723.485 303.671ZM718.391 305.439C715.853 305.439 713.827 304.942 712.227 304.046L710.273 307.537C712.599 308.838 715.334 309.439 718.391 309.439V305.439ZM713.25 305.792V299.881H709.25V305.792H713.25ZM710.157 301.556C712.751 303.248 715.336 304.232 717.864 304.232V300.232C716.378 300.232 714.553 299.648 712.343 298.206L710.157 301.556ZM717.864 304.232C719.368 304.232 720.848 303.808 721.916 302.631L718.953 299.943C718.879 300.026 718.645 300.232 717.864 300.232V304.232ZM721.899 302.649C722.912 301.56 723.313 300.169 723.313 298.716H719.313C719.313 299.432 719.129 299.754 718.97 299.925L721.899 302.649ZM723.313 298.716C723.313 297.179 722.806 295.775 721.855 294.561L718.706 297.027C719.132 297.571 719.313 298.115 719.313 298.716H723.313ZM721.865 294.573C720.99 293.438 719.657 292.31 718.005 291.178L715.745 294.478C717.257 295.514 718.195 296.363 718.696 297.015L721.865 294.573ZM718.013 291.183C716.72 290.289 715.831 289.499 715.271 288.825L712.194 291.381C713.07 292.436 714.276 293.462 715.737 294.473L718.013 291.183ZM715.295 288.854C714.731 288.149 714.287 287.358 713.964 286.473L710.206 287.844C710.674 289.127 711.329 290.3 712.171 291.352L715.295 288.854ZM713.972 286.496C713.682 285.67 713.514 284.643 713.514 283.379H709.514C709.514 284.987 709.726 286.479 710.198 287.822L713.972 286.496ZM713.514 283.379C713.514 281.007 714.16 279.361 715.252 278.206L712.346 275.458C710.391 277.525 709.514 280.244 709.514 283.379H713.514ZM715.246 278.212C716.346 277.06 717.848 276.415 719.973 276.415V272.415C716.942 272.415 714.328 273.381 712.352 275.451L715.246 278.212ZM719.973 276.415C722.04 276.415 724.05 276.987 726.033 278.19L728.107 274.77C725.55 273.219 722.829 272.415 719.973 272.415V276.415ZM725.222 275.717L723.244 280.507L726.941 282.033L728.919 277.243L725.222 275.717ZM726.101 279.542C725.317 279.086 724.497 278.68 723.64 278.324L722.107 282.019C722.803 282.308 723.462 282.634 724.085 282.998L726.101 279.542ZM723.653 278.329C722.629 277.896 721.542 277.688 720.413 277.688V281.688C721.041 281.688 721.594 281.802 722.094 282.013L723.653 278.329ZM720.413 277.688C718.954 277.688 717.594 278.202 716.623 279.388L719.719 281.921C719.803 281.819 719.938 281.688 720.413 281.688V277.688ZM716.62 279.392C715.729 280.487 715.402 281.851 715.402 283.248H719.402C719.402 282.447 719.588 282.082 719.723 281.917L716.62 279.392ZM715.402 283.248C715.402 284.738 715.835 286.117 716.736 287.296L719.915 284.868C719.585 284.436 719.402 283.925 719.402 283.248H715.402ZM716.75 287.314C717.58 288.376 718.886 289.434 720.497 290.498L722.701 287.16C721.207 286.173 720.33 285.399 719.901 284.85L716.75 287.314ZM720.484 290.489C722.438 291.801 723.618 293.025 724.227 294.112L727.717 292.158C726.685 290.316 724.949 288.669 722.714 287.168L720.484 290.489ZM724.234 294.126C724.878 295.256 725.224 296.578 725.224 298.145H729.224C729.224 295.962 728.735 293.944 727.709 292.145L724.234 294.126Z" fill="black"/>
</g>
<defs>
<filter id="filter0_d_39_1878" x="686.999" y="132.5" width="229.001" height="59.0009" filterUnits="userSpaceOnUse" color-interpolation-filters="sRGB">
<feFlood flood-opacity="0" result="BackgroundImageFix"/>
<feColorMatrix in="SourceAlpha" type="matrix" values="0 0 0 0 0 0 0 0 0 0 0 0 0 0 0 0 0 0 127 0" result="hardAlpha"/>
<feOffset dy="4"/>
<feGaussianBlur stdDeviation="5"/>
<feComposite in2="hardAlpha" operator="out"/>
<feColorMatrix type="matrix" values="0 0 0 0 1 0 0 0 0 1 0 0 0 0 1 0 0 0 0.25 0"/>
<feBlend mode="normal" in2="BackgroundImageFix" result="effect1_dropShadow_39_1878"/>
<feBlend mode="normal" in="SourceGraphic" in2="effect1_dropShadow_39_1878" result="shape"/>
</filter>
<filter id="filter1_d_39_1878" x="925.938" y="102.438" width="86.125" height="86.125" filterUnits="userSpaceOnUse" color-interpolation-filters="sRGB">
<feFlood flood-opacity="0" result="BackgroundImageFix"/>
<feColorMatrix in="SourceAlpha" type="matrix" values="0 0 0 0 0 0 0 0 0 0 0 0 0 0 0 0 0 0 127 0" result="hardAlpha"/>
<feOffset dy="3"/>
<feGaussianBlur stdDeviation="2.5"/>
<feComposite in2="hardAlpha" operator="out"/>
<feColorMatrix type="matrix" values="0 0 0 0 0 0 0 0 0 0 0 0 0 0 0 0 0 0 0.25 0"/>
<feBlend mode="normal" in2="BackgroundImageFix" result="effect1_dropShadow_39_1878"/>
<feBlend mode="normal" in="SourceGraphic" in2="effect1_dropShadow_39_1878" result="shape"/>
</filter>
<filter id="filter2_d_39_1878" x="715.999" y="376.499" width="202.501" height="62.501" filterUnits="userSpaceOnUse" color-interpolation-filters="sRGB">
<feFlood flood-opacity="0" result="BackgroundImageFix"/>
<feColorMatrix in="SourceAlpha" type="matrix" values="0 0 0 0 0 0 0 0 0 0 0 0 0 0 0 0 0 0 127 0" result="hardAlpha"/>
<feOffset dy="4"/>
<feGaussianBlur stdDeviation="5"/>
<feComposite in2="hardAlpha" operator="out"/>
<feColorMatrix type="matrix" values="0 0 0 0 1 0 0 0 0 1 0 0 0 0 1 0 0 0 0.25 0"/>
<feBlend mode="normal" in2="BackgroundImageFix" result="effect1_dropShadow_39_1878"/>
<feBlend mode="normal" in="SourceGraphic" in2="effect1_dropShadow_39_1878" result="shape"/>
</filter>
<filter id="filter3_d_39_1878" x="752" y="272.5" width="204" height="27" filterUnits="userSpaceOnUse" color-interpolation-filters="sRGB">
<feFlood flood-opacity="0" result="BackgroundImageFix"/>
<feColorMatrix in="SourceAlpha" type="matrix" values="0 0 0 0 0 0 0 0 0 0 0 0 0 0 0 0 0 0 127 0" result="hardAlpha"/>
<feOffset dy="4"/>
<feGaussianBlur stdDeviation="5"/>
<feComposite in2="hardAlpha" operator="out"/>
<feColorMatrix type="matrix" values="0 0 0 0 1 0 0 0 0 1 0 0 0 0 1 0 0 0 0.25 0"/>
<feBlend mode="normal" in2="BackgroundImageFix" result="effect1_dropShadow_39_1878"/>
<feBlend mode="normal" in="SourceGraphic" in2="effect1_dropShadow_39_1878" result="shape"/>
</filter>
<filter id="filter4_d_39_1878" x="307" y="137.5" width="229.001" height="59.0009" filterUnits="userSpaceOnUse" color-interpolation-filters="sRGB">
<feFlood flood-opacity="0" result="BackgroundImageFix"/>
<feColorMatrix in="SourceAlpha" type="matrix" values="0 0 0 0 0 0 0 0 0 0 0 0 0 0 0 0 0 0 127 0" result="hardAlpha"/>
<feOffset dy="4"/>
<feGaussianBlur stdDeviation="5"/>
<feComposite in2="hardAlpha" operator="out"/>
<feColorMatrix type="matrix" values="0 0 0 0 1 0 0 0 0 1 0 0 0 0 1 0 0 0 0.25 0"/>
<feBlend mode="normal" in2="BackgroundImageFix" result="effect1_dropShadow_39_1878"/>
<feBlend mode="normal" in="SourceGraphic" in2="effect1_dropShadow_39_1878" result="shape"/>
</filter>
<filter id="filter5_d_39_1878" x="304.5" y="381.499" width="202.501" height="62.501" filterUnits="userSpaceOnUse" color-interpolation-filters="sRGB">
<feFlood flood-opacity="0" result="BackgroundImageFix"/>
<feColorMatrix in="SourceAlpha" type="matrix" values="0 0 0 0 0 0 0 0 0 0 0 0 0 0 0 0 0 0 127 0" result="hardAlpha"/>
<feOffset dy="4"/>
<feGaussianBlur stdDeviation="5"/>
<feComposite in2="hardAlpha" operator="out"/>
<feColorMatrix type="matrix" values="0 0 0 0 1 0 0 0 0 1 0 0 0 0 1 0 0 0 0.25 0"/>
<feBlend mode="normal" in2="BackgroundImageFix" result="effect1_dropShadow_39_1878"/>
<feBlend mode="normal" in="SourceGraphic" in2="effect1_dropShadow_39_1878" result="shape"/>
</filter>
<filter id="filter6_d_39_1878" x="267" y="277.5" width="204" height="27" filterUnits="userSpaceOnUse" color-interpolation-filters="sRGB">
<feFlood flood-opacity="0" result="BackgroundImageFix"/>
<feColorMatrix in="SourceAlpha" type="matrix" values="0 0 0 0 0 0 0 0 0 0 0 0 0 0 0 0 0 0 127 0" result="hardAlpha"/>
<feOffset dy="4"/>
<feGaussianBlur stdDeviation="5"/>
<feComposite in2="hardAlpha" operator="out"/>
<feColorMatrix type="matrix" values="0 0 0 0 1 0 0 0 0 1 0 0 0 0 1 0 0 0 0.25 0"/>
<feBlend mode="normal" in2="BackgroundImageFix" result="effect1_dropShadow_39_1878"/>
<feBlend mode="normal" in="SourceGraphic" in2="effect1_dropShadow_39_1878" result="shape"/>
</filter>
<filter id="filter7_d_39_1878" x="429.5" y="115" width="367" height="367" filterUnits="userSpaceOnUse" color-interpolation-filters="sRGB">
<feFlood flood-opacity="0" result="BackgroundImageFix"/>
<feColorMatrix in="SourceAlpha" type="matrix" values="0 0 0 0 0 0 0 0 0 0 0 0 0 0 0 0 0 0 127 0" result="hardAlpha"/>
<feOffset dy="4"/>
<feGaussianBlur stdDeviation="15"/>
<feComposite in2="hardAlpha" operator="out"/>
<feColorMatrix type="matrix" values="0 0 0 0 1 0 0 0 0 1 0 0 0 0 1 0 0 0 0.5 0"/>
<feBlend mode="normal" in2="BackgroundImageFix" result="effect1_dropShadow_39_1878"/>
<feBlend mode="normal" in="SourceGraphic" in2="effect1_dropShadow_39_1878" result="shape"/>
</filter>
<filter id="filter8_d_39_1878" x="465.5" y="152" width="293" height="292" filterUnits="userSpaceOnUse" color-interpolation-filters="sRGB">
<feFlood flood-opacity="0" result="BackgroundImageFix"/>
<feColorMatrix in="SourceAlpha" type="matrix" values="0 0 0 0 0 0 0 0 0 0 0 0 0 0 0 0 0 0 127 0" result="hardAlpha"/>
<feOffset dy="4"/>
<feGaussianBlur stdDeviation="10"/>
<feComposite in2="hardAlpha" operator="out"/>
<feColorMatrix type="matrix" values="0 0 0 0 0 0 0 0 0 0 0 0 0 0 0 0 0 0 0.25 0"/>
<feBlend mode="normal" in2="BackgroundImageFix" result="effect1_dropShadow_39_1878"/>
<feBlend mode="normal" in="SourceGraphic" in2="effect1_dropShadow_39_1878" result="shape"/>
</filter>
<filter id="filter9_d_39_1878" x="478.093" y="258.371" width="269.131" height="73.0688" filterUnits="userSpaceOnUse" color-interpolation-filters="sRGB">
<feFlood flood-opacity="0" result="BackgroundImageFix"/>
<feColorMatrix in="SourceAlpha" type="matrix" values="0 0 0 0 0 0 0 0 0 0 0 0 0 0 0 0 0 0 127 0" result="hardAlpha"/>
<feOffset dy="4"/>
<feGaussianBlur stdDeviation="10"/>
<feComposite in2="hardAlpha" operator="out"/>
<feColorMatrix type="matrix" values="0 0 0 0 0 0 0 0 0 0 0 0 0 0 0 0 0 0 0.5 0"/>
<feBlend mode="normal" in2="BackgroundImageFix" result="effect1_dropShadow_39_1878"/>
<feBlend mode="normal" in="SourceGraphic" in2="effect1_dropShadow_39_1878" result="shape"/>
</filter>
<linearGradient id="paint0_linear_39_1878" x1="716.5" y1="174" x2="942" y2="142" gradientUnits="userSpaceOnUse">
<stop stop-color="#74C72C"/>
<stop offset="1" stop-color="#DAAF0F"/>
</linearGradient>
<linearGradient id="paint1_linear_39_1878" x1="969.5" y1="104" x2="969.5" y2="185.5" gradientUnits="userSpaceOnUse">
<stop stop-color="#A81515"/>
<stop offset="0.479167" stop-color="#E76565"/>
<stop offset="1" stop-color="#AD1E1E"/>
</linearGradient>
<linearGradient id="paint2_linear_39_1878" x1="733" y1="391" x2="927" y2="430.5" gradientUnits="userSpaceOnUse">
<stop stop-color="#5428DC"/>
<stop offset="1" stop-color="#3C4ACB"/>
</linearGradient>
<linearGradient id="paint3_linear_39_1878" x1="969" y1="381" x2="969.5" y2="459" gradientUnits="userSpaceOnUse">
<stop stop-color="#B01D1D"/>
<stop offset="0.478131" stop-color="#D15A5A"/>
<stop offset="1" stop-color="#861919"/>
</linearGradient>
<linearGradient id="paint4_linear_39_1878" x1="769.049" y1="282" x2="980.566" y2="256.715" gradientUnits="userSpaceOnUse">
<stop stop-color="#2E5DC2"/>
<stop offset="1" stop-color="#409D79"/>
</linearGradient>
<linearGradient id="paint5_linear_39_1878" x1="1008.5" y1="244" x2="1008.5" y2="322" gradientUnits="userSpaceOnUse">
<stop stop-color="#B51919"/>
<stop offset="0.454643" stop-color="#D15F5F"/>
<stop offset="1" stop-color="#B42020"/>
</linearGradient>
<linearGradient id="paint6_linear_39_1878" x1="506.5" y1="179" x2="281" y2="147" gradientUnits="userSpaceOnUse">
<stop stop-color="#FF4124"/>
<stop offset="1" stop-color="#FD6E23"/>
</linearGradient>
<linearGradient id="paint7_linear_39_1878" x1="254.5" y1="109" x2="254.5" y2="190.5" gradientUnits="userSpaceOnUse">
<stop stop-color="#A81515"/>
<stop offset="0.479167" stop-color="#E76565"/>
<stop offset="1" stop-color="#AD1E1E"/>
</linearGradient>
<linearGradient id="paint8_linear_39_1878" x1="490" y1="396" x2="296" y2="435.5" gradientUnits="userSpaceOnUse">
<stop stop-color="#A60983"/>
<stop offset="1" stop-color="#6922BE"/>
</linearGradient>
<linearGradient id="paint9_linear_39_1878" x1="253" y1="386" x2="253.5" y2="464" gradientUnits="userSpaceOnUse">
<stop stop-color="#B01D1D"/>
<stop offset="0.478131" stop-color="#D15A5A"/>
<stop offset="1" stop-color="#861919"/>
</linearGradient>
<linearGradient id="paint10_linear_39_1878" x1="453.951" y1="287" x2="242.434" y2="261.715" gradientUnits="userSpaceOnUse">
<stop stop-color="#F00216"/>
<stop offset="1" stop-color="#CC054B"/>
</linearGradient>
<linearGradient id="paint11_linear_39_1878" x1="213.5" y1="249" x2="213.5" y2="327" gradientUnits="userSpaceOnUse">
<stop stop-color="#B51919"/>
<stop offset="0.454643" stop-color="#D15F5F"/>
<stop offset="1" stop-color="#B42020"/>
</linearGradient>
<radialGradient id="paint12_angular_39_1878" cx="0" cy="0" r="1" gradientUnits="userSpaceOnUse" gradientTransform="translate(613 294.5) rotate(141.782) scale(308.159)">
<stop offset="0.135917" stop-color="#FF0000"/>
<stop offset="0.281885" stop-color="#FF542F"/>
<stop offset="0.380208" stop-color="#F9A708"/>
<stop offset="0.450774" stop-color="#78CA26"/>
<stop offset="0.531259" stop-color="#177BB4"/>
<stop offset="0.704508" stop-color="#5627DB"/>
<stop offset="0.852067" stop-color="#3138F3"/>
<stop offset="1" stop-color="#A60983"/>
</radialGradient>
<linearGradient id="paint13_linear_39_1878" x1="612.5" y1="149" x2="612.5" y2="456.5" gradientUnits="userSpaceOnUse">
<stop stop-color="#610101"/>
<stop offset="0.477627" stop-color="#CA4436"/>
<stop offset="1" stop-color="#750D00"/>
</linearGradient>
<clipPath id="clip0_39_1878">
<rect width="87" height="87" fill="white" transform="translate(925.5 99)"/>
</clipPath>
</defs>
</svg>
