<svg width="318" height="198" viewBox="0 0 318 198" fill="none" xmlns="http://www.w3.org/2000/svg">
<path d="M204.588 14.168C203.814 14.168 203.062 14.0653 202.334 13.86C201.616 13.6453 201.037 13.37 200.598 13.034L201.368 11.326C201.788 11.634 202.288 11.8813 202.866 12.068C203.445 12.2547 204.024 12.348 204.602 12.348C205.246 12.348 205.722 12.2547 206.03 12.068C206.338 11.872 206.492 11.6153 206.492 11.298C206.492 11.0647 206.399 10.8733 206.212 10.724C206.035 10.5653 205.802 10.4393 205.512 10.346C205.232 10.2527 204.85 10.15 204.364 10.038C203.618 9.86067 203.006 9.68333 202.53 9.506C202.054 9.32867 201.644 9.044 201.298 8.652C200.962 8.26 200.794 7.73733 200.794 7.084C200.794 6.51467 200.948 6.00133 201.256 5.544C201.564 5.07733 202.026 4.70867 202.642 4.438C203.268 4.16733 204.028 4.032 204.924 4.032C205.55 4.032 206.161 4.10667 206.758 4.256C207.356 4.40533 207.878 4.62 208.326 4.9L207.626 6.622C206.721 6.10867 205.816 5.852 204.91 5.852C204.276 5.852 203.804 5.95467 203.496 6.16C203.198 6.36533 203.048 6.636 203.048 6.972C203.048 7.308 203.221 7.56 203.566 7.728C203.921 7.88667 204.458 8.04533 205.176 8.204C205.923 8.38133 206.534 8.55867 207.01 8.736C207.486 8.91333 207.892 9.19333 208.228 9.576C208.574 9.95867 208.746 10.4767 208.746 11.13C208.746 11.69 208.588 12.2033 208.27 12.67C207.962 13.1273 207.496 13.4913 206.87 13.762C206.245 14.0327 205.484 14.168 204.588 14.168ZM217.884 12.18V14H210.296V4.2H217.702V6.02H212.55V8.148H217.1V9.912H212.55V12.18H217.884ZM219.689 4.2H221.957V12.152H226.871V14H219.689V4.2ZM228.138 4.2H230.406V12.152H235.32V14H228.138V4.2ZM236.587 4.2H238.855V14H236.587V4.2ZM250.169 4.2V14H248.307L243.421 8.05V14H241.181V4.2H243.057L247.929 10.15V4.2H250.169ZM259.109 8.946H261.181V12.922C260.649 13.3233 260.033 13.6313 259.333 13.846C258.633 14.0607 257.929 14.168 257.219 14.168C256.202 14.168 255.287 13.9533 254.475 13.524C253.663 13.0853 253.024 12.4833 252.557 11.718C252.1 10.9433 251.871 10.0707 251.871 9.1C251.871 8.12933 252.1 7.26133 252.557 6.496C253.024 5.72133 253.668 5.11933 254.489 4.69C255.311 4.25133 256.235 4.032 257.261 4.032C258.12 4.032 258.899 4.17667 259.599 4.466C260.299 4.75533 260.887 5.17533 261.363 5.726L259.907 7.07C259.207 6.33267 258.363 5.964 257.373 5.964C256.748 5.964 256.193 6.09467 255.707 6.356C255.222 6.61733 254.844 6.986 254.573 7.462C254.303 7.938 254.167 8.484 254.167 9.1C254.167 9.70667 254.303 10.248 254.573 10.724C254.844 11.2 255.217 11.5733 255.693 11.844C256.179 12.1053 256.729 12.236 257.345 12.236C257.999 12.236 258.587 12.096 259.109 11.816V8.946ZM269.283 6.048H266.147V4.2H274.687V6.048H271.551V14H269.283V6.048ZM281.869 11.9H277.319L276.451 14H274.127L278.495 4.2H280.735L285.117 14H282.737L281.869 11.9ZM281.155 10.178L279.601 6.426L278.047 10.178H281.155ZM291.802 14L289.436 10.598L287.112 14H284.508L288.134 9.016L284.69 4.2H287.266L289.52 7.378L291.732 4.2H294.182L290.766 8.932L294.42 14H291.802ZM302.896 12.18V14H295.308V4.2H302.714V6.02H297.562V8.148H302.112V9.912H297.562V12.18H302.896ZM307.92 14.168C307.146 14.168 306.394 14.0653 305.666 13.86C304.948 13.6453 304.369 13.37 303.93 13.034L304.7 11.326C305.12 11.634 305.62 11.8813 306.198 12.068C306.777 12.2547 307.356 12.348 307.934 12.348C308.578 12.348 309.054 12.2547 309.362 12.068C309.67 11.872 309.824 11.6153 309.824 11.298C309.824 11.0647 309.731 10.8733 309.544 10.724C309.367 10.5653 309.134 10.4393 308.844 10.346C308.564 10.2527 308.182 10.15 307.696 10.038C306.95 9.86067 306.338 9.68333 305.862 9.506C305.386 9.32867 304.976 9.044 304.63 8.652C304.294 8.26 304.126 7.73733 304.126 7.084C304.126 6.51467 304.28 6.00133 304.588 5.544C304.896 5.07733 305.358 4.70867 305.974 4.438C306.6 4.16733 307.36 4.032 308.256 4.032C308.882 4.032 309.493 4.10667 310.09 4.256C310.688 4.40533 311.21 4.62 311.658 4.9L310.958 6.622C310.053 6.10867 309.148 5.852 308.242 5.852C307.608 5.852 307.136 5.95467 306.828 6.16C306.53 6.36533 306.38 6.636 306.38 6.972C306.38 7.308 306.553 7.56 306.898 7.728C307.253 7.88667 307.79 8.04533 308.508 8.204C309.255 8.38133 309.866 8.55867 310.342 8.736C310.818 8.91333 311.224 9.19333 311.56 9.576C311.906 9.95867 312.078 10.4767 312.078 11.13C312.078 11.69 311.92 12.2033 311.602 12.67C311.294 13.1273 310.828 13.4913 310.202 13.762C309.577 14.0327 308.816 14.168 307.92 14.168Z" fill="white"/>
<path d="M210.34 49.0326C204.542 49.0326 199.84 53.7342 199.84 59.5326C199.84 65.331 204.542 70.0326 210.34 70.0326C216.139 70.0326 220.84 65.331 220.84 59.5326C220.84 53.7342 216.139 49.0326 210.34 49.0326ZM210.863 64.6232L210.868 65.3662C210.868 65.4693 210.783 65.556 210.68 65.556H210.015C209.911 65.556 209.827 65.4717 209.827 65.3685V64.6326C207.746 64.4779 206.766 63.292 206.661 62.0029C206.651 61.8927 206.738 61.799 206.848 61.799H207.931C208.022 61.799 208.102 61.8646 208.116 61.9537C208.236 62.6967 208.815 63.2521 209.853 63.3904V60.0459L209.274 59.8982C208.048 59.6052 206.881 58.8412 206.881 57.2568C206.881 55.5482 208.179 54.6295 209.839 54.4677V53.6943C209.839 53.5912 209.923 53.5068 210.026 53.5068H210.685C210.788 53.5068 210.872 53.5912 210.872 53.6943V54.4607C212.478 54.6224 213.683 55.5599 213.823 57.0201C213.835 57.1302 213.748 57.2263 213.636 57.2263H212.583C212.49 57.2263 212.41 57.156 212.398 57.0646C212.304 56.3802 211.756 55.8224 210.863 55.7006V58.8482L211.458 58.9865C212.977 59.3615 214.011 60.0881 214.011 61.7146C214.011 63.4795 212.698 64.4638 210.863 64.6232ZM208.339 57.149C208.339 57.7443 208.707 58.206 209.499 58.492C209.609 58.5365 209.719 58.5717 209.85 58.6092V55.7029C208.986 55.8131 208.339 56.2982 208.339 57.149ZM211.069 60.3177C211.004 60.3037 210.938 60.2873 210.863 60.2662V63.3998C211.861 63.3107 212.55 62.7623 212.55 61.8435C212.55 61.124 212.178 60.6552 211.069 60.3177Z" fill="url(#paint0_linear_0_1)"/>
<path d="M236.628 51.1446C237.183 51.4219 237.604 51.7846 237.892 52.2326C238.191 52.6806 238.34 53.1979 238.34 53.7846C238.34 54.4779 238.143 55.0859 237.748 55.6086C237.354 56.1206 236.799 56.5206 236.084 56.8086C235.37 57.0859 234.543 57.2246 233.604 57.2246C232.666 57.2246 231.839 57.0859 231.124 56.8086C230.42 56.5206 229.871 56.1206 229.476 55.6086C229.092 55.0859 228.9 54.4779 228.9 53.7846C228.9 53.1979 229.044 52.6806 229.332 52.2326C229.631 51.7846 230.052 51.4219 230.596 51.1446C230.18 50.8886 229.86 50.5686 229.636 50.1846C229.412 49.7899 229.3 49.3419 229.3 48.8406C229.3 48.1899 229.482 47.6246 229.844 47.1446C230.207 46.6646 230.714 46.2966 231.364 46.0406C232.015 45.7739 232.762 45.6406 233.604 45.6406C234.458 45.6406 235.21 45.7739 235.86 46.0406C236.522 46.2966 237.034 46.6646 237.396 47.1446C237.759 47.6246 237.94 48.1899 237.94 48.8406C237.94 49.3419 237.828 49.7899 237.604 50.1846C237.38 50.5686 237.055 50.8886 236.628 51.1446ZM233.604 47.5446C233.082 47.5446 232.66 47.6726 232.34 47.9286C232.031 48.1739 231.876 48.5153 231.876 48.9526C231.876 49.3793 232.031 49.7153 232.34 49.9606C232.65 50.2059 233.071 50.3286 233.604 50.3286C234.138 50.3286 234.564 50.2059 234.884 49.9606C235.204 49.7153 235.364 49.3793 235.364 48.9526C235.364 48.5153 235.204 48.1739 234.884 47.9286C234.564 47.6726 234.138 47.5446 233.604 47.5446ZM233.604 55.3206C234.255 55.3206 234.767 55.1766 235.14 54.8886C235.524 54.5899 235.716 54.1953 235.716 53.7046C235.716 53.2139 235.524 52.8246 235.14 52.5366C234.767 52.2486 234.255 52.1046 233.604 52.1046C232.964 52.1046 232.458 52.2486 232.084 52.5366C231.711 52.8246 231.524 53.2139 231.524 53.7046C231.524 54.2059 231.711 54.6006 232.084 54.8886C232.458 55.1766 232.964 55.3206 233.604 55.3206ZM241.963 51.8806C241.141 51.8806 240.469 51.6033 239.947 51.0486C239.435 50.4833 239.179 49.7313 239.179 48.7926C239.179 47.8539 239.435 47.1073 239.947 46.5526C240.469 45.9873 241.141 45.7046 241.963 45.7046C242.784 45.7046 243.451 45.9873 243.963 46.5526C244.475 47.1073 244.731 47.8539 244.731 48.7926C244.731 49.7313 244.475 50.4833 243.963 51.0486C243.451 51.6033 242.784 51.8806 241.963 51.8806ZM248.635 45.8326H250.539L242.891 57.0326H240.987L248.635 45.8326ZM241.963 50.5686C242.325 50.5686 242.608 50.4193 242.811 50.1206C243.024 49.8219 243.131 49.3793 243.131 48.7926C243.131 48.2059 243.024 47.7633 242.811 47.4646C242.608 47.1659 242.325 47.0166 241.963 47.0166C241.611 47.0166 241.328 47.1713 241.115 47.4806C240.901 47.7793 240.795 48.2166 240.795 48.7926C240.795 49.3686 240.901 49.8113 241.115 50.1206C241.328 50.4193 241.611 50.5686 241.963 50.5686ZM249.563 57.1606C249.029 57.1606 248.549 57.0379 248.123 56.7926C247.707 56.5366 247.381 56.1739 247.147 55.7046C246.912 55.2353 246.795 54.6913 246.795 54.0726C246.795 53.4539 246.912 52.9099 247.147 52.4406C247.381 51.9713 247.707 51.6139 248.123 51.3686C248.549 51.1126 249.029 50.9846 249.563 50.9846C250.384 50.9846 251.051 51.2673 251.563 51.8326C252.085 52.3873 252.347 53.1339 252.347 54.0726C252.347 55.0113 252.085 55.7633 251.563 56.3286C251.051 56.8833 250.384 57.1606 249.563 57.1606ZM249.563 55.8486C249.925 55.8486 250.208 55.6993 250.411 55.4006C250.624 55.0913 250.731 54.6486 250.731 54.0726C250.731 53.4966 250.624 53.0593 250.411 52.7606C250.208 52.4513 249.925 52.2966 249.563 52.2966C249.211 52.2966 248.928 52.4459 248.715 52.7446C248.501 53.0433 248.395 53.4859 248.395 54.0726C248.395 54.6593 248.501 55.1019 248.715 55.4006C248.928 55.6993 249.211 55.8486 249.563 55.8486Z" fill="white"/>
<path d="M229.253 67.3326H231.035V73.5806H234.896V75.0326H229.253V67.3326ZM235.892 67.3326H237.674V75.0326H235.892V67.3326ZM247.828 75.8576C247.579 76.1656 247.275 76.4003 246.915 76.5616C246.563 76.7229 246.175 76.8036 245.749 76.8036C245.177 76.8036 244.66 76.6789 244.198 76.4296C243.736 76.1876 243.208 75.7549 242.614 75.1316C241.918 75.0436 241.294 74.8199 240.744 74.4606C240.202 74.1013 239.776 73.6393 239.468 73.0746C239.168 72.5026 239.017 71.8719 239.017 71.1826C239.017 70.4273 239.197 69.7489 239.556 69.1476C239.923 68.5389 240.425 68.0623 241.063 67.7176C241.709 67.3729 242.431 67.2006 243.23 67.2006C244.03 67.2006 244.748 67.3729 245.386 67.7176C246.024 68.0623 246.527 68.5389 246.893 69.1476C247.26 69.7489 247.443 70.4273 247.443 71.1826C247.443 72.0773 247.19 72.8619 246.684 73.5366C246.186 74.2113 245.522 74.6806 244.693 74.9446C244.877 75.1353 245.053 75.2709 245.221 75.3516C245.397 75.4396 245.584 75.4836 245.782 75.4836C246.259 75.4836 246.677 75.2929 247.036 74.9116L247.828 75.8576ZM240.821 71.1826C240.821 71.6593 240.924 72.0846 241.129 72.4586C241.342 72.8326 241.632 73.1259 241.998 73.3386C242.365 73.5439 242.776 73.6466 243.23 73.6466C243.685 73.6466 244.096 73.5439 244.462 73.3386C244.829 73.1259 245.115 72.8326 245.32 72.4586C245.533 72.0846 245.639 71.6593 245.639 71.1826C245.639 70.7059 245.533 70.2806 245.32 69.9066C245.115 69.5326 244.829 69.2429 244.462 69.0376C244.096 68.8249 243.685 68.7186 243.23 68.7186C242.776 68.7186 242.365 68.8249 241.998 69.0376C241.632 69.2429 241.342 69.5326 241.129 69.9066C240.924 70.2806 240.821 70.7059 240.821 71.1826ZM252.204 75.1646C251.104 75.1646 250.246 74.8603 249.63 74.2516C249.021 73.6429 248.717 72.7739 248.717 71.6446V67.3326H250.499V71.5786C250.499 72.9573 251.071 73.6466 252.215 73.6466C252.772 73.6466 253.197 73.4816 253.491 73.1516C253.784 72.8143 253.931 72.2899 253.931 71.5786V67.3326H255.691V71.6446C255.691 72.7739 255.383 73.6429 254.767 74.2516C254.158 74.8603 253.304 75.1646 252.204 75.1646ZM257.452 67.3326H259.234V75.0326H257.452V67.3326ZM261.061 67.3326H264.559C265.395 67.3326 266.132 67.4939 266.77 67.8166C267.415 68.1319 267.914 68.5793 268.266 69.1586C268.625 69.7379 268.805 70.4126 268.805 71.1826C268.805 71.9526 268.625 72.6273 268.266 73.2066C267.914 73.7859 267.415 74.2369 266.77 74.5596C266.132 74.8749 265.395 75.0326 264.559 75.0326H261.061V67.3326ZM264.471 73.5696C265.241 73.5696 265.853 73.3569 266.308 72.9316C266.77 72.4989 267.001 71.9159 267.001 71.1826C267.001 70.4493 266.77 69.8699 266.308 69.4446C265.853 69.0119 265.241 68.7956 264.471 68.7956H262.843V73.5696H264.471ZM270.149 67.3326H271.931V75.0326H270.149V67.3326ZM275.353 68.7846H272.889V67.3326H279.599V68.7846H277.135V75.0326H275.353V68.7846ZM284.114 72.3046V75.0326H282.332V72.2826L279.351 67.3326H281.243L283.3 70.7536L285.357 67.3326H287.106L284.114 72.3046Z" fill="white"/>
<path d="M17.5565 8.904C18.1165 9.08133 18.5552 9.38 18.8725 9.8C19.1898 10.2107 19.3485 10.7193 19.3485 11.326C19.3485 12.1847 19.0125 12.8473 18.3405 13.314C17.6778 13.7713 16.7072 14 15.4285 14H10.3605V4.2H15.1485C16.3432 4.2 17.2578 4.42867 17.8925 4.886C18.5365 5.34333 18.8585 5.964 18.8585 6.748C18.8585 7.224 18.7418 7.64867 18.5085 8.022C18.2845 8.39533 17.9672 8.68933 17.5565 8.904ZM12.6145 5.908V8.218H14.8685C15.4285 8.218 15.8532 8.12 16.1425 7.924C16.4318 7.728 16.5765 7.43867 16.5765 7.056C16.5765 6.67333 16.4318 6.38867 16.1425 6.202C15.8532 6.006 15.4285 5.908 14.8685 5.908H12.6145ZM15.2605 12.292C15.8578 12.292 16.3058 12.194 16.6045 11.998C16.9125 11.802 17.0665 11.4987 17.0665 11.088C17.0665 10.276 16.4645 9.87 15.2605 9.87H12.6145V12.292H15.2605ZM25.4196 14.168C24.0196 14.168 22.9276 13.7807 22.1436 13.006C21.3689 12.2313 20.9816 11.1253 20.9816 9.688V4.2H23.2496V9.604C23.2496 11.3587 23.9776 12.236 25.4336 12.236C26.1429 12.236 26.6842 12.026 27.0576 11.606C27.4309 11.1767 27.6176 10.5093 27.6176 9.604V4.2H29.8576V9.688C29.8576 11.1253 29.4656 12.2313 28.6816 13.006C27.9069 13.7807 26.8196 14.168 25.4196 14.168ZM36.666 10.528V14H34.398V10.5L30.604 4.2H33.012L35.63 8.554L38.248 4.2H40.474L36.666 10.528ZM41.3273 4.2H43.5953V14H41.3273V4.2ZM54.909 4.2V14H53.047L48.161 8.05V14H45.921V4.2H47.797L52.669 10.15V4.2H54.909ZM63.8497 8.946H65.9217V12.922C65.3897 13.3233 64.7737 13.6313 64.0737 13.846C63.3737 14.0607 62.669 14.168 61.9597 14.168C60.9423 14.168 60.0277 13.9533 59.2157 13.524C58.4037 13.0853 57.7643 12.4833 57.2977 11.718C56.8403 10.9433 56.6117 10.0707 56.6117 9.1C56.6117 8.12933 56.8403 7.26133 57.2977 6.496C57.7643 5.72133 58.4083 5.11933 59.2297 4.69C60.051 4.25133 60.975 4.032 62.0017 4.032C62.8603 4.032 63.6397 4.17667 64.3397 4.466C65.0397 4.75533 65.6277 5.17533 66.1037 5.726L64.6477 7.07C63.9477 6.33267 63.103 5.964 62.1137 5.964C61.4883 5.964 60.933 6.09467 60.4477 6.356C59.9623 6.61733 59.5843 6.986 59.3137 7.462C59.043 7.938 58.9077 8.484 58.9077 9.1C58.9077 9.70667 59.043 10.248 59.3137 10.724C59.5843 11.2 59.9577 11.5733 60.4337 11.844C60.919 12.1053 61.4697 12.236 62.0857 12.236C62.739 12.236 63.327 12.096 63.8497 11.816V8.946ZM74.0233 6.048H70.8873V4.2H79.4273V6.048H76.2913V14H74.0233V6.048ZM86.6094 11.9H82.0594L81.1914 14H78.8674L83.2354 4.2H85.4754L89.8574 14H87.4774L86.6094 11.9ZM85.8954 10.178L84.3414 6.426L82.7874 10.178H85.8954ZM96.5423 14L94.1763 10.598L91.8523 14H89.2483L92.8743 9.016L89.4303 4.2H92.0063L94.2603 7.378L96.4723 4.2H98.9223L95.5063 8.932L99.1603 14H96.5423ZM107.636 12.18V14H100.048V4.2H107.454V6.02H102.302V8.148H106.852V9.912H102.302V12.18H107.636ZM112.661 14.168C111.886 14.168 111.135 14.0653 110.407 13.86C109.688 13.6453 109.109 13.37 108.671 13.034L109.441 11.326C109.861 11.634 110.36 11.8813 110.939 12.068C111.517 12.2547 112.096 12.348 112.675 12.348C113.319 12.348 113.795 12.2547 114.103 12.068C114.411 11.872 114.565 11.6153 114.565 11.298C114.565 11.0647 114.471 10.8733 114.285 10.724C114.107 10.5653 113.874 10.4393 113.585 10.346C113.305 10.2527 112.922 10.15 112.437 10.038C111.69 9.86067 111.079 9.68333 110.603 9.506C110.127 9.32867 109.716 9.044 109.371 8.652C109.035 8.26 108.867 7.73733 108.867 7.084C108.867 6.51467 109.021 6.00133 109.329 5.544C109.637 5.07733 110.099 4.70867 110.715 4.438C111.34 4.16733 112.101 4.032 112.997 4.032C113.622 4.032 114.233 4.10667 114.831 4.256C115.428 4.40533 115.951 4.62 116.399 4.9L115.699 6.622C114.793 6.10867 113.888 5.852 112.983 5.852C112.348 5.852 111.877 5.95467 111.569 6.16C111.27 6.36533 111.121 6.636 111.121 6.972C111.121 7.308 111.293 7.56 111.639 7.728C111.993 7.88667 112.53 8.04533 113.249 8.204C113.995 8.38133 114.607 8.55867 115.083 8.736C115.559 8.91333 115.965 9.19333 116.301 9.576C116.646 9.95867 116.819 10.4767 116.819 11.13C116.819 11.69 116.66 12.2033 116.343 12.67C116.035 13.1273 115.568 13.4913 114.943 13.762C114.317 14.0327 113.557 14.168 112.661 14.168Z" fill="white"/>
<g filter="url(#filter0_d_0_1)">
<path d="M150.203 94L135.151 59H123.203" stroke="url(#paint1_linear_0_1)" stroke-width="3" stroke-linecap="round"/>
</g>
<g filter="url(#filter1_d_0_1)">
<path d="M167.203 94L182.254 59H194.203" stroke="url(#paint2_linear_0_1)" stroke-width="3" stroke-linecap="round"/>
</g>
<path d="M107.06 50.1768C101.262 50.1768 96.5601 54.8783 96.5601 60.6768C96.5601 66.4752 101.262 71.1768 107.06 71.1768C112.858 71.1768 117.56 66.4752 117.56 60.6768C117.56 54.8783 112.858 50.1768 107.06 50.1768ZM107.583 65.7674L107.587 66.5104C107.587 66.6135 107.503 66.7002 107.4 66.7002H106.734C106.631 66.7002 106.547 66.6158 106.547 66.5127V65.7768C104.466 65.6221 103.486 64.4361 103.38 63.1471C103.371 63.0369 103.458 62.9432 103.568 62.9432H104.651C104.742 62.9432 104.822 63.0088 104.836 63.0979C104.955 63.8408 105.534 64.3963 106.573 64.5346V61.19L105.994 61.0424C104.768 60.7494 103.601 59.9854 103.601 58.401C103.601 56.6924 104.899 55.7736 106.558 55.6119V54.8385C106.558 54.7354 106.643 54.651 106.746 54.651H107.405C107.508 54.651 107.592 54.7354 107.592 54.8385V55.6049C109.198 55.7666 110.402 56.7041 110.543 58.1643C110.555 58.2744 110.468 58.3705 110.355 58.3705H109.303C109.209 58.3705 109.13 58.3002 109.118 58.2088C109.024 57.5244 108.476 56.9666 107.583 56.8447V59.9924L108.178 60.1307C109.697 60.5057 110.73 61.2322 110.73 62.8588C110.73 64.6236 109.418 65.608 107.583 65.7674ZM105.058 58.2932C105.058 58.8885 105.426 59.3502 106.219 59.6361C106.329 59.6807 106.439 59.7158 106.57 59.7533V56.8471C105.705 56.9572 105.058 57.4424 105.058 58.2932ZM107.789 61.4619C107.723 61.4479 107.658 61.4314 107.583 61.4104V64.5439C108.581 64.4549 109.27 63.9064 109.27 62.9877C109.27 62.2682 108.898 61.7994 107.789 61.4619Z" fill="url(#paint3_linear_0_1)"/>
<path d="M70.1334 51.1848C71.7121 51.1848 72.8748 51.4994 73.6214 52.1288C74.3788 52.7581 74.7574 53.6008 74.7574 54.6568C74.7574 55.3394 74.5868 55.9634 74.2454 56.5288C73.9041 57.0834 73.3814 57.5314 72.6774 57.8728C71.9841 58.2034 71.1254 58.3688 70.1014 58.3688C69.3121 58.3688 68.5334 58.2674 67.7654 58.0648C67.0081 57.8514 66.3628 57.5528 65.8294 57.1688L66.8534 55.1848C67.2801 55.5048 67.7708 55.7554 68.3254 55.9368C68.8801 56.1074 69.4508 56.1928 70.0374 56.1928C70.6881 56.1928 71.2001 56.0648 71.5734 55.8088C71.9468 55.5528 72.1334 55.1954 72.1334 54.7368C72.1334 54.2568 71.9361 53.8941 71.5414 53.6488C71.1574 53.4034 70.4854 53.2808 69.5254 53.2808H66.6614L67.2374 46.9768H74.0694V49.0568H69.3974L69.2214 51.1848H70.1334ZM78.2448 53.0248C77.4235 53.0248 76.7515 52.7474 76.2288 52.1928C75.7168 51.6274 75.4608 50.8754 75.4608 49.9368C75.4608 48.9981 75.7168 48.2514 76.2288 47.6968C76.7515 47.1314 77.4235 46.8488 78.2448 46.8488C79.0661 46.8488 79.7328 47.1314 80.2448 47.6968C80.7568 48.2514 81.0128 48.9981 81.0128 49.9368C81.0128 50.8754 80.7568 51.6274 80.2448 52.1928C79.7328 52.7474 79.0661 53.0248 78.2448 53.0248ZM84.9168 46.9768H86.8208L79.1728 58.1768H77.2688L84.9168 46.9768ZM78.2448 51.7128C78.6075 51.7128 78.8901 51.5634 79.0928 51.2648C79.3061 50.9661 79.4128 50.5234 79.4128 49.9368C79.4128 49.3501 79.3061 48.9074 79.0928 48.6088C78.8901 48.3101 78.6075 48.1608 78.2448 48.1608C77.8928 48.1608 77.6101 48.3154 77.3968 48.6248C77.1835 48.9234 77.0768 49.3608 77.0768 49.9368C77.0768 50.5128 77.1835 50.9554 77.3968 51.2648C77.6101 51.5634 77.8928 51.7128 78.2448 51.7128ZM85.8448 58.3048C85.3115 58.3048 84.8315 58.1821 84.4048 57.9368C83.9888 57.6808 83.6635 57.3181 83.4288 56.8488C83.1941 56.3794 83.0768 55.8354 83.0768 55.2168C83.0768 54.5981 83.1941 54.0541 83.4288 53.5848C83.6635 53.1154 83.9888 52.7581 84.4048 52.5128C84.8315 52.2568 85.3115 52.1288 85.8448 52.1288C86.6661 52.1288 87.3328 52.4114 87.8448 52.9768C88.3675 53.5314 88.6288 54.2781 88.6288 55.2168C88.6288 56.1554 88.3675 56.9074 87.8448 57.4728C87.3328 58.0274 86.6661 58.3048 85.8448 58.3048ZM85.8448 56.9928C86.2075 56.9928 86.4901 56.8434 86.6928 56.5448C86.9061 56.2354 87.0128 55.7928 87.0128 55.2168C87.0128 54.6408 86.9061 54.2034 86.6928 53.9048C86.4901 53.5954 86.2075 53.4408 85.8448 53.4408C85.4928 53.4408 85.2101 53.5901 84.9968 53.8888C84.7835 54.1874 84.6768 54.6301 84.6768 55.2168C84.6768 55.8034 84.7835 56.2461 84.9968 56.5448C85.2101 56.8434 85.4928 56.9928 85.8448 56.9928Z" fill="white"/>
<path d="M31.3744 68.4768H33.1564V74.7248H37.0174V76.1768H31.3744V68.4768ZM38.0131 68.4768H39.7951V76.1768H38.0131V68.4768ZM49.9495 77.0018C49.7001 77.3098 49.3958 77.5444 49.0365 77.7058C48.6845 77.8671 48.2958 77.9478 47.8705 77.9478C47.2985 77.9478 46.7815 77.8231 46.3195 77.5738C45.8575 77.3318 45.3295 76.8991 44.7355 76.2758C44.0388 76.1878 43.4155 75.9641 42.8655 75.6048C42.3228 75.2454 41.8975 74.7834 41.5895 74.2188C41.2888 73.6468 41.1385 73.0161 41.1385 72.3268C41.1385 71.5714 41.3181 70.8931 41.6775 70.2918C42.0441 69.6831 42.5465 69.2064 43.1845 68.8618C43.8298 68.5171 44.5521 68.3448 45.3515 68.3448C46.1508 68.3448 46.8695 68.5171 47.5075 68.8618C48.1455 69.2064 48.6478 69.6831 49.0145 70.2918C49.3811 70.8931 49.5645 71.5714 49.5645 72.3268C49.5645 73.2214 49.3115 74.0061 48.8055 74.6808C48.3068 75.3554 47.6431 75.8248 46.8145 76.0888C46.9978 76.2794 47.1738 76.4151 47.3425 76.4958C47.5185 76.5838 47.7055 76.6278 47.9035 76.6278C48.3801 76.6278 48.7981 76.4371 49.1575 76.0558L49.9495 77.0018ZM42.9425 72.3268C42.9425 72.8034 43.0451 73.2288 43.2505 73.6028C43.4631 73.9768 43.7528 74.2701 44.1195 74.4828C44.4861 74.6881 44.8968 74.7908 45.3515 74.7908C45.8061 74.7908 46.2168 74.6881 46.5835 74.4828C46.9501 74.2701 47.2361 73.9768 47.4415 73.6028C47.6541 73.2288 47.7605 72.8034 47.7605 72.3268C47.7605 71.8501 47.6541 71.4248 47.4415 71.0508C47.2361 70.6768 46.9501 70.3871 46.5835 70.1818C46.2168 69.9691 45.8061 69.8628 45.3515 69.8628C44.8968 69.8628 44.4861 69.9691 44.1195 70.1818C43.7528 70.3871 43.4631 70.6768 43.2505 71.0508C43.0451 71.4248 42.9425 71.8501 42.9425 72.3268ZM54.3247 76.3088C53.2247 76.3088 52.3667 76.0044 51.7507 75.3958C51.1421 74.7871 50.8377 73.9181 50.8377 72.7888V68.4768H52.6197V72.7228C52.6197 74.1014 53.1917 74.7908 54.3357 74.7908C54.8931 74.7908 55.3184 74.6258 55.6117 74.2958C55.9051 73.9584 56.0517 73.4341 56.0517 72.7228V68.4768H57.8117V72.7888C57.8117 73.9181 57.5037 74.7871 56.8877 75.3958C56.2791 76.0044 55.4247 76.3088 54.3247 76.3088ZM59.5727 68.4768H61.3547V76.1768H59.5727V68.4768ZM63.182 68.4768H66.68C67.516 68.4768 68.253 68.6381 68.891 68.9608C69.5364 69.2761 70.035 69.7234 70.387 70.3028C70.7464 70.8821 70.926 71.5568 70.926 72.3268C70.926 73.0968 70.7464 73.7714 70.387 74.3508C70.035 74.9301 69.5364 75.3811 68.891 75.7038C68.253 76.0191 67.516 76.1768 66.68 76.1768H63.182V68.4768ZM66.592 74.7138C67.362 74.7138 67.9744 74.5011 68.429 74.0758C68.891 73.6431 69.122 73.0601 69.122 72.3268C69.122 71.5934 68.891 71.0141 68.429 70.5888C67.9744 70.1561 67.362 69.9398 66.592 69.9398H64.964V74.7138H66.592ZM72.2699 68.4768H74.0519V76.1768H72.2699V68.4768ZM77.4743 69.9288H75.0103V68.4768H81.7203V69.9288H79.2563V76.1768H77.4743V69.9288ZM86.2355 73.4488V76.1768H84.4535V73.4268L81.4725 68.4768H83.3645L85.4215 71.8978L87.4785 68.4768H89.2275L86.2355 73.4488Z" fill="white"/>
<g filter="url(#filter2_d_0_1)">
<path d="M150.203 136L134.612 181H124.203" stroke="url(#paint4_linear_0_1)" stroke-width="3" stroke-linecap="round"/>
</g>
<ellipse cx="209.26" cy="178.455" rx="10.7586" ry="10.7586" fill="url(#paint5_linear_0_1)"/>
<g clip-path="url(#clip0_0_1)">
<path d="M212.438 173.696C212.894 173.696 213.331 173.877 213.653 174.199C213.975 174.522 214.156 174.959 214.156 175.414V177.926C213.95 177.652 213.677 177.435 213.363 177.298V176.604H205.432V181.495C205.432 182.006 205.847 182.42 206.357 182.42H209.413C209.445 182.696 209.528 182.964 209.656 183.213H206.357C205.902 183.213 205.464 183.032 205.142 182.71C204.82 182.388 204.639 181.951 204.639 181.495V175.414C204.639 174.959 204.82 174.522 205.142 174.199C205.464 173.877 205.902 173.696 206.357 173.696H212.438ZM212.438 174.489H206.357C206.112 174.489 205.877 174.587 205.703 174.76C205.53 174.934 205.432 175.169 205.432 175.414V175.811H213.363V175.414C213.363 175.169 213.266 174.934 213.092 174.76C212.919 174.587 212.683 174.489 212.438 174.489Z" fill="black"/>
<path d="M215.214 181.891C215.214 181.681 215.13 181.479 214.981 181.331C214.833 181.182 214.631 181.098 214.421 181.098H210.719C210.509 181.098 210.307 181.182 210.159 181.331C210.01 181.479 209.926 181.681 209.926 181.891V182.156C209.926 183.198 210.91 184.271 212.57 184.271C214.23 184.271 215.214 183.198 215.214 182.156V181.891Z" fill="black"/>
<path d="M214.024 179.116C214.024 178.73 213.871 178.36 213.598 178.087C213.325 177.815 212.956 177.662 212.57 177.662C212.184 177.662 211.815 177.815 211.542 178.087C211.269 178.36 211.116 178.73 211.116 179.116C211.116 179.501 211.269 179.871 211.542 180.144C211.815 180.416 212.184 180.57 212.57 180.57C212.956 180.57 213.325 180.416 213.598 180.144C213.871 179.871 214.024 179.501 214.024 179.116Z" fill="black"/>
</g>
<path d="M233.253 169.177C234.235 169.337 234.987 169.705 235.509 170.281C236.032 170.846 236.293 171.55 236.293 172.393C236.293 173.043 236.123 173.646 235.781 174.201C235.44 174.745 234.917 175.182 234.213 175.513C233.52 175.843 232.667 176.009 231.653 176.009C230.864 176.009 230.085 175.907 229.317 175.705C228.56 175.491 227.915 175.193 227.381 174.809L228.389 172.825C228.816 173.145 229.307 173.395 229.861 173.577C230.427 173.747 231.003 173.833 231.589 173.833C232.24 173.833 232.752 173.71 233.125 173.465C233.499 173.209 233.685 172.851 233.685 172.393C233.685 171.475 232.987 171.017 231.589 171.017H230.405V169.305L232.709 166.697H227.941V164.617H235.781V166.297L233.253 169.177ZM239.926 170.665C239.105 170.665 238.433 170.387 237.91 169.833C237.398 169.267 237.142 168.515 237.142 167.577C237.142 166.638 237.398 165.891 237.91 165.337C238.433 164.771 239.105 164.489 239.926 164.489C240.747 164.489 241.414 164.771 241.926 165.337C242.438 165.891 242.694 166.638 242.694 167.577C242.694 168.515 242.438 169.267 241.926 169.833C241.414 170.387 240.747 170.665 239.926 170.665ZM246.598 164.617H248.502L240.854 175.817H238.95L246.598 164.617ZM239.926 169.353C240.289 169.353 240.571 169.203 240.774 168.905C240.987 168.606 241.094 168.163 241.094 167.577C241.094 166.99 240.987 166.547 240.774 166.249C240.571 165.95 240.289 165.801 239.926 165.801C239.574 165.801 239.291 165.955 239.078 166.265C238.865 166.563 238.758 167.001 238.758 167.577C238.758 168.153 238.865 168.595 239.078 168.905C239.291 169.203 239.574 169.353 239.926 169.353ZM247.526 175.945C246.993 175.945 246.513 175.822 246.086 175.577C245.67 175.321 245.345 174.958 245.11 174.489C244.875 174.019 244.758 173.475 244.758 172.857C244.758 172.238 244.875 171.694 245.11 171.225C245.345 170.755 245.67 170.398 246.086 170.153C246.513 169.897 246.993 169.769 247.526 169.769C248.347 169.769 249.014 170.051 249.526 170.617C250.049 171.171 250.31 171.918 250.31 172.857C250.31 173.795 250.049 174.547 249.526 175.113C249.014 175.667 248.347 175.945 247.526 175.945ZM247.526 174.633C247.889 174.633 248.171 174.483 248.374 174.185C248.587 173.875 248.694 173.433 248.694 172.857C248.694 172.281 248.587 171.843 248.374 171.545C248.171 171.235 247.889 171.081 247.526 171.081C247.174 171.081 246.891 171.23 246.678 171.529C246.465 171.827 246.358 172.27 246.358 172.857C246.358 173.443 246.465 173.886 246.678 174.185C246.891 174.483 247.174 174.633 247.526 174.633Z" fill="white"/>
<path d="M228.31 186.117H231.808C232.644 186.117 233.381 186.278 234.019 186.601C234.665 186.916 235.163 187.363 235.515 187.943C235.875 188.522 236.054 189.197 236.054 189.967C236.054 190.737 235.875 191.411 235.515 191.991C235.163 192.57 234.665 193.021 234.019 193.344C233.381 193.659 232.644 193.817 231.808 193.817H228.31V186.117ZM231.72 192.354C232.49 192.354 233.103 192.141 233.557 191.716C234.019 191.283 234.25 190.7 234.25 189.967C234.25 189.233 234.019 188.654 233.557 188.229C233.103 187.796 232.49 187.58 231.72 187.58H230.092V192.354H231.72ZM243.36 192.387V193.817H237.398V186.117H243.217V187.547H239.169V189.219H242.744V190.605H239.169V192.387H243.36ZM252.074 186.117L248.741 193.817H246.981L243.659 186.117H245.584L247.927 191.617L250.303 186.117H252.074ZM258.679 192.387V193.817H252.717V186.117H258.536V187.547H254.488V189.219H258.063V190.605H254.488V192.387H258.679ZM260.097 186.117H261.879V192.365H265.74V193.817H260.097V186.117ZM270.335 193.949C269.536 193.949 268.814 193.776 268.168 193.432C267.53 193.087 267.028 192.614 266.661 192.013C266.302 191.404 266.122 190.722 266.122 189.967C266.122 189.211 266.302 188.533 266.661 187.932C267.028 187.323 267.53 186.846 268.168 186.502C268.814 186.157 269.536 185.985 270.335 185.985C271.135 185.985 271.853 186.157 272.491 186.502C273.129 186.846 273.632 187.323 273.998 187.932C274.365 188.533 274.548 189.211 274.548 189.967C274.548 190.722 274.365 191.404 273.998 192.013C273.632 192.614 273.129 193.087 272.491 193.432C271.853 193.776 271.135 193.949 270.335 193.949ZM270.335 192.431C270.79 192.431 271.201 192.328 271.567 192.123C271.934 191.91 272.22 191.617 272.425 191.243C272.638 190.869 272.744 190.443 272.744 189.967C272.744 189.49 272.638 189.065 272.425 188.691C272.22 188.317 271.934 188.027 271.567 187.822C271.201 187.609 270.79 187.503 270.335 187.503C269.881 187.503 269.47 187.609 269.103 187.822C268.737 188.027 268.447 188.317 268.234 188.691C268.029 189.065 267.926 189.49 267.926 189.967C267.926 190.443 268.029 190.869 268.234 191.243C268.447 191.617 268.737 191.91 269.103 192.123C269.47 192.328 269.881 192.431 270.335 192.431ZM282.895 193.817L282.884 189.197L280.618 193.003H279.815L277.56 189.296V193.817H275.888V186.117H277.362L280.244 190.902L283.082 186.117H284.545L284.567 193.817H282.895ZM289.726 186.117C290.408 186.117 290.999 186.23 291.497 186.458C292.003 186.685 292.392 187.008 292.663 187.426C292.935 187.844 293.07 188.339 293.07 188.911C293.07 189.475 292.935 189.97 292.663 190.396C292.392 190.814 292.003 191.136 291.497 191.364C290.999 191.584 290.408 191.694 289.726 191.694H288.175V193.817H286.393V186.117H289.726ZM289.627 190.242C290.163 190.242 290.57 190.128 290.848 189.901C291.127 189.666 291.266 189.336 291.266 188.911C291.266 188.478 291.127 188.148 290.848 187.921C290.57 187.686 290.163 187.569 289.627 187.569H288.175V190.242H289.627ZM300.305 192.387V193.817H294.343V186.117H300.162V187.547H296.114V189.219H299.689V190.605H296.114V192.387H300.305ZM308.785 186.117V193.817H307.322L303.483 189.142V193.817H301.723V186.117H303.197L307.025 190.792V186.117H308.785ZM312.201 187.569H309.737V186.117H316.447V187.569H313.983V193.817H312.201V187.569Z" fill="white"/>
<g filter="url(#filter3_d_0_1)">
<path d="M167.203 136L182.794 181H193.203" stroke="url(#paint6_linear_0_1)" stroke-width="3" stroke-linecap="round"/>
</g>
<ellipse cx="107.862" cy="179.599" rx="10.7586" ry="10.7586" fill="url(#paint7_linear_0_1)"/>
<g clip-path="url(#clip1_0_1)">
<path d="M111.04 174.84C111.496 174.84 111.933 175.021 112.255 175.344C112.577 175.666 112.758 176.103 112.758 176.559V179.07C112.553 178.796 112.279 178.58 111.965 178.442V177.748H104.034V182.639C104.034 183.15 104.449 183.564 104.96 183.564H108.016C108.047 183.84 108.13 184.108 108.258 184.357H104.96C104.504 184.357 104.067 184.176 103.745 183.854C103.422 183.532 103.241 183.095 103.241 182.639V176.559C103.241 176.103 103.422 175.666 103.745 175.344C104.067 175.021 104.504 174.84 104.96 174.84H111.04ZM111.04 175.633H104.96C104.714 175.633 104.479 175.731 104.305 175.904C104.132 176.078 104.034 176.313 104.034 176.559V176.955H111.965V176.559C111.965 176.313 111.868 176.078 111.694 175.904C111.521 175.731 111.285 175.633 111.04 175.633Z" fill="black"/>
<path d="M113.816 183.036C113.816 182.825 113.732 182.624 113.584 182.475C113.435 182.326 113.233 182.242 113.023 182.242H109.322C109.111 182.242 108.91 182.326 108.761 182.475C108.612 182.624 108.529 182.825 108.529 183.036V183.3C108.529 184.342 109.512 185.415 111.172 185.415C112.832 185.415 113.816 184.342 113.816 183.3V183.036Z" fill="black"/>
<path d="M112.626 180.26C112.626 179.874 112.473 179.504 112.2 179.232C111.928 178.959 111.558 178.806 111.172 178.806C110.787 178.806 110.417 178.959 110.144 179.232C109.871 179.504 109.718 179.874 109.718 180.26C109.718 180.645 109.871 181.015 110.144 181.288C110.417 181.561 110.787 181.714 111.172 181.714C111.558 181.714 111.928 181.561 112.2 181.288C112.473 181.015 112.626 180.645 112.626 180.26Z" fill="black"/>
</g>
<path d="M72.512 170.321C73.4933 170.481 74.2453 170.849 74.768 171.425C75.2907 171.99 75.552 172.694 75.552 173.537C75.552 174.188 75.3813 174.79 75.04 175.345C74.6987 175.889 74.176 176.326 73.472 176.657C72.7787 176.988 71.9253 177.153 70.912 177.153C70.1227 177.153 69.344 177.052 68.576 176.849C67.8187 176.636 67.1733 176.337 66.64 175.953L67.648 173.969C68.0747 174.289 68.5653 174.54 69.12 174.721C69.6853 174.892 70.2613 174.977 70.848 174.977C71.4987 174.977 72.0107 174.854 72.384 174.609C72.7573 174.353 72.944 173.996 72.944 173.537C72.944 172.62 72.2453 172.161 70.848 172.161H69.664V170.449L71.968 167.841H67.2V165.761H75.04V167.441L72.512 170.321ZM79.1845 171.809C78.3632 171.809 77.6912 171.532 77.1685 170.977C76.6565 170.412 76.4005 169.66 76.4005 168.721C76.4005 167.782 76.6565 167.036 77.1685 166.481C77.6912 165.916 78.3632 165.633 79.1845 165.633C80.0058 165.633 80.6725 165.916 81.1845 166.481C81.6965 167.036 81.9525 167.782 81.9525 168.721C81.9525 169.66 81.6965 170.412 81.1845 170.977C80.6725 171.532 80.0058 171.809 79.1845 171.809ZM85.8565 165.761H87.7605L80.1125 176.961H78.2085L85.8565 165.761ZM79.1845 170.497C79.5472 170.497 79.8298 170.348 80.0325 170.049C80.2458 169.75 80.3525 169.308 80.3525 168.721C80.3525 168.134 80.2458 167.692 80.0325 167.393C79.8298 167.094 79.5472 166.945 79.1845 166.945C78.8325 166.945 78.5498 167.1 78.3365 167.409C78.1232 167.708 78.0165 168.145 78.0165 168.721C78.0165 169.297 78.1232 169.74 78.3365 170.049C78.5498 170.348 78.8325 170.497 79.1845 170.497ZM86.7845 177.089C86.2512 177.089 85.7712 176.966 85.3445 176.721C84.9285 176.465 84.6032 176.102 84.3685 175.633C84.1338 175.164 84.0165 174.62 84.0165 174.001C84.0165 173.382 84.1338 172.838 84.3685 172.369C84.6032 171.9 84.9285 171.542 85.3445 171.297C85.7712 171.041 86.2512 170.913 86.7845 170.913C87.6058 170.913 88.2725 171.196 88.7845 171.761C89.3072 172.316 89.5685 173.062 89.5685 174.001C89.5685 174.94 89.3072 175.692 88.7845 176.257C88.2725 176.812 87.6058 177.089 86.7845 177.089ZM86.7845 175.777C87.1472 175.777 87.4298 175.628 87.6325 175.329C87.8458 175.02 87.9525 174.577 87.9525 174.001C87.9525 173.425 87.8458 172.988 87.6325 172.689C87.4298 172.38 87.1472 172.225 86.7845 172.225C86.4325 172.225 86.1498 172.374 85.9365 172.673C85.7232 172.972 85.6165 173.414 85.6165 174.001C85.6165 174.588 85.7232 175.03 85.9365 175.329C86.1498 175.628 86.4325 175.777 86.7845 175.777Z" fill="white"/>
<path d="M1.81705 187.261H5.31505C6.15105 187.261 6.88805 187.422 7.52605 187.745C8.17139 188.06 8.67005 188.508 9.02205 189.087C9.38139 189.666 9.56105 190.341 9.56105 191.111C9.56105 191.881 9.38139 192.556 9.02205 193.135C8.67005 193.714 8.17139 194.165 7.52605 194.488C6.88805 194.803 6.15105 194.961 5.31505 194.961H1.81705V187.261ZM5.22705 193.498C5.99705 193.498 6.60939 193.285 7.06405 192.86C7.52605 192.427 7.75705 191.844 7.75705 191.111C7.75705 190.378 7.52605 189.798 7.06405 189.373C6.60939 188.94 5.99705 188.724 5.22705 188.724H3.59905V193.498H5.22705ZM16.8669 193.531V194.961H10.9049V187.261H16.7239V188.691H12.6759V190.363H16.2509V191.749H12.6759V193.531H16.8669ZM25.5804 187.261L22.2474 194.961H20.4874L17.1654 187.261H19.0904L21.4334 192.761L23.8094 187.261H25.5804ZM32.1853 193.531V194.961H26.2233V187.261H32.0423V188.691H27.9943V190.363H31.5693V191.749H27.9943V193.531H32.1853ZM33.6032 187.261H35.3852V193.509H39.2462V194.961H33.6032V187.261ZM43.842 195.093C43.0426 195.093 42.3203 194.921 41.675 194.576C41.037 194.231 40.5346 193.758 40.168 193.157C39.8086 192.548 39.629 191.866 39.629 191.111C39.629 190.356 39.8086 189.677 40.168 189.076C40.5346 188.467 41.037 187.991 41.675 187.646C42.3203 187.301 43.0426 187.129 43.842 187.129C44.6413 187.129 45.36 187.301 45.998 187.646C46.636 187.991 47.1383 188.467 47.505 189.076C47.8716 189.677 48.055 190.356 48.055 191.111C48.055 191.866 47.8716 192.548 47.505 193.157C47.1383 193.758 46.636 194.231 45.998 194.576C45.36 194.921 44.6413 195.093 43.842 195.093ZM43.842 193.575C44.2966 193.575 44.7073 193.472 45.074 193.267C45.4406 193.054 45.7266 192.761 45.932 192.387C46.1446 192.013 46.251 191.588 46.251 191.111C46.251 190.634 46.1446 190.209 45.932 189.835C45.7266 189.461 45.4406 189.171 45.074 188.966C44.7073 188.753 44.2966 188.647 43.842 188.647C43.3873 188.647 42.9766 188.753 42.61 188.966C42.2433 189.171 41.9536 189.461 41.741 189.835C41.5356 190.209 41.433 190.634 41.433 191.111C41.433 191.588 41.5356 192.013 41.741 192.387C41.9536 192.761 42.2433 193.054 42.61 193.267C42.9766 193.472 43.3873 193.575 43.842 193.575ZM56.4012 194.961L56.3902 190.341L54.1242 194.147H53.3212L51.0662 190.44V194.961H49.3942V187.261H50.8682L53.7502 192.046L56.5882 187.261H58.0512L58.0732 194.961H56.4012ZM63.2331 187.261C63.9151 187.261 64.5054 187.375 65.0041 187.602C65.5101 187.829 65.8987 188.152 66.1701 188.57C66.4414 188.988 66.5771 189.483 66.5771 190.055C66.5771 190.62 66.4414 191.115 66.1701 191.54C65.8987 191.958 65.5101 192.281 65.0041 192.508C64.5054 192.728 63.9151 192.838 63.2331 192.838H61.6821V194.961H59.9001V187.261H63.2331ZM63.1341 191.386C63.6694 191.386 64.0764 191.272 64.3551 191.045C64.6337 190.81 64.7731 190.48 64.7731 190.055C64.7731 189.622 64.6337 189.292 64.3551 189.065C64.0764 188.83 63.6694 188.713 63.1341 188.713H61.6821V191.386H63.1341ZM73.8113 193.531V194.961H67.8493V187.261H73.6683V188.691H69.6203V190.363H73.1953V191.749H69.6203V193.531H73.8113ZM82.2912 187.261V194.961H80.8282L76.9892 190.286V194.961H75.2292V187.261H76.7032L80.5312 191.936V187.261H82.2912ZM85.708 188.713H83.244V187.261H89.954V188.713H87.49V194.961H85.708V188.713Z" fill="white"/>
<g filter="url(#filter4_d_0_1)">
<path d="M137.205 119.826H127.241L119.995 119.826" stroke="url(#paint8_linear_0_1)" stroke-width="3" stroke-linecap="round"/>
</g>
<ellipse cx="215.057" cy="118.706" rx="10.7586" ry="10.7586" fill="url(#paint9_linear_0_1)"/>
<g clip-path="url(#clip2_0_1)">
<path d="M219.742 115.356C219.575 115.356 219.409 115.402 219.26 115.489C219.11 115.577 218.979 115.704 218.879 115.861C218.779 116.017 218.711 116.199 218.681 116.391C218.652 116.584 218.661 116.782 218.708 116.969L217.036 118.92C216.815 118.835 216.577 118.835 216.356 118.92L215.116 117.474C215.157 117.288 215.161 117.094 215.127 116.906C215.094 116.718 215.024 116.542 214.923 116.39C214.823 116.239 214.693 116.116 214.546 116.032C214.398 115.947 214.236 115.904 214.072 115.904C213.907 115.904 213.745 115.947 213.597 116.032C213.45 116.116 213.321 116.239 213.22 116.39C213.119 116.542 213.049 116.718 213.016 116.906C212.983 117.094 212.986 117.288 213.027 117.474L210.953 119.892C210.723 119.812 210.477 119.824 210.253 119.927C210.029 120.029 209.841 120.215 209.718 120.456C209.596 120.696 209.545 120.978 209.575 121.256C209.605 121.534 209.713 121.793 209.883 121.991C210.053 122.189 210.274 122.315 210.512 122.35C210.751 122.385 210.992 122.326 211.199 122.183C211.405 122.04 211.565 121.82 211.652 121.56C211.74 121.299 211.75 121.011 211.682 120.743L213.73 118.354C213.951 118.44 214.189 118.44 214.41 118.354L215.65 119.801C215.609 119.987 215.605 120.181 215.639 120.369C215.672 120.556 215.742 120.733 215.843 120.884C215.943 121.036 216.073 121.158 216.22 121.243C216.368 121.327 216.53 121.371 216.694 121.371C216.859 121.371 217.021 121.327 217.169 121.243C217.316 121.158 217.445 121.036 217.546 120.884C217.647 120.733 217.717 120.556 217.75 120.369C217.783 120.181 217.78 119.987 217.739 119.801L219.438 117.82C219.586 117.871 219.742 117.884 219.895 117.859C220.048 117.833 220.195 117.77 220.325 117.672C220.455 117.575 220.566 117.446 220.649 117.294C220.733 117.143 220.788 116.972 220.81 116.793C220.832 116.615 220.821 116.433 220.777 116.26C220.734 116.087 220.659 115.926 220.557 115.79C220.456 115.654 220.331 115.544 220.19 115.469C220.05 115.395 219.897 115.356 219.742 115.356V115.356Z" fill="black"/>
</g>
<path d="M237.659 109.076C239.238 109.076 240.401 109.39 241.147 110.02C241.905 110.649 242.283 111.492 242.283 112.548C242.283 113.23 242.113 113.854 241.771 114.42C241.43 114.974 240.907 115.422 240.203 115.764C239.51 116.094 238.651 116.26 237.627 116.26C236.838 116.26 236.059 116.158 235.291 115.956C234.534 115.742 233.889 115.444 233.355 115.06L234.379 113.076C234.806 113.396 235.297 113.646 235.851 113.828C236.406 113.998 236.977 114.084 237.563 114.084C238.214 114.084 238.726 113.956 239.099 113.7C239.473 113.444 239.659 113.086 239.659 112.628C239.659 112.148 239.462 111.785 239.067 111.54C238.683 111.294 238.011 111.172 237.051 111.172H234.187L234.763 104.868H241.595V106.948H236.923L236.747 109.076H237.659ZM245.771 110.916C244.949 110.916 244.277 110.638 243.755 110.084C243.243 109.518 242.987 108.766 242.987 107.828C242.987 106.889 243.243 106.142 243.755 105.588C244.277 105.022 244.949 104.74 245.771 104.74C246.592 104.74 247.259 105.022 247.771 105.588C248.283 106.142 248.539 106.889 248.539 107.828C248.539 108.766 248.283 109.518 247.771 110.084C247.259 110.638 246.592 110.916 245.771 110.916ZM252.443 104.868H254.347L246.699 116.068H244.795L252.443 104.868ZM245.771 109.604C246.133 109.604 246.416 109.454 246.619 109.156C246.832 108.857 246.939 108.414 246.939 107.828C246.939 107.241 246.832 106.798 246.619 106.5C246.416 106.201 246.133 106.052 245.771 106.052C245.419 106.052 245.136 106.206 244.923 106.516C244.709 106.814 244.603 107.252 244.603 107.828C244.603 108.404 244.709 108.846 244.923 109.156C245.136 109.454 245.419 109.604 245.771 109.604ZM253.371 116.196C252.837 116.196 252.357 116.073 251.931 115.828C251.515 115.572 251.189 115.209 250.955 114.74C250.72 114.27 250.603 113.726 250.603 113.108C250.603 112.489 250.72 111.945 250.955 111.476C251.189 111.006 251.515 110.649 251.931 110.404C252.357 110.148 252.837 110.02 253.371 110.02C254.192 110.02 254.859 110.302 255.371 110.868C255.893 111.422 256.155 112.169 256.155 113.108C256.155 114.046 255.893 114.798 255.371 115.364C254.859 115.918 254.192 116.196 253.371 116.196ZM253.371 114.884C253.733 114.884 254.016 114.734 254.219 114.436C254.432 114.126 254.539 113.684 254.539 113.108C254.539 112.532 254.432 112.094 254.219 111.796C254.016 111.486 253.733 111.332 253.371 111.332C253.019 111.332 252.736 111.481 252.523 111.78C252.309 112.078 252.203 112.521 252.203 113.108C252.203 113.694 252.309 114.137 252.523 114.436C252.736 114.734 253.019 114.884 253.371 114.884Z" fill="white"/>
<path d="M241.115 134.068L241.104 129.448L238.838 133.254H238.035L235.78 129.547V134.068H234.108V126.368H235.582L238.464 131.153L241.302 126.368H242.765L242.787 134.068H241.115ZM249.685 132.418H246.11L245.428 134.068H243.602L247.034 126.368H248.794L252.237 134.068H250.367L249.685 132.418ZM249.124 131.065L247.903 128.117L246.682 131.065H249.124ZM257.942 134.068L256.457 131.923H256.369H254.818V134.068H253.036V126.368H256.369C257.051 126.368 257.641 126.481 258.14 126.709C258.646 126.936 259.035 127.259 259.306 127.677C259.577 128.095 259.713 128.59 259.713 129.162C259.713 129.734 259.574 130.229 259.295 130.647C259.024 131.057 258.635 131.373 258.129 131.593L259.856 134.068H257.942ZM257.909 129.162C257.909 128.729 257.77 128.399 257.491 128.172C257.212 127.937 256.805 127.82 256.27 127.82H254.818V130.504H256.27C256.805 130.504 257.212 130.386 257.491 130.152C257.77 129.917 257.909 129.587 257.909 129.162ZM263.93 131.043L262.896 132.121V134.068H261.125V126.368H262.896V129.965L266.306 126.368H268.286L265.096 129.8L268.473 134.068H266.394L263.93 131.043ZM275.229 132.638V134.068H269.267V126.368H275.086V127.798H271.038V129.47H274.613V130.856H271.038V132.638H275.229ZM278.242 127.82H275.778V126.368H282.488V127.82H280.024V134.068H278.242V127.82ZM283.447 126.368H285.229V134.068H283.447V126.368ZM294.119 126.368V134.068H292.656L288.817 129.393V134.068H287.057V126.368H288.531L292.359 131.043V126.368H294.119ZM301.143 130.097H302.771V133.221C302.353 133.536 301.869 133.778 301.319 133.947C300.769 134.115 300.216 134.2 299.658 134.2C298.859 134.2 298.14 134.031 297.502 133.694C296.864 133.349 296.362 132.876 295.995 132.275C295.636 131.666 295.456 130.98 295.456 130.218C295.456 129.455 295.636 128.773 295.995 128.172C296.362 127.563 296.868 127.09 297.513 126.753C298.159 126.408 298.885 126.236 299.691 126.236C300.366 126.236 300.978 126.349 301.528 126.577C302.078 126.804 302.54 127.134 302.914 127.567L301.77 128.623C301.22 128.043 300.557 127.754 299.779 127.754C299.288 127.754 298.852 127.856 298.47 128.062C298.089 128.267 297.792 128.557 297.579 128.931C297.367 129.305 297.26 129.734 297.26 130.218C297.26 130.694 297.367 131.12 297.579 131.494C297.792 131.868 298.085 132.161 298.459 132.374C298.841 132.579 299.273 132.682 299.757 132.682C300.271 132.682 300.733 132.572 301.143 132.352V130.097Z" fill="white"/>
<g filter="url(#filter5_d_0_1)">
<path d="M198.413 120H188.449L181.203 120" stroke="url(#paint10_linear_0_1)" stroke-width="3" stroke-linecap="round"/>
</g>
<ellipse cx="103.065" cy="119.85" rx="10.7586" ry="10.7586" fill="url(#paint11_linear_0_1)"/>
<g clip-path="url(#clip3_0_1)">
<path d="M107.75 116.5C107.582 116.5 107.417 116.546 107.267 116.633C107.117 116.721 106.987 116.848 106.887 117.005C106.786 117.161 106.719 117.343 106.689 117.535C106.659 117.728 106.669 117.926 106.716 118.113L105.043 120.064C104.823 119.979 104.584 119.979 104.364 120.064L103.123 118.618C103.164 118.432 103.168 118.238 103.135 118.05C103.101 117.862 103.032 117.686 102.931 117.534C102.83 117.383 102.701 117.26 102.553 117.176C102.406 117.091 102.243 117.048 102.079 117.048C101.915 117.048 101.753 117.091 101.605 117.176C101.457 117.26 101.328 117.383 101.227 117.534C101.127 117.686 101.057 117.862 101.023 118.05C100.99 118.238 100.994 118.432 101.035 118.618L98.9608 121.036C98.7305 120.956 98.4841 120.968 98.2605 121.071C98.0369 121.173 97.8488 121.359 97.7261 121.6C97.6033 121.84 97.5528 122.122 97.5826 122.4C97.6123 122.678 97.7206 122.937 97.8904 123.135C98.0602 123.333 98.2817 123.459 98.52 123.494C98.7583 123.529 98.9997 123.47 99.2061 123.327C99.4125 123.184 99.5721 122.964 99.6598 122.704C99.7474 122.443 99.758 122.155 99.6899 121.887L101.738 119.498C101.958 119.584 102.197 119.584 102.417 119.498L103.658 120.945C103.617 121.131 103.613 121.325 103.646 121.513C103.68 121.7 103.749 121.877 103.85 122.028C103.951 122.18 104.08 122.302 104.228 122.387C104.375 122.471 104.538 122.515 104.702 122.515C104.866 122.515 105.029 122.471 105.176 122.387C105.324 122.302 105.453 122.18 105.554 122.028C105.655 121.877 105.724 121.7 105.758 121.513C105.791 121.325 105.787 121.131 105.746 120.945L107.445 118.964C107.593 119.015 107.749 119.028 107.902 119.003C108.056 118.977 108.202 118.914 108.332 118.816C108.462 118.719 108.573 118.59 108.657 118.438C108.74 118.287 108.795 118.116 108.817 117.937C108.839 117.759 108.828 117.577 108.785 117.404C108.741 117.231 108.666 117.07 108.565 116.934C108.464 116.798 108.339 116.688 108.198 116.614C108.057 116.539 107.904 116.5 107.75 116.5V116.5Z" fill="black"/>
</g>
<path d="M67.7151 110.572C68.6965 110.732 69.4485 111.1 69.9711 111.676C70.4938 112.241 70.7551 112.945 70.7551 113.788C70.7551 114.438 70.5845 115.041 70.2431 115.596C69.9018 116.14 69.3791 116.577 68.6751 116.908C67.9818 117.238 67.1285 117.404 66.1151 117.404C65.3258 117.404 64.5471 117.302 63.7791 117.1C63.0218 116.886 62.3765 116.588 61.8431 116.204L62.8511 114.22C63.2778 114.54 63.7685 114.79 64.3231 114.972C64.8885 115.142 65.4645 115.228 66.0511 115.228C66.7018 115.228 67.2138 115.105 67.5871 114.86C67.9605 114.604 68.1471 114.246 68.1471 113.788C68.1471 112.87 67.4485 112.412 66.0511 112.412H64.8671V110.7L67.1711 108.092H62.4031V106.012H70.2431V107.692L67.7151 110.572ZM74.3876 112.06C73.5663 112.06 72.8943 111.782 72.3716 111.228C71.8596 110.662 71.6036 109.91 71.6036 108.972C71.6036 108.033 71.8596 107.286 72.3716 106.732C72.8943 106.166 73.5663 105.884 74.3876 105.884C75.209 105.884 75.8756 106.166 76.3876 106.732C76.8996 107.286 77.1556 108.033 77.1556 108.972C77.1556 109.91 76.8996 110.662 76.3876 111.228C75.8756 111.782 75.209 112.06 74.3876 112.06ZM81.0596 106.012H82.9636L75.3156 117.212H73.4116L81.0596 106.012ZM74.3876 110.748C74.7503 110.748 75.033 110.598 75.2356 110.3C75.449 110.001 75.5556 109.558 75.5556 108.972C75.5556 108.385 75.449 107.942 75.2356 107.644C75.033 107.345 74.7503 107.196 74.3876 107.196C74.0356 107.196 73.753 107.35 73.5396 107.66C73.3263 107.958 73.2196 108.396 73.2196 108.972C73.2196 109.548 73.3263 109.99 73.5396 110.3C73.753 110.598 74.0356 110.748 74.3876 110.748ZM81.9876 117.34C81.4543 117.34 80.9743 117.217 80.5476 116.972C80.1316 116.716 79.8063 116.353 79.5716 115.884C79.337 115.414 79.2196 114.87 79.2196 114.252C79.2196 113.633 79.337 113.089 79.5716 112.62C79.8063 112.15 80.1316 111.793 80.5476 111.548C80.9743 111.292 81.4543 111.164 81.9876 111.164C82.809 111.164 83.4756 111.446 83.9876 112.012C84.5103 112.566 84.7716 113.313 84.7716 114.252C84.7716 115.19 84.5103 115.942 83.9876 116.508C83.4756 117.062 82.809 117.34 81.9876 117.34ZM81.9876 116.028C82.3503 116.028 82.633 115.878 82.8356 115.58C83.049 115.27 83.1556 114.828 83.1556 114.252C83.1556 113.676 83.049 113.238 82.8356 112.94C82.633 112.63 82.3503 112.476 81.9876 112.476C81.6356 112.476 81.353 112.625 81.1396 112.924C80.9263 113.222 80.8196 113.665 80.8196 114.252C80.8196 114.838 80.9263 115.281 81.1396 115.58C81.353 115.878 81.6356 116.028 81.9876 116.028Z" fill="white"/>
<path d="M22.8045 135.212L22.7935 130.592L20.5275 134.398H19.7245L17.4695 130.691V135.212H15.7975V127.512H17.2715L20.1535 132.297L22.9915 127.512H24.4545L24.4765 135.212H22.8045ZM31.3744 133.562H27.7994L27.1174 135.212H25.2914L28.7234 127.512H30.4834L33.9264 135.212H32.0564L31.3744 133.562ZM30.8134 132.209L29.5924 129.261L28.3714 132.209H30.8134ZM39.6313 135.212L38.1463 133.067H38.0583H36.5073V135.212H34.7253V127.512H38.0583C38.7403 127.512 39.3306 127.625 39.8293 127.853C40.3353 128.08 40.7239 128.403 40.9953 128.821C41.2666 129.239 41.4023 129.734 41.4023 130.306C41.4023 130.878 41.2629 131.373 40.9843 131.791C40.7129 132.201 40.3243 132.517 39.8183 132.737L41.5453 135.212H39.6313ZM39.5983 130.306C39.5983 129.873 39.4589 129.543 39.1803 129.316C38.9016 129.081 38.4946 128.964 37.9593 128.964H36.5073V131.648H37.9593C38.4946 131.648 38.9016 131.53 39.1803 131.296C39.4589 131.061 39.5983 130.731 39.5983 130.306ZM45.6191 132.187L44.5851 133.265V135.212H42.8141V127.512H44.5851V131.109L47.9951 127.512H49.9751L46.7851 130.944L50.1621 135.212H48.0831L45.6191 132.187ZM56.9187 133.782V135.212H50.9567V127.512H56.7757V128.942H52.7277V130.614H56.3027V132H52.7277V133.782H56.9187ZM59.9316 128.964H57.4676V127.512H64.1776V128.964H61.7136V135.212H59.9316V128.964ZM65.1364 127.512H66.9184V135.212H65.1364V127.512ZM75.8078 127.512V135.212H74.3448L70.5058 130.537V135.212H68.7458V127.512H70.2198L74.0478 132.187V127.512H75.8078ZM82.8326 131.241H84.4606V134.365C84.0426 134.68 83.5586 134.922 83.0086 135.091C82.4586 135.259 81.9049 135.344 81.3476 135.344C80.5482 135.344 79.8296 135.175 79.1916 134.838C78.5536 134.493 78.0512 134.02 77.6846 133.419C77.3252 132.81 77.1456 132.124 77.1456 131.362C77.1456 130.599 77.3252 129.917 77.6846 129.316C78.0512 128.707 78.5572 128.234 79.2026 127.897C79.8479 127.552 80.5739 127.38 81.3806 127.38C82.0552 127.38 82.6676 127.493 83.2176 127.721C83.7676 127.948 84.2296 128.278 84.6036 128.711L83.4596 129.767C82.9096 129.187 82.2459 128.898 81.4686 128.898C80.9772 128.898 80.5409 129 80.1596 129.206C79.7782 129.411 79.4812 129.701 79.2686 130.075C79.0559 130.449 78.9496 130.878 78.9496 131.362C78.9496 131.838 79.0559 132.264 79.2686 132.638C79.4812 133.012 79.7746 133.305 80.1486 133.518C80.5299 133.723 80.9626 133.826 81.4466 133.826C81.9599 133.826 82.4219 133.716 82.8326 133.496V131.241Z" fill="white"/>
<g filter="url(#filter6_d_0_1)">
<circle cx="158.706" cy="115.5" r="22" stroke="url(#paint12_angular_0_1)" stroke-width="3" shape-rendering="crispEdges"/>
</g>
<g filter="url(#filter7_d_0_1)">
<ellipse cx="158.706" cy="116" rx="18.5" ry="19" fill="url(#paint13_linear_0_1)"/>
</g>
<defs>
<filter id="filter0_d_0_1" x="111.703" y="51.5" width="50.0005" height="58.0004" filterUnits="userSpaceOnUse" color-interpolation-filters="sRGB">
<feFlood flood-opacity="0" result="BackgroundImageFix"/>
<feColorMatrix in="SourceAlpha" type="matrix" values="0 0 0 0 0 0 0 0 0 0 0 0 0 0 0 0 0 0 127 0" result="hardAlpha"/>
<feOffset dy="4"/>
<feGaussianBlur stdDeviation="5"/>
<feComposite in2="hardAlpha" operator="out"/>
<feColorMatrix type="matrix" values="0 0 0 0 1 0 0 0 0 1 0 0 0 0 1 0 0 0 0.25 0"/>
<feBlend mode="normal" in2="BackgroundImageFix" result="effect1_dropShadow_0_1"/>
<feBlend mode="normal" in="SourceGraphic" in2="effect1_dropShadow_0_1" result="shape"/>
</filter>
<filter id="filter1_d_0_1" x="155.702" y="51.5" width="50.0005" height="58.0004" filterUnits="userSpaceOnUse" color-interpolation-filters="sRGB">
<feFlood flood-opacity="0" result="BackgroundImageFix"/>
<feColorMatrix in="SourceAlpha" type="matrix" values="0 0 0 0 0 0 0 0 0 0 0 0 0 0 0 0 0 0 127 0" result="hardAlpha"/>
<feOffset dy="4"/>
<feGaussianBlur stdDeviation="5"/>
<feComposite in2="hardAlpha" operator="out"/>
<feColorMatrix type="matrix" values="0 0 0 0 1 0 0 0 0 1 0 0 0 0 1 0 0 0 0.25 0"/>
<feBlend mode="normal" in2="BackgroundImageFix" result="effect1_dropShadow_0_1"/>
<feBlend mode="normal" in="SourceGraphic" in2="effect1_dropShadow_0_1" result="shape"/>
</filter>
<filter id="filter2_d_0_1" x="112.703" y="128.5" width="49.0005" height="68.0004" filterUnits="userSpaceOnUse" color-interpolation-filters="sRGB">
<feFlood flood-opacity="0" result="BackgroundImageFix"/>
<feColorMatrix in="SourceAlpha" type="matrix" values="0 0 0 0 0 0 0 0 0 0 0 0 0 0 0 0 0 0 127 0" result="hardAlpha"/>
<feOffset dy="4"/>
<feGaussianBlur stdDeviation="5"/>
<feComposite in2="hardAlpha" operator="out"/>
<feColorMatrix type="matrix" values="0 0 0 0 1 0 0 0 0 1 0 0 0 0 1 0 0 0 0.25 0"/>
<feBlend mode="normal" in2="BackgroundImageFix" result="effect1_dropShadow_0_1"/>
<feBlend mode="normal" in="SourceGraphic" in2="effect1_dropShadow_0_1" result="shape"/>
</filter>
<filter id="filter3_d_0_1" x="155.702" y="128.5" width="49.0005" height="68.0004" filterUnits="userSpaceOnUse" color-interpolation-filters="sRGB">
<feFlood flood-opacity="0" result="BackgroundImageFix"/>
<feColorMatrix in="SourceAlpha" type="matrix" values="0 0 0 0 0 0 0 0 0 0 0 0 0 0 0 0 0 0 127 0" result="hardAlpha"/>
<feOffset dy="4"/>
<feGaussianBlur stdDeviation="5"/>
<feComposite in2="hardAlpha" operator="out"/>
<feColorMatrix type="matrix" values="0 0 0 0 1 0 0 0 0 1 0 0 0 0 1 0 0 0 0.25 0"/>
<feBlend mode="normal" in2="BackgroundImageFix" result="effect1_dropShadow_0_1"/>
<feBlend mode="normal" in="SourceGraphic" in2="effect1_dropShadow_0_1" result="shape"/>
</filter>
<filter id="filter4_d_0_1" x="108.495" y="112.326" width="40.21" height="23" filterUnits="userSpaceOnUse" color-interpolation-filters="sRGB">
<feFlood flood-opacity="0" result="BackgroundImageFix"/>
<feColorMatrix in="SourceAlpha" type="matrix" values="0 0 0 0 0 0 0 0 0 0 0 0 0 0 0 0 0 0 127 0" result="hardAlpha"/>
<feOffset dy="4"/>
<feGaussianBlur stdDeviation="5"/>
<feComposite in2="hardAlpha" operator="out"/>
<feColorMatrix type="matrix" values="0 0 0 0 1 0 0 0 0 1 0 0 0 0 1 0 0 0 0.25 0"/>
<feBlend mode="normal" in2="BackgroundImageFix" result="effect1_dropShadow_0_1"/>
<feBlend mode="normal" in="SourceGraphic" in2="effect1_dropShadow_0_1" result="shape"/>
</filter>
<filter id="filter5_d_0_1" x="169.703" y="112.5" width="40.21" height="23" filterUnits="userSpaceOnUse" color-interpolation-filters="sRGB">
<feFlood flood-opacity="0" result="BackgroundImageFix"/>
<feColorMatrix in="SourceAlpha" type="matrix" values="0 0 0 0 0 0 0 0 0 0 0 0 0 0 0 0 0 0 127 0" result="hardAlpha"/>
<feOffset dy="4"/>
<feGaussianBlur stdDeviation="5"/>
<feComposite in2="hardAlpha" operator="out"/>
<feColorMatrix type="matrix" values="0 0 0 0 1 0 0 0 0 1 0 0 0 0 1 0 0 0 0.25 0"/>
<feBlend mode="normal" in2="BackgroundImageFix" result="effect1_dropShadow_0_1"/>
<feBlend mode="normal" in="SourceGraphic" in2="effect1_dropShadow_0_1" result="shape"/>
</filter>
<filter id="filter6_d_0_1" x="105.206" y="66" width="107" height="107" filterUnits="userSpaceOnUse" color-interpolation-filters="sRGB">
<feFlood flood-opacity="0" result="BackgroundImageFix"/>
<feColorMatrix in="SourceAlpha" type="matrix" values="0 0 0 0 0 0 0 0 0 0 0 0 0 0 0 0 0 0 127 0" result="hardAlpha"/>
<feOffset dy="4"/>
<feGaussianBlur stdDeviation="15"/>
<feComposite in2="hardAlpha" operator="out"/>
<feColorMatrix type="matrix" values="0 0 0 0 1 0 0 0 0 1 0 0 0 0 1 0 0 0 0.5 0"/>
<feBlend mode="normal" in2="BackgroundImageFix" result="effect1_dropShadow_0_1"/>
<feBlend mode="normal" in="SourceGraphic" in2="effect1_dropShadow_0_1" result="shape"/>
</filter>
<filter id="filter7_d_0_1" x="120.206" y="81" width="77" height="78" filterUnits="userSpaceOnUse" color-interpolation-filters="sRGB">
<feFlood flood-opacity="0" result="BackgroundImageFix"/>
<feColorMatrix in="SourceAlpha" type="matrix" values="0 0 0 0 0 0 0 0 0 0 0 0 0 0 0 0 0 0 127 0" result="hardAlpha"/>
<feOffset dy="4"/>
<feGaussianBlur stdDeviation="10"/>
<feComposite in2="hardAlpha" operator="out"/>
<feColorMatrix type="matrix" values="0 0 0 0 0 0 0 0 0 0 0 0 0 0 0 0 0 0 0.25 0"/>
<feBlend mode="normal" in2="BackgroundImageFix" result="effect1_dropShadow_0_1"/>
<feBlend mode="normal" in="SourceGraphic" in2="effect1_dropShadow_0_1" result="shape"/>
</filter>
<linearGradient id="paint0_linear_0_1" x1="210.478" y1="48.9119" x2="210.478" y2="71.3947" gradientUnits="userSpaceOnUse">
<stop stop-color="#A81515"/>
<stop offset="0.479167" stop-color="#E76565"/>
<stop offset="1" stop-color="#AD1E1E"/>
</linearGradient>
<linearGradient id="paint1_linear_0_1" x1="148.064" y1="94" x2="118.617" y2="89.0185" gradientUnits="userSpaceOnUse">
<stop stop-color="#F65E28"/>
<stop offset="1" stop-color="#F2940F"/>
</linearGradient>
<linearGradient id="paint2_linear_0_1" x1="169.341" y1="94" x2="195.412" y2="86.2327" gradientUnits="userSpaceOnUse">
<stop stop-color="#AFB418"/>
<stop offset="1" stop-color="#E4A50C"/>
</linearGradient>
<linearGradient id="paint3_linear_0_1" x1="107.198" y1="50.0561" x2="107.198" y2="72.5388" gradientUnits="userSpaceOnUse">
<stop stop-color="#A81515"/>
<stop offset="0.479167" stop-color="#E76565"/>
<stop offset="1" stop-color="#AD1E1E"/>
</linearGradient>
<linearGradient id="paint4_linear_0_1" x1="144.203" y1="157.5" x2="121.301" y2="168.292" gradientUnits="userSpaceOnUse">
<stop stop-color="#5A20AA"/>
<stop offset="1" stop-color="#920B79"/>
</linearGradient>
<linearGradient id="paint5_linear_0_1" x1="209.26" y1="167.696" x2="209.398" y2="189.213" gradientUnits="userSpaceOnUse">
<stop stop-color="#B01D1D"/>
<stop offset="0.478131" stop-color="#D15A5A"/>
<stop offset="1" stop-color="#861919"/>
</linearGradient>
<linearGradient id="paint6_linear_0_1" x1="168.703" y1="143.5" x2="191.284" y2="156.012" gradientUnits="userSpaceOnUse">
<stop stop-color="#392DCF"/>
<stop offset="1" stop-color="#4B29C3"/>
</linearGradient>
<linearGradient id="paint7_linear_0_1" x1="107.862" y1="168.84" x2="108" y2="190.358" gradientUnits="userSpaceOnUse">
<stop stop-color="#B01D1D"/>
<stop offset="0.478131" stop-color="#D15A5A"/>
<stop offset="1" stop-color="#861919"/>
</linearGradient>
<linearGradient id="paint8_linear_0_1" x1="136.86" y1="119.826" x2="131.157" y2="111.317" gradientUnits="userSpaceOnUse">
<stop stop-color="#CE042C"/>
<stop offset="1" stop-color="#F22516"/>
</linearGradient>
<linearGradient id="paint9_linear_0_1" x1="215.057" y1="107.947" x2="215.057" y2="129.464" gradientUnits="userSpaceOnUse">
<stop stop-color="#B51919"/>
<stop offset="0.454643" stop-color="#D15F5F"/>
<stop offset="1" stop-color="#B42020"/>
</linearGradient>
<linearGradient id="paint10_linear_0_1" x1="198.068" y1="120" x2="194.944" y2="115.244" gradientUnits="userSpaceOnUse">
<stop stop-color="#1C70AE"/>
<stop offset="1" stop-color="#3748BB"/>
</linearGradient>
<linearGradient id="paint11_linear_0_1" x1="103.065" y1="109.091" x2="103.065" y2="130.608" gradientUnits="userSpaceOnUse">
<stop stop-color="#B51919"/>
<stop offset="0.454643" stop-color="#D15F5F"/>
<stop offset="1" stop-color="#B42020"/>
</linearGradient>
<radialGradient id="paint12_angular_0_1" cx="0" cy="0" r="1" gradientUnits="userSpaceOnUse" gradientTransform="translate(158.706 115.5) rotate(141.782) scale(47.1775)">
<stop offset="0.135917" stop-color="#FF0000"/>
<stop offset="0.281885" stop-color="#FF542F"/>
<stop offset="0.380208" stop-color="#F9A708"/>
<stop offset="0.450774" stop-color="#78CA26"/>
<stop offset="0.531259" stop-color="#177BB4"/>
<stop offset="0.704508" stop-color="#5627DB"/>
<stop offset="0.852067" stop-color="#3138F3"/>
<stop offset="1" stop-color="#A60983"/>
</radialGradient>
<linearGradient id="paint13_linear_0_1" x1="158.779" y1="94.1349" x2="158.779" y2="140.504" gradientUnits="userSpaceOnUse">
<stop stop-color="#610101"/>
<stop offset="0.477627" stop-color="#CA4436"/>
<stop offset="1" stop-color="#750D00"/>
</linearGradient>
<clipPath id="clip0_0_1">
<rect width="12.6897" height="12.6897" fill="white" transform="translate(203.053 172.11)"/>
</clipPath>
<clipPath id="clip1_0_1">
<rect width="12.6897" height="12.6897" fill="white" transform="translate(101.655 173.254)"/>
</clipPath>
<clipPath id="clip2_0_1">
<rect width="12" height="14" fill="white" transform="translate(209.195 111.856)"/>
</clipPath>
<clipPath id="clip3_0_1">
<rect width="12" height="14" fill="white" transform="translate(97.2029 113)"/>
</clipPath>
</defs>
</svg>
