<svg width="24" height="21" viewBox="0 0 24 21" fill="none" xmlns="http://www.w3.org/2000/svg">
<path fill-rule="evenodd" clip-rule="evenodd" d="M0.799805 2.50002C0.799805 2.07568 0.968376 1.66871 1.26843 1.36865C1.56849 1.0686 1.97546 0.900024 2.3998 0.900024H21.5998C22.0242 0.900024 22.4311 1.0686 22.7312 1.36865C23.0312 1.66871 23.1998 2.07568 23.1998 2.50002C23.1998 2.92437 23.0312 3.33134 22.7312 3.6314C22.4311 3.93145 22.0242 4.10002 21.5998 4.10002H2.3998C1.97546 4.10002 1.56849 3.93145 1.26843 3.6314C0.968376 3.33134 0.799805 2.92437 0.799805 2.50002Z" fill="white"/>
<path fill-rule="evenodd" clip-rule="evenodd" d="M0.799805 10.5C0.799805 10.0757 0.968376 9.66871 1.26843 9.36865C1.56849 9.0686 1.97546 8.90002 2.3998 8.90002H21.5998C22.0242 8.90002 22.4311 9.0686 22.7312 9.36865C23.0312 9.66871 23.1998 10.0757 23.1998 10.5C23.1998 10.9244 23.0312 11.3313 22.7312 11.6314C22.4311 11.9315 22.0242 12.1 21.5998 12.1H2.3998C1.97546 12.1 1.56849 11.9315 1.26843 11.6314C0.968376 11.3313 0.799805 10.9244 0.799805 10.5Z" fill="white"/>
<path fill-rule="evenodd" clip-rule="evenodd" d="M10.3999 18.5C10.3999 18.0757 10.5685 17.6687 10.8685 17.3687C11.1686 17.0686 11.5756 16.9 11.9999 16.9H21.5999C22.0243 16.9 22.4312 17.0686 22.7313 17.3687C23.0313 17.6687 23.1999 18.0757 23.1999 18.5C23.1999 18.9244 23.0313 19.3313 22.7313 19.6314C22.4312 19.9315 22.0243 20.1 21.5999 20.1H11.9999C11.5756 20.1 11.1686 19.9315 10.8685 19.6314C10.5685 19.3313 10.3999 18.9244 10.3999 18.5Z" fill="white"/>
</svg>
