<svg width="64" height="65" viewBox="0 0 64 65" fill="none" xmlns="http://www.w3.org/2000/svg">
<path d="M12.6947 6.91463C11.0113 6.91463 9.39683 7.58337 8.20647 8.77373C7.01611 9.96409 6.34737 11.5786 6.34737 13.262V51.3462C6.34737 53.0296 7.01611 54.6441 8.20647 55.8345C9.39683 57.0248 11.0113 57.6936 12.6947 57.6936H50.7789C52.4624 57.6936 54.0769 57.0248 55.2672 55.8345C56.4576 54.6441 57.1263 53.0296 57.1263 51.3462V13.262C57.1263 11.5786 56.4576 9.96409 55.2672 8.77373C54.0769 7.58337 52.4624 6.91463 50.7789 6.91463H12.6947ZM12.6947 0.567261H50.7789C54.1458 0.567261 57.3748 1.90474 59.7555 4.28546C62.1362 6.66619 63.4737 9.89514 63.4737 13.262V51.3462C63.4737 54.7131 62.1362 57.942 59.7555 60.3227C57.3748 62.7035 54.1458 64.0409 50.7789 64.0409H12.6947C9.32788 64.0409 6.09893 62.7035 3.7182 60.3227C1.33748 57.942 0 54.7131 0 51.3462V13.262C0 9.89514 1.33748 6.66619 3.7182 4.28546C6.09893 1.90474 9.32788 0.567261 12.6947 0.567261Z" fill="#FFDEDE"/>
<path d="M45.7902 20.3573L18.1886 30.9332C16.3049 31.685 16.3158 32.7292 17.843 33.1948L24.9294 35.3913L41.3254 25.1124C42.1007 24.6436 42.809 24.8958 42.2268 25.4094L28.9428 37.3218H28.9397L28.9428 37.3234L28.454 44.5813C29.1701 44.5813 29.4861 44.2549 29.8878 43.8697L33.3298 40.544L40.4894 45.7987C41.8095 46.5211 42.7576 46.1498 43.0861 44.5844L47.786 22.5755C48.267 20.6589 47.0496 19.7911 45.7902 20.3573Z" fill="#FFDEDE"/>
</svg>
