<svg width="63" height="63" viewBox="0 0 63 63" fill="none" xmlns="http://www.w3.org/2000/svg">
<path d="M47.5 20.9831C46.3408 21.4871 45.0966 21.8336 43.7893 21.9848C45.1249 21.1973 46.1455 19.9499 46.6306 18.4662C45.3579 19.208 43.9692 19.7298 42.523 20.0097C41.9147 19.3721 41.1828 18.865 40.3721 18.5195C39.5613 18.174 38.6887 17.9972 37.8075 18C34.2385 18 31.3468 20.8508 31.3468 24.363C31.3468 24.8607 31.4035 25.3458 31.5138 25.812C28.9538 25.6905 26.4474 25.0366 24.1542 23.8923C21.8611 22.7479 19.8317 21.1381 18.1956 19.1655C17.6209 20.1329 17.3183 21.2376 17.3199 22.3628C17.3199 24.5678 18.4633 26.5208 20.1958 27.6579C19.1703 27.6258 18.1668 27.3528 17.2663 26.861V26.9397C17.276 28.4185 17.798 29.8482 18.7434 30.9854C19.6888 32.1226 20.9991 32.897 22.4512 33.1767C21.4979 33.4288 20.5004 33.4654 19.5312 33.2838C19.9537 34.556 20.7618 35.6651 21.8433 36.4571C22.9249 37.249 24.2262 37.6846 25.5666 37.7033C23.2669 39.4753 20.4435 40.4327 17.5403 40.4249C17.0206 40.4249 16.5072 40.3934 16 40.3367C18.9625 42.2118 22.3975 43.205 25.9036 43.2C37.7917 43.2 44.2902 33.5043 44.2902 25.0938L44.2681 24.2685C45.5353 23.378 46.6304 22.2648 47.5 20.9831Z" fill="#FFDEDE"/>
<path d="M12.6 6.3C10.9291 6.3 9.32671 6.96375 8.14523 8.14523C6.96375 9.32671 6.3 10.9291 6.3 12.6V50.4C6.3 52.0709 6.96375 53.6733 8.14523 54.8548C9.32671 56.0363 10.9291 56.7 12.6 56.7H50.4C52.0709 56.7 53.6733 56.0363 54.8548 54.8548C56.0363 53.6733 56.7 52.0709 56.7 50.4V12.6C56.7 10.9291 56.0363 9.32671 54.8548 8.14523C53.6733 6.96375 52.0709 6.3 50.4 6.3H12.6ZM12.6 0H50.4C53.7417 0 56.9466 1.3275 59.3095 3.69045C61.6725 6.05341 63 9.25827 63 12.6V50.4C63 53.7417 61.6725 56.9466 59.3095 59.3095C56.9466 61.6725 53.7417 63 50.4 63H12.6C9.25827 63 6.05341 61.6725 3.69045 59.3095C1.3275 56.9466 0 53.7417 0 50.4V12.6C0 9.25827 1.3275 6.05341 3.69045 3.69045C6.05341 1.3275 9.25827 0 12.6 0Z" fill="#FFDEDE"/>
</svg>
