<svg width="12" height="7" viewBox="0 0 12 7" fill="none" xmlns="http://www.w3.org/2000/svg">
<path d="M10.3516 0.430814C10.5078 0.276191 10.7187 0.189453 10.9384 0.189453C11.1582 0.189453 11.3691 0.276191 11.5252 0.430814C11.6023 0.506742 11.6635 0.597247 11.7053 0.69706C11.7471 0.796874 11.7687 0.904004 11.7687 1.01221C11.7687 1.12042 11.7471 1.22755 11.7053 1.32737C11.6635 1.42718 11.6023 1.51769 11.5252 1.59361L6.83562 6.18961C6.6791 6.34402 6.46808 6.43059 6.24822 6.43059C6.02836 6.43059 5.81734 6.34402 5.66082 6.18961L0.971218 1.59361C0.894119 1.51769 0.832891 1.42718 0.791098 1.32737C0.749306 1.22755 0.727783 1.12042 0.727783 1.01221C0.727783 0.904004 0.749306 0.796874 0.791098 0.69706C0.832891 0.597247 0.894119 0.506742 0.971218 0.430814C1.12738 0.276191 1.33826 0.189453 1.55802 0.189453C1.77778 0.189453 1.98866 0.276191 2.14482 0.430814L6.25002 4.20001L10.3516 0.430814Z" fill="white"/>
</svg>
